<?xml version="1.0" encoding="UTF-8"?>
<svg width="1445px" height="141px" viewBox="0 0 1445 141" version="1.1" xmlns="http://www.w3.org/2000/svg" xmlns:xlink="http://www.w3.org/1999/xlink">
    <!-- Generator: Sketch 52.5 (67469) - http://www.bohemiancoding.com/sketch -->
    <title>Artboard 1</title>
    <desc>Created with Sketch.</desc>
    <g id="Page-1" stroke="none" stroke-width="1" fill="none" fill-rule="evenodd">
        <g id="Artboard" transform="translate(-1.000000, -578.000000)" fill="#F3F2EE">
            <g id="Artboard-1" transform="translate(1.000000, 578.000000)">
                <path d="M757.35,129.11 C757.2,129.11 757.07,129.49 757.08,129.97 C757.09,130.45 757.22,130.83 757.38,130.83 C757.54,130.83 757.66,130.43 757.65,129.96 C757.64,129.49 757.51,129.11 757.35,129.11 Z M771.58,130.77 C771.27,130.77 771.22,131.02 771.38,131.77 C771.51,132.3 771.7,132.47 771.81,132.14 C772.11,131.26 772.04,130.81 771.58,130.81 L771.58,130.77 Z M778.17,130.81 C777.78,130.81 777.71,131.05 777.88,131.81 C778.01,132.34 778.24,132.55 778.41,132.26 C778.85,131.48 778.74,130.83 778.17,130.84 L778.17,130.81 Z M801.5,132.74 C801.32,132.94 801.5,133.12 801.84,133.12 C802.18,133.12 802.36,132.94 802.18,132.73 C802.096423,132.628254 801.971672,132.569285 801.84,132.569285 C801.708328,132.569285 801.583577,132.628254 801.5,132.73 L801.5,132.74 Z M831.6,129.14 C831.19,129 831.09,130.14 831.43,131.06 C831.65,131.64 832,130.9 831.99,129.9 C832.00813,129.594542 831.858723,129.303389 831.6,129.14 Z M836,128.64 C835.77,129.45 836.37,130.48 836.77,129.96 C837.17,129.44 837.23,129.37 836.66,128.87 C836.33,128.58 836.04,128.48 836,128.64 Z M838.28,129.21 C837.83,129.14 837.76,129.36 837.94,130.29 C838.24,131.79 839.11,131.86 838.94,130.37 C838.88,129.79 838.58,129.27 838.26,129.21 L838.28,129.21 Z M839.26,128.88 C839.11,128.88 838.99,129.26 839,129.74 C839.01,130.22 839.19,130.6 839.4,130.6 C839.61,130.6 839.74,130.21 839.67,129.73 C839.6,129.25 839.41,128.88 839.26,128.88 Z M844.94,128.32 C844.01,128.44 843.16,128.84 843.04,129.19 C842.92,129.54 842.81,129.5 842.81,129.1 C842.81,128.1 841.81,127.87 841.5,128.84 C841.24,129.54 841.27,129.68 841.67,129.72 C842.07,129.76 842.1,129.93 841.88,130.72 C841.66,131.51 841.68,131.56 842.02,131.23 C842.36,130.9 842.47,131.23 842.51,131.7 C842.55,132.17 842.75,132.19 843.05,131.45 C843.44,130.45 844.28,130.01 846.12,129.81 C846.4,129.81 846.64,129.38 846.63,128.93 C846.62,128.48 845.91,128.22 844.94,128.36 L844.94,128.32 Z M848.49,128.44 C847.55,128.19 846.78,128.79 846.92,129.66 C846.99,130.17 847.35,130.19 849.21,129.8 C849.86,129.67 849.34,128.66 848.49,128.44 Z M851.68,128.87 C851.41,128.87 851.25,129.23 851.32,129.66 C851.41,130.29 851.75,130.34 852.14,129.79 C852.231781,129.60916 852.232422,129.395523 852.141728,129.214136 C852.051035,129.032749 851.87974,128.905079 851.68,128.87 Z M969.87,132.02 C969.68,131.86 969.55,132.29 969.57,133.02 C969.59,133.75 969.74,134.26 969.97,134.19 C970.42,134.04 970.34,132.41 969.87,132 L969.87,132.02 Z M985.49,137.79 C985.27,137.79 985.15,138.18 985.23,138.66 C985.31,139.14 985.48,139.52 985.63,139.52 C985.78,139.52 985.9,139.13 985.89,138.66 C985.88,138.19 985.71,137.79 985.49,137.79 Z M989.6,130.9 C989.39,130.9 989.22,131.3 989.23,131.77 C989.24,132.24 989.42,132.63 989.63,132.63 C989.84,132.63 990,132.24 990,131.76 C990,131.28 989.81,130.9 989.6,130.9 Z M990.46,131.82 C990.08,133.32 990.3,133.82 990.76,132.46 C990.956551,132.01417 991.019095,131.520771 990.94,131.04 C990.83,130.88 990.61,131.23 990.46,131.82 Z M1028.99,131.1 C1028.26,131.15 1027.7,130.9 1027.75,130.54 C1027.86,129.65 1027.65,129.74 1027.23,130.8 C1026.98,131.43 1026.87,131.41 1026.86,130.75 C1026.85,130.09 1026.75,130.08 1026.64,130.41 C1026.28,131.46 1024.96,131.7 1024.95,130.72 C1024.95,130.22 1024.85,130.07 1024.75,130.38 C1024.37,131.47 1022.48,131.58 1022.46,130.51 C1022.46,129.86 1022.39,129.93 1022.29,130.68 C1022.20519,131.390246 1021.7122,131.984956 1021.03,132.2 C1020.27,132.42 1020.03,132.26 1020.18,131.7 C1020.32745,131.238588 1020.37182,130.750437 1020.31,130.27 C1020.23,129.94 1020.02,130.27 1019.84,130.97 C1019.48,132.51 1018.38,132.81 1017.26,131.7 C1016.82,131.26 1016.39,131.14 1016.26,131.42 C1015.94,132.35 1014.83,132.42 1014.7,131.57 C1014.61,131.02 1014.44,131.25 1014.22,132.17 C1014,133.09 1013.88,133.26 1013.87,132.78 C1013.87,131.48 1012.87,131.7 1012.42,133.12 C1012.08,134.18 1012.01,134.12 1011.9,133.02 C1011.75,131.61 1010.28,131.88 1009.66,133.44 C1009.49,133.86 1009.3,133.99 1009.24,133.73 C1009.18,133.47 1008.94,133.52 1008.72,133.84 C1008,134.9 1008.51,135.38 1010.26,135.31 C1011.78,135.25 1011.96,135.41 1011.89,136.68 C1011.82,137.95 1011.89,137.87 1012.08,136.53 C1012.27,135.19 1012.68,134.92 1015.61,134.8 C1017.4,134.73 1018.86,134.35 1018.85,133.97 C1018.84,133.59 1018.94,133.53 1019.06,133.85 C1019.28,134.45 1026.06,134.01 1026.77,133.35 C1027.13,133.01 1029.01,133.35 1029.18,133.78 C1029.35,134.21 1030.3,132.47 1030.29,131.6 C1030.29,131.26 1029.68,131.04 1028.96,131.1 L1028.99,131.1 Z M1080.96,130.63 C1079.32,130.63 1075.27,130.41 1071.96,130.16 C1063.25545,129.657872 1054.52775,129.711314 1045.83,130.32 C1041.63,130.6 1039.7,130.44 1040.38,129.87 C1041.06,129.3 1040.63,129 1039.63,129 C1038.63,129 1037.83,129.34 1037.83,129.75 C1037.83,129.96 1036.32,130.14 1033.83,130.27 L1033.36,130.27 C1033.2,130.27 1033.28,130.27 1033.23,130.27 L1033.12,130.27 C1033.03477,130.295766 1032.94791,130.31581 1032.86,130.33 C1032.66697,130.345343 1032.47303,130.345343 1032.28,130.33 C1030.86,130.24 1030.28,130.81 1030.62,132.05 C1030.62,132.14 1031.11,132.22 1031.82,132.29 C1032.18,132.29 1032.59,132.36 1033.04,132.39 L1043.51,132.39 C1060.92,132.39 1079.28,132.32 1083.51,132.15 C1085.64,132.06 1083.21,130.52 1080.92,130.5 L1080.96,130.63 Z M1121.92,129.92 C1116.57,130.2 1111.77,130.56 1111.24,130.73 C1107.35113,130.847402 1103.45875,130.753931 1099.58,130.45 C1088.83,129.85 1082.35,131.04 1087.58,132.64 C1088.74,132.99 1089.94,132.92 1090.23,132.47 C1090.52,132.02 1094.42,131.75 1098.85,131.88 C1103.28,132.01 1107.85,132.09 1109.07,132.07 L1114.18,132.07 C1128.94,132.07 1131.67,131.77 1131.65,130.25 C1131.65,129.81 1127.35,129.68 1121.92,129.96 L1121.92,129.92 Z M1169.11,128.42 C1167.94,127.53 1167.03,127.42 1166.16,128.1 C1165.46,128.62 1162.98,128.98 1160.62,128.88 C1158.47056,128.760256 1156.31592,128.989904 1154.24,129.56 C1152.7,130.18 1152.11,129.98 1152.09,128.85 C1152.07,127.72 1151.62,127.51 1150.09,128.32 C1147.41,129.7 1141.92,129.69 1141.86,128.32 C1141.86,127.59 1141.41,127.55 1140.59,128.16 C1139.27621,128.898337 1137.84544,129.405703 1136.36,129.66 C1129.86,130.89 1134.04,131.76 1144.91,131.42 L1163.67,130.85 C1171.41,130.61 1171.82,130.43 1169.16,128.42 L1169.11,128.42 Z M1184.16,127.74 C1180.16,127.74 1175.74,127.57 1174.33,127.42 C1172.92,127.27 1171.78,127.7 1171.79,128.42 C1171.79,129.86 1177.23,130.28 1185.89,129.51 C1193.72,128.82 1192.72,127.79 1184.16,127.75 L1184.16,127.74 Z M1204.8,126.21 C1200.92,126.36 1196.93,126.9 1195.93,127.42 C1194.09,128.36 1196.01,128.69 1201.63,128.42 C1212.95,127.82 1215.9,125.8 1204.8,126.24 L1204.8,126.21 Z M1341.8,9.24 C1340.19179,9.45973107 1338.61666,9.87618304 1337.11,10.48 C1332.78,12.1 1335,13.16 1339.62,11.69 C1343.21,10.54 1344.38,9.23 1341.8,9.24 Z M1343.5,57 C1338.28,57.52 1337.11,59 1341.91,59 C1344.61,59 1349.7,57.28 1348.61,56.76 C1346.90215,56.7104245 1345.19311,56.8007261 1343.5,57.03 L1343.5,57 Z M1352.56,16.03 C1351.3,16.03 1346.77,18.35 1346.78,19.03 C1346.78,20.03 1351.64,19.47 1352.46,18.42 C1353.66,16.89 1353.7,16.06 1352.56,16.07 L1352.56,16.03 Z M1352.28,33.36 C1349.55,31.23 1345.04,32.94 1346.36,35.62 C1348.05,39.09 1348.8,39.49 1351.47,38.36 C1354.14,37.23 1354.53,35.12 1352.28,33.36 Z M1355.28,51.62 C1356.22,50.35 1354.28,50.09 1351.46,51.11 C1349.18,51.94 1349.39,56.48 1351.71,56.47 C1354.71,56.47 1357.71,54.47 1355.96,53.6 C1355.56764,53.467599 1355.25934,53.1600009 1355.12604,52.7679464 C1354.99274,52.3758918 1355.04966,51.9441191 1355.28,51.6 L1355.28,51.62 Z M1362.56,37.89 C1360.7,38.48 1359.98,40.95 1361.68,40.94 C1362.81317,40.7343219 1363.91101,40.3672547 1364.94,39.85 C1367.52,38.65 1365.48,36.96 1362.56,37.85 L1362.56,37.89 Z M1366,64.47 C1362.28,63.89 1359.49,65.14 1359.48,67.39 C1359.48,68.66 1352.87,71.79 1350.14,71.82 C1349.21,71.82 1349.59,71.45 1350.98,70.98 C1353.19,70.25 1353.19,69.98 1351.05,69.34 C1348.91,68.7 1349.48,68.34 1353.15,67.48 C1358.55,66.21 1359.21,64.1 1354.15,64.11 C1347.09,64.11 1338.34,70.56 1344.15,71.46 C1346.03,71.75 1347.57,72.36 1347.58,72.8 C1347.58,73.71 1352.78,73.8 1356.83,73.03 C1358.29,72.74 1359.51,71.96 1359.5,71.31 C1359.5,70.31 1361.5,69.9 1365.69,70.16 C1370.33,70.46 1370.6,65.16 1365.98,64.47 L1366,64.47 Z M1366.7,51.47 C1362.25,50.92 1359.31,52.06 1359.29,54.33 C1359.29,55.89 1364.9,56.14 1368.19,54.72 C1372.28,52.94 1371.9,52.11 1366.7,51.47 Z M1372.29,71.73 C1370.9,71.73 1369.74,72.14 1369.75,72.61 C1369.76,73.08 1370.93,73.46 1372.32,73.46 C1373.71,73.46 1374.87,73.06 1374.87,72.59 C1374.87,72.12 1373.69,71.73 1372.29,71.73 Z M1375.78,76.58 C1374.38,76.85 1373.24,77.63 1373.24,78.28 C1373.24,79.76 1376.1,79.84 1377.24,78.39 C1378.73,76.5 1378.39,76.07 1375.79,76.58 L1375.78,76.58 Z M1382.67,50.86 C1379.94,50.4 1374.56,51.11 1374.57,51.93 C1374.57,52.28 1376.87,52.59 1379.7,52.61 C1384.82,52.67 1386.7,51.53 1382.7,50.86 L1382.67,50.86 Z M1392.64,73.02 C1391.57,71.65 1386.82,71.12 1386.84,72.37 C1386.84,73.27 1390.57,75.1 1392.34,75.1 C1394.11,75.1 1394.03,74.8 1392.64,73.02 Z M1393.18,34.7 C1391.02,34.7 1387.83,37.77 1389.24,38.46 C1389.85,38.77 1389.07,39.02 1387.51,39.02 C1383.92,39.02 1383.68,36.19 1387.14,34.73 C1390.05,33.49 1390.53,31.28 1387.87,31.29 C1386.87,31.29 1384.94,32.67 1383.57,34.36 C1381.76,36.59 1380.26,37.36 1378.13,37.01 C1368.13,35.54 1365.8,35.49 1366.79,36.76 C1367.33,37.46 1369.06,37.97 1370.62,37.91 C1372.18,37.85 1373.62,38.27 1373.74,38.86 L1374.23,40.86 C1374.48,41.86 1380.75,41.59 1384.67,40.42 C1386.73,39.81 1386.82,39.88 1385.1,40.82 C1381.89,42.6 1382.55,43.18 1387.25,42.71 C1390.16,42.42 1391.86,41.55 1392.5,40.02 C1392.94173,38.9480508 1393.44592,37.902924 1394.01,36.89 C1395.01,35.28 1394.83,34.74 1393.18,34.74 L1393.18,34.7 Z M1418.24,91.39 C1413.36,91.45 1409.55,95.71 1414.38,95.69 C1417.51,95.69 1419.17,94.6 1419.38,92.44 C1419.45,91.85 1418.92,91.38 1418.21,91.39 L1418.24,91.39 Z M1417.21,63.81 C1415.21,62.81 1412.64,62.23 1411.42,62.47 C1409.15,62.92 1405.42,61.56 1405.36,60.29 C1405.36,59.9 1407.25,59.21 1409.6,58.75 C1413.6,57.97 1415.6,56.15 1412.36,56.16 C1409.7,56.16 1401.94,59.73 1401.95,60.94 C1401.83685,61.72347 1401.27226,62.3664806 1400.51,62.58 C1399.7,62.82 1399.4,62.08 1399.84,60.91 C1400.28,59.74 1399.84,58.78 1398.71,58.79 C1397.58,58.8 1396.81,59.18 1396.82,59.65 C1396.83,60.12 1395.94,60.52 1394.82,60.52 C1393.7,60.52 1394.49,59.63 1396.52,58.52 C1398.55,57.41 1399.7,56.26 1399.07,55.95 C1397.93,55.39 1388.37,60.44 1388.34,61.63 C1388.34,61.98 1389.14,62.26 1390.13,62.26 C1392.85,62.26 1390.13,65.93 1386.45,67.26 C1383.33,68.39 1381.87,70.58 1384.88,69.62 C1387.18978,69.1717874 1389.52945,68.8943697 1391.88,68.79 C1394.88,68.6 1397.81,68.07 1398.39,67.61 C1400.22,66.16 1410.52,65.75 1410.54,67.13 C1410.54,67.8 1411.54,68.13 1412.69,67.83 C1413.84,67.53 1416.14,67.08 1417.77,66.78 C1421.54,66.09 1421.52,65.96 1417.18,63.78 L1417.21,63.81 Z M1421.45,68.29 C1419.92,69.06 1419.23,70.11 1419.9,70.64 C1420.66333,71.2922328 1421.73227,71.4508707 1422.65213,71.0484345 C1423.57198,70.6459984 1424.18095,69.7532754 1424.22,68.75 C1424.22,67.03 1423.98,67 1421.45,68.29 Z M1423,103.78 C1420.15,102.91 1416.91,104.91 1419.28,106.08 C1421.28,107.08 1424.87,106.43 1424.85,105.08 C1424.85,104.66 1424.02,104.08 1423,103.76 L1423,103.78 Z M1439.3,89.59 C1438.3,89.59 1438.76,90.12 1440.37,90.73 C1445.62,92.73 1437.07,95.97 1428.37,95.3 C1421.43,94.77 1416.37,96.3 1418.73,98.19 C1419.33,98.68 1419.01,99.09 1418.02,99.09 C1417.03,99.09 1416.2,98.72 1416.19,98.26 C1416.19,96.94 1408.25,96.26 1404.8,97.32 C1401.94,98.17 1401.92,98.25 1404.68,98.25 C1406.32,98.25 1407.68,98.68 1407.68,99.18 C1411.9,98.77 1417.62,99.85 1418.26,101.24 C1418.71,102.24 1420.11,102.11 1425.61,100.76 C1428.54238,99.9813913 1431.52665,99.4132784 1434.54,99.06 C1435.7,99.06 1436.67,98.63 1436.66,98.16 C1436.65,97.69 1437.31,97.3 1438.15,97.29 C1440.33,97.29 1441.71,101.51 1439.72,102.13 C1438.72,102.45 1438.88,102.91 1440.12,103.29 C1443.71,104.4 1427.76,109.2 1419.46,109.52 C1413.12,109.75 1412.18,109.52 1412.62,108.21 C1413.06,106.9 1412.4,106.72 1408.34,107.21 C1405.71,107.55 1401.08,108.05 1398.08,108.31 C1395.08,108.57 1391.63,109.41 1390.43,110.14 C1388.52,111.32 1388.9,111.42 1393.35,110.98 C1398.47,110.46 1398.47,110.46 1394.56,112.07 C1392.58245,112.941776 1390.42843,113.33902 1388.27,113.23 C1385.85555,113.100984 1383.43691,113.388515 1381.12,114.08 C1369.64,117.19 1361.84,118.28 1348.44,118.64 C1339.16,118.89 1333.56,119.43 1332.55,120.16 C1330.25857,119.619481 1327.89773,119.433987 1325.55,119.61 C1323.55,119.87 1317.62,120.24 1312.48,120.45 C1294.17,121.19 1284.31,122.21 1280.08,123.81 C1277.05183,124.845933 1273.92015,125.550058 1270.74,125.91 C1268.07809,126.144755 1265.45881,126.729807 1262.95,127.65 C1260.83997,128.505211 1258.62266,129.067109 1256.36,129.32 C1253.61616,129.675355 1250.91122,130.284635 1248.28,131.14 C1245.58807,131.948506 1242.77689,132.286795 1239.97,132.14 C1237.73,131.93 1229.19,132.14 1220.97,132.55 C1212.75,132.96 1199.97,133.6 1192.42,133.91 L1163.42,135.16 C1154.98,135.53 1114.68,136.06 1073.88,136.33 L1044.48,136.55 L1037.67,136.6 L1033.29,136.65 C1031.82413,136.682612 1030.36152,136.802827 1028.91,137.01 C1025.46,138.19 1017.02,138.45 1016.85,137.38 C1016.44,138.01 1016.08,138.5 1015.72,138.44 C1012.12,138.97 1011.8,139.21 1011.41,139.14 C1009.18809,139.205066 1006.97142,139.392014 1004.77,139.7 C1001.52,140.08 998.6,140.37 998.29,140.34 C997.98,140.31 995.29,140.26 992.37,140.22 C988.77,140.22 986.98,139.85 986.88,139.22 C983.5,139.48 982.17,139.84 980.64,139.95 C979.220936,140.033768 977.808309,140.204085 976.41,140.46 C975.62,140.63 974.87,140.46 974.74,140.02 C972.47,141.11 968.74,141.22 968.74,140.02 C968.04,141.02 964.57,141.29 963.82,140.5 C962.76,139.38 963.41,138.08 965.03,138.07 C966.27,138.07 966.7,138.35 966.67,139.14 C966.67,139.73 966.78,140.22 966.95,140.22 C967.12,140.22 967.21,139.74 967.13,138.93 C967.97,138.35 968.38,137.93 968.8,137.87 L973.26,137.39 C975.26,137.16 976.84,137.29 976.71,137.67 C976.572,138.109674 976.541142,138.575975 976.62,139.03 C976.71,139.39 976.96,139.15 977.18,138.48 C977.533351,137.672121 978.301258,137.123067 979.18,137.05 C981.93,136.68 987.1,136.45 987.3,136.69 C987.64,136.69 991.3,136.44 995.8,136.26 C1000.3,136.08 1004.49,135.81 1005.2,135.64 C1008.02,135.39 1008.2,134.92 1008.2,133.85 C1008.26,132.44 1008.2,132.33 1007.1,132.77 C1005.59599,133.326736 1003.97436,133.488555 1002.39,133.24 C1001.69675,133.200353 1001.00569,133.348931 1000.39,133.67 C997.89,134.73 997.25,134.55 997.23,132.8 C997.23,131.99 997.03,131.51 996.73,131.51 C996.43,131.51 996.26,131.86 996.26,132.3 C996.94,132.3 997.04,132.42 996.97,133.01 C994.65,133.06 994.11,132.68 993.91,132.22 C993.460413,132.250186 993.046992,132.477018 992.78,132.84 C992.500597,133.240645 992.038257,133.473694 991.55,133.46 C991.343112,133.454627 991.14257,133.531696 990.992526,133.674238 C990.842481,133.81678 990.755237,134.013109 990.75,134.22 C989.98,133.62 989.68,133.45 989.59,133.7 C989.23,132.78 989.02,132.76 988.73,133.25 C988.06574,132.856622 987.549225,132.255777 987.26,131.54 C987.12,131.54 986.87,132.17 986.69,132.96 C985.42,134.22 985.34,134.28 985.26,133.54 C985.26,132.97 985.04,132.73 984.89,132.99 C984.74,133.25 984.62,133.04 984.61,132.51 C984.6,131.98 984.47,131.51 984.31,131.56 C984.15,131.61 984.03,131.98 984.03,132.49 C984.03,133 983.64,133.32 982.95,133.16 C982.26,133 981.74,133.16 981.61,133.57 C980.86,132.86 977.61,132.98 977.33,133.81 C977.15,134.32 977.15,134.13 977.33,133.01 C977.65,131.01 977.44,130.24 977.07,132.01 C976.9,132.78 976.77,133.01 976.77,132.63 C976.77,132.25 976.24,131.89 975.61,131.93 C974.98,131.97 974.49,132.36 974.52,132.86 C974.55,133.36 974.65,133.62 974.74,133.49 C974.83,133.36 974.84,133.68 974.74,134.19 C973.83,132.09 973.64,132.06 973.81,133.72 C973.88,134.43 973.81,135.01 973.72,135.01 C973.63,135.01 973.51,134.58 973.5,134.01 C973.49,133.44 973.33,133.24 973.13,133.48 C972.13,134.72 972.13,134.99 972.05,134.48 C971.97,133.97 971.75,133.7 971.51,133.91 C971.27,134.12 971,133.91 970.92,133.34 C970.22,135.11 968.3,135.17 967.79,133.79 C965.12,132 963.56,131.79 963.36,133.24 C963.1,135.08 960.81,136.51 961.04,134.69 C957.57,134.85 957.45,134.62 957.45,134.15 C957.45,133.25 956.75,133.72 955.89,135.22 C954.926718,135.045064 953.989329,134.7494 953.1,134.34 C952.534071,134.207756 951.986607,134.006235 951.47,133.74 C950.19,134.64 949.94,135.07 949.63,135.08 C949.32,135.09 949.05,134.66 949.04,134.16 C946.28,134.39 945.61,134.76 945.5,135.21 C945.39,135.66 945.24,135.52 945.15,134.6 C945.06,133.68 944.95,133.43 944.79,134.06 C944.63,134.69 944.35,134.93 944.08,134.93 C940.86,135.1 938,134.52 937.08,133.93 C936.53,133.53 936.33,133.73 936.26,134.73 C936.19,135.73 936.09,135.8 935.92,135.18 C935.75,134.56 931.55,133.86 930.27,134.34 C929.791275,134.303473 929.328308,134.15258 928.92,133.9 C927.27,133.05 925.1,132.7 918.58,132.23 C916.013407,132.082621 913.456465,131.798887 910.92,131.38 C907.308524,130.508141 903.62793,129.952706 899.92,129.72 C897.39,129.5 893.21,129.04 890.63,128.72 C886.74,128.19 880.21,128.07 878.94,128.53 C878.16,128.8 878.22,130.92 879.01,131.25 C882.34,131.13 882.46,131.43 882.47,132.33 C882.47,133.06 882.38,133.7 882.25,133.74 C880.87,134.12 868.7,132.9 868.49,132.36 C867.72,130.29 869.54,129.79 875.64,130.36 C877.64,130.55 878.13,130.36 878.18,129.42 C878.23,128.48 878.12,128.36 877.67,128.77 C876.93,128.26 876.67,128.05 876.35,128.16 C875.63,128.44 875.16,128.43 871.52,128.16 L867.12,127.8 C863.6,127.55 852.98,128.25 852.99,128.73 C852.99,129.64 853.41,129.96 854.49,129.93 C855.04,129.93 855.49,130.14 855.49,130.44 C855.49,131.6 853.49,132.37 850.64,132.3 C847.872048,132.129042 845.095695,132.145747 842.33,132.35 C841.687801,132.335885 841.079919,132.057272 840.65,131.58 C839.65,132.58 837.6,132.26 837.47,131.04 C837.02,132.3 835.82,131.57 835.8,130.19 C835.41,130.81 835.24,130.99 835.17,130.67 C833.97,130.45 833.9,130.54 833.91,131.33 C832.079971,131.845973 830.179746,132.068735 828.28,131.99 C826.887155,131.836776 825.478113,131.935003 824.12,132.28 C819.87,132.75 819.47,132.72 819.42,132.18 C818.83,132.96 815.85,132.68 815.34,131.77 C814.45,132.77 803.01,133.86 793.52,133.88 C788.04,134.26 787.27,134.05 787,133.13 C786.84,132.56 786.51,132.35 786.24,132.66 C785.97,132.97 785.58,132.77 785.35,132.24 C784.65,133.58 783.07,132.63 782.83,131.13 C782.36,132.45 781.83,133.23 781.66,132.32 C781.04,132.42 780.97,132.27 781.05,131.67 C781.13,131.07 781.05,130.76 780.78,130.84 C780.51,130.92 780.4,131.48 780.41,132.11 C776.07,131.31 775.93,130.62 775.81,130.63 C775.69,130.64 775.64,131 775.72,131.48 C775.8,131.96 775.64,132.34 775.36,132.34 C775.08,132.34 774.86,131.96 774.86,131.48 C774.86,131 774.75,130.63 774.64,130.63 C774.53,130.63 774.49,130.97 774.55,131.37 C774.61,131.77 774,132.37 773.2,132.64 C772.509476,132.871741 771.840311,133.162828 771.2,133.51 C770.49,132.7 770.53,132.36 770.65,132.36 C770.77,132.36 770.84,132 770.84,131.56 C770.84,131.12 770.58,130.8 770.28,130.83 C769.935136,130.840431 769.623394,130.625855 769.51,130.3 C769.37,129.93 769.29,130.3 769.3,131.24 C769.31,132.18 769.3,132.48 769.15,131.73 C768.95,130.43 765.64,129.42 765.66,130.68 C765.66,131.14 766.26,131.55 766.97,131.58 C767.68,131.61 768.11,131.9 767.92,132.25 C762.27,132.16 761.63,132.17 759.72,132.7 C758.24,131.58 754.99,131.49 754.72,132.31 C754.11,134 750.06,132.84 749.92,130.93 C749.23,132.79 746.79,133.08 744.61,131.34 C743.19,132.79 742.61,131.83 742.56,130.23 C741.48,131.16 741.05,131.6 740.85,131.37 C739.616568,130.932193 738.348867,130.597707 737.06,130.37 C735.96,129.91 736.06,129.14 736.06,128.37 C735.43,128.46 735.31,128.62 735.28,129.12 C735.19,130.67 732.41,131.25 732.06,129.8 C729.63,131.8 723.39,130.97 723.06,128.8 C722.7,129.32 722.36,129.74 722.06,129.73 C721.76,129.72 721.51,129.46 721.67,129.02 C721.83,128.58 721.67,128.31 721.36,128.31 C721.05,128.31 720.88,128.66 720.96,129.15 C721.17,130.54 719.96,130.15 719.71,128.73 C719.57,128.02 719.38,127.73 719.27,127.99 C719.168517,128.412502 719.199948,128.856032 719.36,129.26 C719.56,129.78 719.52,129.99 719.21,130 C718.9,130.01 718.81,129.64 718.87,128.73 C718.98,127.29 716.87,127.73 716.57,129.27 C716.24,128.7 716.17,128.27 716.03,128.27 C715.08,127.86 714.85,128.27 714.8,128.9 C714.75,129.53 714.64,130.06 714.54,130.06 C714.44,130.06 714.4,129.68 714.46,129.2 C714.513553,128.975066 714.454221,128.738144 714.300977,128.564998 C714.147733,128.391852 713.919774,128.304173 713.69,128.33 C713.13,128.33 712.83,128.72 712.84,129.42 C712.85,130.12 712.75,129.83 712.63,128.99 C712.606198,128.465792 712.466153,127.953432 712.22,127.49 C712.11,127.49 712.09,127.93 712.17,128.49 C710.66,127.79 705.94,128.29 705.96,129.49 C705.59,128.83 705.11,128.37 704.65,128.37 C704.097125,128.30388 703.623001,127.944464 703.41,127.43 C699.23,127.14 698.97,127.07 698.76,127.27 C698.15,127.88 691.2,127.68 690.28,127.04 C689.63,126.59 689.4,126.75 689.28,127.73 C689.16,128.71 688.88,128.92 688.28,128.73 C687.28,128.4 687.5,128.39 679.2,128.89 C673.34,129.24 672.44,129.11 672.2,127.97 C672.03,127.25 671.89,127.03 671.9,127.48 C671.9,128.79 671.17,129.34 670.62,128.43 C669.87,127.19 661,126.82 661.01,128.02 C660.68,126.84 656.59,126.02 656.6,127.11 C656.27,126.88 656.1,127.11 656,127.8 C655,126.68 654.73,126.43 653.68,126.48 C653.004154,126.559063 652.336291,126.278257 651.92,125.74 C651.61,125.07 651.57,125.19 651.69,126.44 C651.81,127.69 651.79,127.75 651.58,127.01 C651.37,126.27 650.08,126.12 647.69,126.21 C645.898931,126.308198 644.103144,126.143107 642.36,125.72 C641.03,125.22 640.62,125.33 640.5,126.2 C639.07,125.87 638.62,125.67 638.11,125.79 C636.51,126.15 620.62,125.66 609.11,124.9 C592.21,123.78 587.88,123.57 574.5,123.24 C566.72,123.04 555.79,122.68 550.22,122.43 L539.87,122 C539.71,122 538.34,122.22 536.82,122.49 C535.3,122.76 530.07,123.23 525.18,123.54 C519.039436,123.780909 512.920414,124.412184 506.86,125.43 C501.69,126.26 489.63,126.32 467.98,125.61 C460.09,125.35 452.35,125.15 450.77,125.15 C446.14,124.48 425.04,124.61 424.97,125.2 C423.97,124.49 410.84,124.81 405.49,125.7 L399.96,126.59 C398.6,126.8 396.63,127.18 395.58,127.42 C393.25,127.97 390.72,128.42 388.12,128.81 C386.83,129 385.51,129.16 384.2,129.3 C378.56,129.6 375.87,129.63 373.2,129.66 C327.03,130.17 283.51,130.26 252.39,129.81 C231.75,129.51 201.81,129.17 185.86,129.03 C119.97,128.48 111.25,128.29 110.06,127.33 C109.4,126.81 106.98,126.39 104.69,126.41 C98.89,126.46 94.02,126.04 91.47,125.25 C90.29,124.89 71.33,124.77 49.34,124.98 C1.62,125.44 1.62,125.44 3.18,117.37 C4.54,110.32 4.18,107.57 1.45,105.37 C-1.28,103.17 3.64,90.63 7.14,90.62 C12.14,90.62 12.38,89.21 7.62,88.14 C4.43,87.42 3.44,86.67 4.07,85.44 C4.31061713,85.0534702 4.35993168,84.5777017 4.20370762,84.1500383 C4.04748356,83.722375 3.70311001,83.3904194 3.27,83.25 C2.27,82.94 2.27,82.37 3.22,81.74 C4.17,81.11 6.22,78.29 7.89,75.3 C10.51,70.65 11.62,69.78 15.5,69.37 C18.24,69.09 20.41,68.17 20.96,67.08 C22.1,64.84 20.63,63.97 18.58,65.67 C15.11,68.56 10.58,64.05 11.89,58.97 C12.5325172,56.1520089 12.6444264,53.2389796 12.22,50.38 C11.77,48.18 12.27,45.31 13.32,43.99 C14.66,42.34 14.7,41.27 13.49,40.54 C11.55,39.37 12.56,34.98 14.94,34.23 C15.75,33.97 16.41,32.45 16.39,30.85 C16.37,29.25 17.05,27.72 17.91,27.45 C18.77,27.18 19.22,25.45 18.91,23.53 C18.59,21.44 19.27,19.74 20.68,19.14 C22.09,18.54 22.55,17.38 21.78,15.91 C17.85,8.41 23.5,8.09 126.08,9.91 C154.5,10.42 202.16,10.43 254.38,10.05 C280.49,9.86 307.74,9.57 334.29,9.2 L373.37,8.57 L378.12,8.49 C381.49,8.15 382.12,8.04 382.81,7.93 C390.14,6.66 416.91,6.1 427.51,7 L436.31,7.71 C438.68,7.89 442.9,8.28 445.69,8.59 C451.48,9.22 454.69,9.4 474.86,10.21 C491,11 489.8,11 500,10.22 L513.83,9.28 L518.42,8.97 C520.33,8.82 521.49,8.74 523.42,8.64 L530.77,8.29 C536.5,8.01 542.64,7.64 544.42,7.45 C551.101756,7.01130949 557.803837,6.97457661 564.49,7.34 C567.43,7.5 577.03,7.83 585.8,8.07 C602.39,8.53 612.14,9.12 615.26,9.83 C616.26,10.06 624.56,10.37 633.71,10.5 C649.93,10.74 659.47,11.26 668.62,12.4 C672.335592,12.7517594 676.069681,12.8686584 679.8,12.75 C683.48,12.64 689.62,12.55 693.46,12.54 L703.68,12.54 C705.05,12.54 707.89,12.7 709.99,12.89 C712.09,13.08 722.08,13.4 732.18,13.6 C742.28,13.8 751.26,14.13 752.18,14.36 C757.000168,15.1965872 761.859785,15.7873511 766.74,16.13 L775.63,16.87 C781.76,17.41 805.81,17.34 810.98,16.77 C812.98,16.56 818.56,16.14 823.4,15.87 C828.24,15.6 833.63,15.18 835.4,14.98 C837.17,14.78 845.77,14.36 854.49,14.06 C880.64,13.19 882.09,13.06 882.08,12.39 C882.43,12.64 886.37,13.02 891.08,13.15 C895.79,13.28 901.41,13.55 903.62,13.75 L922.62,15.5 C925.1,15.73 929.44,16.19 932.29,16.5 C942.7,17.74 977.41,16.95 986.54,15.27 C987.69,15.05 991.94,14.65 995.99,14.38 C1010.75,13.38 1022.51,12.24 1025.18,11.58 C1028.75,11.5 1029.78,11.58 1030.98,11.58 L1060.37,11.42 C1085.37,11.24 1111.1,10.94 1126.65,10.6 C1144,10.21 1181.22,9.6 1209.35,9.27 C1237.48,8.94 1263.97,8.44 1268.19,8.19 C1272.41,7.94 1281.99,7.5 1289.49,7.19 C1297.26,6.87 1304.87,6.05 1307.17,5.28 C1311.17,3.95 1314.08,4.66 1314.17,7 C1314.17,7.41 1316.53,7.56 1319.39,7.34 C1322.25,7.12 1324.98,7.26 1325.47,7.66 C1326.97,8.86 1330,8.43 1329.01,7.16 C1328.49,6.51 1330.01,5.04 1332.46,3.92 C1336.12,2.22 1336.66,2.15 1335.73,3.48 C1334.8,4.81 1335.24,5 1338.73,4.54 C1341.31,4.2 1343.17,4.4 1343.67,5.07 C1344.17,5.74 1345.08,5.8 1346.79,4.77 C1356.7,-1.12 1373.34,-0.23 1371.16,6.1 C1370.04,9.32 1375.81,13.57 1379.07,11.93 C1380.55,11.18 1380.13,10.62 1377.35,9.65 C1375.06,8.84 1374.35,8.14 1375.48,7.78 C1376.26293,8.64768067 1377.41922,9.07994957 1378.57934,8.93866517 C1379.73946,8.79738076 1380.7582,8.10022868 1381.31,7.07 C1382.20881,5.60631425 1383.41708,4.35708514 1384.85,3.41 C1385.85,4.08 1386.26,4.7 1387.45,4.69 C1388.81,4.69 1389.12,5.53 1388.38,7.26 C1387.38,9.64 1387.74,9.91 1391.83,9.81 C1399.31,9.63 1409.98,16.69 1405.62,18.93 C1402.69,20.42 1405.86,23.85 1409.5,23.13 C1413.5,22.35 1411.74,25.75 1406.7,28.64 C1402.8,30.87 1401.93,32.03 1402.7,33.96 C1403.29,35.38 1402.99,36.43 1401.99,36.44 C1400.99,36.45 1399.77,37.79 1399.19,39.44 C1398.11,42.44 1394.19,44.29 1390.19,43.6 C1388.19,43.25 1387.84,44.28 1387.46,52.19 C1387.39,53.65 1388.4,54.14 1391.64,54.19 C1396.64,54.31 1401.28,52.77 1398.5,51.91 C1397.34,51.56 1397.63,50.77 1399.34,49.69 C1400.34,51.09 1400.65,51.88 1401.73,51.88 C1402.70542,51.8571111 1403.52148,52.6155206 1403.57,53.59 C1403.57,56.18 1408.31,55.64 1409.46,52.92 C1410.05,51.51 1412.28,50.12 1415.01,49.46 C1420.38,48.17 1422.83,48.05 1421.5,49.14 C1420.98,49.57 1421.5,50.09 1422.56,50.27 C1424.07,50.52 1424.11,51.27 1422.72,53.35 C1421.46,55.2 1421.43,56.24 1422.63,56.61 C1423.0852,56.7378917 1423.45569,57.069057 1423.63365,57.5071107 C1423.81161,57.9451645 1423.77704,58.4408874 1423.54,58.85 C1422.31,61.29 1424.03,62.97 1427.76,62.96 C1429.54,62.96 1431.08,63.24 1431.18,63.6 C1433,70.14 1432.68,71.72 1429.43,72.16 C1427.23,72.46 1426.04,73.35 1426.06,74.69 C1426.06,76.75 1426.14,76.75 1431.44,75.35 C1434.94,76.41 1435.73,77.35 1438,78.12 C1441.24,79.25 1441.3,79.5 1439,82.4 C1438.10609,83.4458076 1437.27145,84.5408555 1436.5,85.68 C1437.92711,85.7508198 1439.35772,85.6771113 1440.77,85.46 C1445.5,84.99 1445.47,84.96 1443,87.6 C1442.01689,88.67415 1440.69829,89.3828049 1439.26,89.61 L1439.3,89.59 Z" id="Fill-1-Copy-3"></path>
            </g>
        </g>
    </g>
</svg>