<svg id="Layer_1" data-name="Layer 1" xmlns="http://www.w3.org/2000/svg" viewBox="0 0 595.28 841.89"><defs><style>.cls-1{fill:#0000ee;fill-rule:evenodd;}</style></defs><title>Artboard 1</title><g id="Dropdown-and-play"><g id="Artboard-20-Copy-2"><path id="Fill-1-Copy-3" class="cls-1" d="M332.35,479.11c-.15,0-.28.38-.27.86s.14.86.3.86.28-.4.27-.87-.14-.85-.3-.85m14.23,1.66c-.31,0-.36.25-.2,1,.13.53.32.7.43.37.3-.88.23-1.33-.23-1.33m6.59,0c-.39,0-.46.24-.29,1,.13.53.36.74.53.45.44-.78.33-1.43-.24-1.42m23.33,1.9c-.18.2,0,.38.34.38s.52-.18.34-.39a.44.44,0,0,0-.68,0m30.1-3.59c-.41-.14-.51,1-.17,1.92.22.58.57-.16.56-1.16a.84.84,0,0,0-.39-.76m4.4-.5c-.23.81.37,1.84.77,1.32s.46-.59-.11-1.09c-.33-.29-.62-.39-.66-.23m2.28.57c-.45-.07-.52.15-.34,1.08.3,1.5,1.17,1.57,1,.08-.06-.58-.36-1.1-.68-1.16m1-.33c-.15,0-.27.38-.26.86s.19.86.4.86.34-.39.27-.87-.26-.85-.41-.85m5.68-.56c-.93.12-1.78.52-1.9.87s-.23.31-.23-.09c0-1-1-1.23-1.31-.26-.26.7-.23.84.17.88s.43.21.21,1-.2.84.14.51.45,0,.49.47.24.49.54-.25c.39-1,1.23-1.44,3.07-1.64.28,0,.52-.43.51-.88s-.72-.71-1.69-.57m3.55.08c-.94-.25-1.71.35-1.57,1.22.07.51.43.53,2.29.14.65-.13.13-1.14-.72-1.36m3.19.43c-.27,0-.43.36-.36.79.09.63.43.68.82.13a.64.64,0,0,0-.46-.92m118.19,3.15c-.19-.16-.32.27-.3,1s.17,1.24.4,1.17c.45-.15.37-1.78-.1-2.19m15.62,5.79c-.22,0-.34.39-.26.87s.25.86.4.86.27-.39.26-.86-.18-.87-.4-.87m4.11-6.89c-.21,0-.38.4-.37.87s.19.86.4.86.37-.39.37-.87-.19-.86-.4-.86m.86.92c-.38,1.5-.16,2,.3.64a2.51,2.51,0,0,0,.18-1.42c-.11-.16-.33.19-.48.78m38.53-.72c-.73.05-1.29-.2-1.24-.56.11-.89-.1-.8-.52.26-.25.63-.36.61-.37-.05s-.11-.67-.22-.34c-.36,1.05-1.68,1.29-1.69.31,0-.5-.1-.65-.2-.34-.38,1.09-2.27,1.2-2.29.13,0-.65-.07-.58-.17.17a1.82,1.82,0,0,1-1.26,1.52c-.76.22-1,.06-.85-.5a3.31,3.31,0,0,0,.13-1.43c-.08-.33-.29,0-.47.7-.36,1.54-1.46,1.84-2.58.73-.44-.44-.87-.56-1-.28-.32.93-1.43,1-1.56.15-.09-.55-.26-.32-.48.6s-.34,1.09-.35.61c0-1.3-1-1.08-1.45.34-.34,1.06-.41,1-.52-.1-.15-1.41-1.62-1.14-2.24.42-.17.42-.36.55-.42.29s-.3-.21-.52.11c-.72,1.06-.21,1.54,1.54,1.47,1.52-.06,1.7.1,1.63,1.37s0,1.19.19-.15.6-1.61,3.53-1.73c1.79-.07,3.25-.45,3.24-.83s.09-.44.21-.12c.22.6,7,.16,7.71-.5.36-.34,2.24,0,2.41.43s1.12-1.31,1.11-2.18c0-.34-.61-.56-1.33-.5m52-.47c-1.64,0-5.69-.22-9-.47a205.1,205.1,0,0,0-26.13.16c-4.2.28-6.13.12-5.45-.45s.25-.87-.75-.87-1.8.34-1.8.75c0,.21-1.51.39-4,.52l-.47,0c-.16,0-.08,0-.13,0l-.11,0a2,2,0,0,1-.26.06,3.66,3.66,0,0,1-.58,0c-1.42-.09-2,.48-1.66,1.72,0,.09.49.17,1.2.24.36,0,.77.07,1.22.1h10.47c17.41,0,35.77-.07,40-.24,2.13-.09-.3-1.63-2.59-1.65m41-.58c-5.35.28-10.15.64-10.68.81a107.67,107.67,0,0,1-11.66-.28c-10.75-.6-17.23.59-12,2.19,1.16.35,2.36.28,2.65-.17s4.19-.72,8.62-.59,9,.21,10.22.19l5.11,0c14.76,0,17.49-.3,17.47-1.82,0-.44-4.3-.57-9.73-.29m47.19-1.54c-1.17-.89-2.08-1-2.95-.32-.7.52-3.18.88-5.54.78a19.91,19.91,0,0,0-6.38.68c-1.54.62-2.13.42-2.15-.71s-.47-1.34-2-.53c-2.68,1.38-8.17,1.37-8.23,0,0-.73-.45-.77-1.27-.16a13.17,13.17,0,0,1-4.23,1.5c-6.5,1.23-2.32,2.1,8.55,1.76l18.76-.57c7.74-.24,8.15-.42,5.49-2.43m15-.68c-4,0-8.42-.17-9.83-.32s-2.55.28-2.54,1c0,1.44,5.44,1.86,14.1,1.09,7.83-.69,6.83-1.72-1.73-1.76m20.64-1.54c-3.88.15-7.87.69-8.87,1.21-1.84.94.08,1.27,5.7,1,11.32-.6,14.27-2.62,3.17-2.18m137-117a19.82,19.82,0,0,0-4.69,1.24c-4.33,1.62-2.11,2.68,2.51,1.21,3.59-1.15,4.76-2.46,2.18-2.45M918.5,407c-5.22.52-6.39,2-1.59,2,2.7,0,7.79-1.72,6.7-2.24a31.31,31.31,0,0,0-5.11.27m9.06-41c-1.26,0-5.79,2.32-5.78,3,0,1,4.86.44,5.68-.61,1.2-1.53,1.24-2.36.1-2.35m-.28,17.29c-2.73-2.13-7.24-.42-5.92,2.26,1.69,3.47,2.44,3.87,5.11,2.74s3.06-3.24.81-5m3,18.26c.94-1.27-1-1.53-3.82-.51-2.28.83-2.07,5.37.25,5.36,3,0,6-2,4.25-2.87a1.33,1.33,0,0,1-.68-2m7.28-13.71c-1.86.59-2.58,3.06-.88,3.05a12.05,12.05,0,0,0,3.26-1.09c2.58-1.2.54-2.89-2.38-2M941,414.47c-3.72-.58-6.51.67-6.52,2.92,0,1.27-6.61,4.4-9.34,4.43-.93,0-.55-.37.84-.84,2.21-.73,2.21-1,.07-1.64s-1.57-1,2.1-1.86c5.4-1.27,6.06-3.38,1-3.37-7.06,0-15.81,6.45-10,7.35,1.88.29,3.42.9,3.43,1.34,0,.91,5.2,1,9.25.23,1.46-.29,2.68-1.07,2.67-1.72,0-1,2-1.41,6.19-1.15,4.64.3,4.91-5,.29-5.69m.72-13c-4.45-.55-7.39.59-7.41,2.86,0,1.56,5.61,1.81,8.9.39,4.09-1.78,3.71-2.61-1.49-3.25m5.59,20.26c-1.39,0-2.55.41-2.54.88s1.18.85,2.57.85,2.55-.4,2.55-.87-1.18-.86-2.58-.86m3.49,4.85c-1.4.27-2.54,1.05-2.54,1.7,0,1.48,2.86,1.56,4,.11,1.49-1.89,1.15-2.32-1.45-1.81m6.88-25.72c-2.73-.46-8.11.25-8.1,1.07,0,.35,2.3.66,5.13.68,5.12.06,7-1.08,3-1.75m9.94,22.16c-1.07-1.37-5.82-1.9-5.8-.65,0,.9,3.73,2.73,5.5,2.73s1.69-.3.3-2.08m.54-38.32c-2.16,0-5.35,3.07-3.94,3.76.61.31-.17.56-1.73.56-3.59,0-3.83-2.83-.37-4.29,2.91-1.24,3.39-3.45.73-3.44-1,0-2.93,1.38-4.3,3.07-1.81,2.23-3.31,3-5.44,2.65-10-1.47-12.33-1.52-11.34-.25.54.7,2.27,1.21,3.83,1.15s3,.36,3.12.95l.49,2c.25,1,6.52.73,10.44-.44,2.06-.61,2.15-.54.43.4-3.21,1.78-2.55,2.36,2.15,1.89,2.91-.29,4.61-1.16,5.25-2.69a29.66,29.66,0,0,1,1.51-3.13c1-1.61.82-2.15-.83-2.15m25.06,56.65c-4.88.06-8.69,4.32-3.86,4.3,3.13,0,4.79-1.09,5-3.25.07-.59-.46-1.06-1.17-1.05m-1-27.58c-2-1-4.57-1.58-5.79-1.34-2.27.45-6-.91-6.06-2.18,0-.39,1.89-1.08,4.24-1.54,4-.78,6-2.6,2.76-2.59-2.66,0-10.42,3.57-10.41,4.78a2,2,0,0,1-1.44,1.64c-.81.24-1.11-.5-.67-1.67s0-2.13-1.13-2.12-1.9.39-1.89.86-.88.87-2,.87-.33-.89,1.7-2,3.18-2.26,2.55-2.57c-1.14-.56-10.7,4.49-10.73,5.68,0,.35.8.63,1.79.63,2.72,0,0,3.67-3.68,5-3.12,1.13-4.58,3.32-1.57,2.36a47.9,47.9,0,0,1,7-.83c3-.19,5.93-.72,6.51-1.18,1.83-1.45,12.13-1.86,12.15-.48,0,.67,1,1,2.15.7s3.45-.75,5.08-1.05c3.77-.69,3.75-.82-.59-3m4.27,4.51c-1.53.77-2.22,1.82-1.55,2.35a2.62,2.62,0,0,0,4.32-1.89c0-1.72-.24-1.75-2.77-.46M998,453.78c-2.85-.87-6.09,1.13-3.72,2.3,2,1,5.59.35,5.57-1,0-.42-.83-1-1.85-1.32m16.3-14.17c-1,0-.54.53,1.07,1.14,5.25,2-3.3,5.24-12,4.57-6.94-.53-12,1-9.64,2.89.6.49.28.9-.71.9s-1.82-.37-1.83-.83c0-1.32-7.94-2-11.39-.94-2.86.85-2.88.93-.12.93,1.64,0,3,.43,3,.93,4.22-.41,9.94.67,10.58,2.06.45,1,1.85.87,7.35-.48a63.7,63.7,0,0,1,8.93-1.7c1.16,0,2.13-.43,2.12-.9s.65-.86,1.49-.87c2.18,0,3.56,4.22,1.57,4.84-1,.32-.84.78.4,1.16,3.59,1.11-12.36,5.91-20.66,6.23-6.34.23-7.28,0-6.84-1.31s-.22-1.49-4.28-1c-2.63.34-7.26.84-10.26,1.1s-6.45,1.1-7.65,1.83c-1.91,1.18-1.53,1.28,2.92.84,5.12-.52,5.12-.52,1.21,1.09a13.86,13.86,0,0,1-6.29,1.16,21.07,21.07,0,0,0-7.15.85c-11.48,3.11-19.28,4.2-32.68,4.56-9.28.25-14.88.79-15.89,1.52a23,23,0,0,0-7-.55c-2,.26-7.93.63-13.07.84-18.31.74-28.17,1.76-32.4,3.36a44.22,44.22,0,0,1-9.34,2.1,30.37,30.37,0,0,0-7.79,1.74,24.91,24.91,0,0,1-6.59,1.67,44.71,44.71,0,0,0-8.08,1.82,24.45,24.45,0,0,1-8.31,1c-2.24-.21-10.78,0-19,.41s-21,1.05-28.55,1.36l-29,1.25c-8.44.37-48.74.9-89.54,1.17l-29.4.22-6.81.05-4.38.05a36.79,36.79,0,0,0-4.38.36c-3.45,1.18-11.89,1.44-12.06.37-.41.63-.77,1.12-1.13,1.06-3.6.53-3.92.77-4.31.7a60.76,60.76,0,0,0-6.64.56c-3.25.38-6.17.67-6.48.64s-3-.08-5.92-.12c-3.6,0-5.39-.37-5.49-1-3.38.26-4.71.62-6.24.73a34.93,34.93,0,0,0-4.23.51c-.79.17-1.54,0-1.67-.44-2.27,1.09-6,1.2-6,0-.7,1-4.17,1.27-4.92.48-1.06-1.12-.41-2.42,1.21-2.43,1.24,0,1.67.28,1.64,1.07,0,.59.11,1.08.28,1.08s.26-.48.18-1.29c.84-.58,1.25-1,1.67-1.06l4.46-.48c2-.23,3.58-.1,3.45.28a2.89,2.89,0,0,0-.09,1.36c.09.36.34.12.56-.55a2.4,2.4,0,0,1,2-1.43c2.75-.37,7.92-.6,8.12-.36.34,0,4-.25,8.5-.43s8.69-.45,9.4-.62c2.82-.25,3-.72,3-1.79.06-1.41,0-1.52-1.1-1.08a9.38,9.38,0,0,1-4.71.47,3.85,3.85,0,0,0-2,.43c-2.5,1.06-3.14.88-3.16-.87,0-.81-.2-1.29-.5-1.29s-.47.35-.47.79c.68,0,.78.12.71.71-2.32.05-2.86-.33-3.06-.79a1.53,1.53,0,0,0-1.13.62,1.45,1.45,0,0,1-1.23.62.78.78,0,0,0-.8.76c-.77-.6-1.07-.77-1.16-.52-.36-.92-.57-.94-.86-.45a3.52,3.52,0,0,1-1.47-1.71c-.14,0-.39.63-.57,1.42-1.27,1.26-1.35,1.32-1.43.58,0-.57-.22-.81-.37-.55s-.27.05-.28-.48-.14-1-.3-.95-.28.42-.28.93-.39.83-1.08.67-1.21,0-1.34.41c-.75-.71-4-.59-4.28.24-.18.51-.18.32,0-.8.32-2,.11-2.77-.26-1-.17.77-.3,1-.3.62s-.53-.74-1.16-.7-1.12.43-1.09.93.13.76.22.63.1.19,0,.7c-.91-2.1-1.1-2.13-.93-.47.07.71,0,1.29-.09,1.29s-.21-.43-.22-1-.17-.77-.37-.53c-1,1.24-1,1.51-1.08,1s-.3-.78-.54-.57-.51,0-.59-.57c-.7,1.77-2.62,1.83-3.13.45-2.67-1.79-4.23-2-4.43-.55-.26,1.84-2.55,3.27-2.32,1.45-3.47.16-3.59-.07-3.59-.54,0-.9-.7-.43-1.56,1.07a11.65,11.65,0,0,1-2.79-.88,7.07,7.07,0,0,1-1.63-.6c-1.28.9-1.53,1.33-1.84,1.34s-.58-.42-.59-.92c-2.76.23-3.43.6-3.54,1.05s-.26.31-.35-.61-.2-1.17-.36-.54-.44.87-.71.87c-3.22.17-6.08-.41-7-1-.55-.4-.75-.2-.82.8s-.17,1.07-.34.45-4.37-1.32-5.65-.84a3,3,0,0,1-1.35-.44c-1.65-.85-3.82-1.2-10.34-1.67a72.53,72.53,0,0,1-7.66-.85,63.94,63.94,0,0,0-11-1.66c-2.53-.22-6.71-.68-9.29-1-3.89-.53-10.42-.65-11.69-.19-.78.27-.72,2.39.07,2.72,3.33-.12,3.45.18,3.46,1.08,0,.73-.09,1.37-.22,1.41-1.38.38-13.55-.84-13.76-1.38-.77-2.07,1.05-2.57,7.15-2,2,.19,2.49,0,2.54-.94s-.06-1.06-.51-.65c-.74-.51-1-.72-1.32-.61-.72.28-1.19.27-4.83,0l-4.4-.36c-3.52-.25-14.14.45-14.13.93,0,.91.42,1.23,1.5,1.2.55,0,1,.21,1,.51,0,1.16-2,1.93-4.85,1.86a61.42,61.42,0,0,0-8.31.05,2.33,2.33,0,0,1-1.68-.77c-1,1-3.05.68-3.18-.54-.45,1.26-1.65.53-1.67-.85-.39.62-.56.8-.63.48-1.2-.22-1.27-.13-1.26.66a18,18,0,0,1-5.63.66,11.7,11.7,0,0,0-4.16.29c-4.25.47-4.65.44-4.7-.1-.59.78-3.57.5-4.08-.41-.89,1-12.33,2.09-21.82,2.11-5.48.38-6.25.17-6.52-.75-.16-.57-.49-.78-.76-.47s-.66.11-.89-.42c-.7,1.34-2.28.39-2.52-1.11-.47,1.32-1,2.1-1.17,1.19-.62.1-.69-.05-.61-.65s0-.91-.27-.83-.38.64-.37,1.27c-4.34-.8-4.48-1.49-4.6-1.48s-.17.37-.09.85-.08.86-.36.86-.5-.38-.5-.86-.11-.85-.22-.85-.15.34-.09.74-.55,1-1.35,1.27a12.62,12.62,0,0,0-2,.87c-.71-.81-.67-1.15-.55-1.15s.19-.36.19-.8-.26-.76-.56-.73a.79.79,0,0,1-.77-.53c-.14-.37-.22,0-.21.94s0,1.24-.15.49c-.2-1.3-3.51-2.31-3.49-1.05,0,.46.6.87,1.31.9s1.14.32.95.67c-5.65-.09-6.29-.08-8.2.45-1.48-1.12-4.73-1.21-5-.39-.61,1.69-4.66.53-4.8-1.38-.69,1.86-3.13,2.15-5.31.41-1.42,1.45-2,.49-2.05-1.11-1.08.93-1.51,1.37-1.71,1.14a23.61,23.61,0,0,0-3.79-1c-1.1-.46-1-1.23-1-2-.63.09-.75.25-.78.75-.09,1.55-2.87,2.13-3.22.68-2.43,2-8.67,1.17-9-1-.36.52-.7.94-1,.93s-.55-.27-.39-.71,0-.71-.31-.71-.48.35-.4.84c.21,1.39-1,1-1.25-.42-.14-.71-.33-1-.44-.74a2.11,2.11,0,0,0,.09,1.27c.2.52.16.73-.15.74s-.4-.36-.34-1.27c.11-1.44-2-1-2.3.54-.33-.57-.4-1-.54-1-.95-.41-1.18,0-1.23.63s-.16,1.16-.26,1.16-.14-.38-.08-.86a.71.71,0,0,0-.77-.87c-.56,0-.86.39-.85,1.09s-.09.41-.21-.43a3.54,3.54,0,0,0-.41-1.5c-.11,0-.13.44-.05,1-1.51-.7-6.23-.2-6.21,1-.37-.66-.85-1.12-1.31-1.12a1.54,1.54,0,0,1-1.24-.94c-4.18-.29-4.44-.36-4.65-.16-.61.61-7.56.41-8.48-.23-.65-.45-.88-.29-1,.69s-.4,1.19-1,1c-1-.33-.78-.34-9.08.16-5.86.35-6.76.22-7-.92-.17-.72-.31-.94-.3-.49,0,1.31-.73,1.86-1.28.95-.75-1.24-9.62-1.61-9.61-.41-.33-1.18-4.42-2-4.41-.91-.33-.23-.5,0-.6.69-1-1.12-1.27-1.37-2.32-1.32a1.94,1.94,0,0,1-1.76-.74c-.31-.67-.35-.55-.23.7s.1,1.31-.11.57-1.5-.89-3.89-.8a18.34,18.34,0,0,1-5.33-.49c-1.33-.5-1.74-.39-1.86.48-1.43-.33-1.88-.53-2.39-.41-1.6.36-17.49-.13-29-.89-16.9-1.12-21.23-1.33-34.61-1.66-7.78-.2-18.71-.56-24.28-.81L114.87,472c-.16,0-1.53.22-3.05.49s-6.75.74-11.64,1.05a144.91,144.91,0,0,0-18.32,1.89c-5.17.83-17.23.89-38.88.18-7.89-.26-15.63-.46-17.21-.46-4.63-.67-25.73-.54-25.8.05-1-.71-14.13-.39-19.48.5l-5.53.89c-1.36.21-3.33.59-4.38.83-2.33.55-4.86,1-7.46,1.39-1.29.19-2.61.35-3.92.49-5.64.3-8.33.33-11,.36-46.17.51-89.69.6-120.81.15-20.64-.3-50.58-.64-66.53-.78-65.89-.55-74.61-.74-75.8-1.7-.66-.52-3.08-.94-5.37-.92-5.8.05-10.67-.37-13.22-1.16-1.18-.36-20.14-.48-42.13-.27-47.72.46-47.72.46-46.16-7.61,1.36-7.05,1-9.8-1.73-12s2.19-14.74,5.69-14.75c5,0,5.24-1.41.48-2.48-3.19-.72-4.18-1.47-3.55-2.7a1.48,1.48,0,0,0-.8-2.19c-1-.31-1-.88-.05-1.51s3-3.45,4.67-6.44c2.62-4.65,3.73-5.52,7.61-5.93,2.74-.28,4.91-1.2,5.46-2.29,1.14-2.24-.33-3.11-2.38-1.41-3.47,2.89-8-1.62-6.69-6.7a23.27,23.27,0,0,0,.33-8.59c-.45-2.2.05-5.07,1.1-6.39,1.34-1.65,1.38-2.72.17-3.45-1.94-1.17-.93-5.56,1.45-6.31.81-.26,1.47-1.78,1.45-3.38s.66-3.13,1.52-3.4,1.31-2,1-3.92c-.32-2.09.36-3.79,1.77-4.39s1.87-1.76,1.1-3.23c-3.93-7.5,1.72-7.82,104.3-6,28.42.51,76.08.52,128.3.14,26.11-.19,53.36-.48,79.91-.85l39.08-.63,4.75-.08c3.37-.34,4-.45,4.69-.56,7.33-1.27,34.1-1.83,44.7-.93l8.8.71c2.37.18,6.59.57,9.38.88,5.79.63,9,.81,29.17,1.62C66,361,64.8,361,75,360.22l13.83-.94,4.59-.31c1.91-.15,3.07-.23,5-.33l7.35-.35c5.73-.28,11.87-.65,13.65-.84a167.13,167.13,0,0,1,20.07-.11c2.94.16,12.54.49,21.31.73,16.59.46,26.34,1.05,29.46,1.76,1,.23,9.3.54,18.45.67,16.22.24,25.76.76,34.91,1.9a88.7,88.7,0,0,0,11.18.35c3.68-.11,9.82-.2,13.66-.21l10.22,0c1.37,0,4.21.16,6.31.35s12.09.51,22.19.71,19.08.53,20,.76a144.21,144.21,0,0,0,14.56,1.77l8.89.74c6.13.54,30.18.47,35.35-.1,2-.21,7.58-.63,12.42-.9s10.23-.69,12-.89,10.37-.62,19.09-.92c26.15-.87,27.6-1,27.59-1.67.35.25,4.29.63,9,.76s10.33.4,12.54.6l19,1.75c2.48.23,6.82.69,9.67,1,10.41,1.24,45.12.45,54.25-1.23,1.15-.22,5.4-.62,9.45-.89,14.76-1,26.52-2.14,29.19-2.8,3.57-.08,4.6,0,5.8,0l29.39-.16c25-.18,50.73-.48,66.28-.82,17.35-.39,54.57-1,82.7-1.33s54.62-.83,58.84-1.08,13.8-.69,21.3-1c7.77-.32,15.38-1.14,17.68-1.91,4-1.33,6.91-.62,7,1.72,0,.41,2.36.56,5.22.34s5.59-.08,6.08.32c1.5,1.2,4.53.77,3.54-.5-.52-.65,1-2.12,3.45-3.24,3.66-1.7,4.2-1.77,3.27-.44s-.49,1.52,3,1.06c2.58-.34,4.44-.14,4.94.53s1.41.73,3.12-.3c9.91-5.89,26.55-5,24.37,1.33-1.12,3.22,4.65,7.47,7.91,5.83,1.48-.75,1.06-1.31-1.72-2.28-2.29-.81-3-1.51-1.87-1.87a3.59,3.59,0,0,0,5.83-.71,11.77,11.77,0,0,1,3.54-3.66c1,.67,1.41,1.29,2.6,1.28,1.36,0,1.67.84.93,2.57-1,2.38-.64,2.65,3.45,2.55,7.48-.18,18.15,6.88,13.79,9.12-2.93,1.49.24,4.92,3.88,4.2,4-.78,2.24,2.62-2.8,5.51-3.9,2.23-4.77,3.39-4,5.32.59,1.42.29,2.47-.71,2.48s-2.22,1.35-2.8,3c-1.08,3-5,4.85-9,4.16-2-.35-2.35.68-2.73,8.59-.07,1.46.94,1.95,4.18,2,5,.12,9.64-1.42,6.86-2.28-1.16-.35-.87-1.14.84-2.22,1,1.4,1.31,2.19,2.39,2.19a1.8,1.8,0,0,1,1.84,1.71c0,2.59,4.74,2.05,5.89-.67.59-1.41,2.82-2.8,5.55-3.46,5.37-1.29,7.82-1.41,6.49-.32-.52.43,0,.95,1.06,1.13,1.51.25,1.55,1,.16,3.08-1.26,1.85-1.29,2.89-.09,3.26a1.53,1.53,0,0,1,.91,2.24c-1.23,2.44.49,4.12,4.22,4.11,1.78,0,3.32.28,3.42.64,1.82,6.54,1.5,8.12-1.75,8.56-2.2.3-3.39,1.19-3.37,2.53,0,2.06.08,2.06,5.38.66,3.5,1.06,4.29,2,6.56,2.77,3.24,1.13,3.3,1.38,1,4.28a36.85,36.85,0,0,0-2.5,3.28,21.19,21.19,0,0,0,4.27-.22c4.73-.47,4.7-.5,2.23,2.14A6.43,6.43,0,0,1,1014.26,439.61Z"/></g></g></svg>