<svg xmlns="http://www.w3.org/2000/svg" xmlns:xlink="http://www.w3.org/1999/xlink" width="100%" height="100%" viewBox="0 0 1044 52" version="1.1">
    <!-- Generator: Sketch 3.8.3 (29802) - http://www.bohemiancoding.com/sketch -->
    <title>Artboard 20 Copy 2</title>
    <desc>Created with Sketch.</desc>
    <defs/>
    <g id="Dropdown-and-play" stroke="none" stroke-width="1" fill="none" fill-rule="evenodd">
        <g id="Artboard-20-Copy-2" transform="translate(522.000000, 26.000000) scale(1, -1) translate(-522.000000, -26.000000) " fill="#fafafa">
            <path d="M532.042699,-86.3512926 C532.168246,-86.3512926 532.269752,-86.6649106 532.26441,-87.0458286 C532.259067,-87.4227086 532.149547,-87.7376726 532.021329,-87.7376726 C531.89311,-87.7363266 531.796946,-87.4213626 531.802289,-87.0431366 C531.807631,-86.6635646 531.917151,-86.3512926 532.042699,-86.3512926 M520.585845,-87.6946006 C520.834268,-87.6946006 520.874336,-87.8978466 520.740775,-88.4631667 C520.636598,-88.8938867 520.48701,-89.0271407 520.398859,-88.7660167 C520.153107,-88.0553286 520.214545,-87.6932546 520.585845,-87.6946006 M515.272792,-87.6744106 C515.585325,-87.6757566 515.64142,-87.8722726 515.505188,-88.4577827 C515.401011,-88.8858107 515.214025,-89.0513687 515.083136,-88.8225487 C514.725192,-88.1926207 514.813343,-87.6717186 515.272792,-87.6744106 M496.478102,-89.2034667 C496.625019,-89.3703707 496.496801,-89.5130467 496.205638,-89.5130467 C495.909133,-89.5117007 495.788928,-89.3676787 495.935845,-89.2007747 C496.090776,-89.0271407 496.333857,-89.0284867 496.478102,-89.2034667 M472.234128,-86.3149506 C472.560017,-86.2059246 472.640153,-87.1333186 472.367689,-87.8615046 C472.19406,-88.3285667 471.90824,-87.7309426 471.918924,-86.9273806 C471.924267,-86.6460666 472.065841,-86.3701366 472.234128,-86.3149506 M468.692093,-85.9124966 C468.873736,-86.5666526 468.390245,-87.3904046 468.067028,-86.9785286 C467.695729,-86.5087746 467.695729,-86.5033906 468.160521,-86.0955526 C468.419629,-85.8667326 468.657367,-85.7846266 468.692093,-85.9124966 M466.848953,-86.3728286 C467.217581,-86.3149506 467.273676,-86.4899306 467.124088,-87.2409986 C466.881007,-88.4470147 466.181148,-88.5035467 466.301353,-87.3082986 C466.349435,-86.8385446 466.597858,-86.4172466 466.848953,-86.3728286 M466.015533,-86.1022826 C466.138409,-86.1022826 466.231901,-86.4132086 466.223888,-86.7954726 C466.218545,-87.1790826 466.074299,-87.4886626 465.897999,-87.4873166 C465.72437,-87.4873166 465.628206,-87.1763906 465.686973,-86.7941266 C465.74574,-86.4118626 465.889985,-86.1022826 466.015533,-86.1022826 M461.437065,-85.6513726 C462.185006,-85.7550146 462.868838,-86.0699786 462.970344,-86.3526386 C463.066508,-86.6352986 463.151987,-86.6016486 463.154658,-86.2866846 C463.168014,-85.4413966 463.923969,-85.2879526 464.209789,-86.0753626 C464.418144,-86.6393366 464.394103,-86.7524006 464.070886,-86.7820126 C463.755682,-86.8089326 463.726299,-86.9529546 463.905271,-87.5532706 C464.084242,-88.1549327 464.062872,-88.2330007 463.793079,-87.9651466 C463.606094,-87.7780526 463.427122,-87.9489946 463.395068,-88.3460647 C463.352328,-88.8050507 463.20274,-88.7377507 462.965002,-88.1441647 C462.644456,-87.3459866 461.968637,-86.9825666 460.491454,-86.8197006 C460.259058,-86.7968186 460.072073,-86.4764706 460.077415,-86.1103586 C460.085429,-85.7334786 460.654398,-85.5383086 461.437065,-85.6513726 M458.576191,-85.7186726 C459.332145,-85.5194646 459.954539,-85.9999866 459.84769,-86.7012526 C459.786252,-87.1131286 459.500432,-87.1319726 458.001879,-86.8183546 C457.472978,-86.7066366 457.897701,-85.8963446 458.576191,-85.7186726 M456.00915,-86.0645946 C456.225519,-86.0659406 456.35908,-86.3566766 456.302984,-86.7025986 C456.22819,-87.2060026 455.955726,-87.2504206 455.640522,-86.8102786 C455.458879,-86.5464626 455.693946,-86.0632486 456.00915,-86.0645946 M360.801599,-88.6044967 C360.951187,-88.4752807 361.055365,-88.8225487 361.04468,-89.4282487 C361.036666,-90.0447167 360.903106,-90.4269807 360.721463,-90.3677567 C360.360848,-90.2425787 360.422286,-88.9302287 360.801599,-88.6044967 M348.220163,-93.2697327 C348.396463,-93.2710787 348.489956,-93.5846967 348.431189,-93.9669607 C348.372422,-94.3492247 348.228176,-94.6588047 348.1053,-94.6588047 C347.979753,-94.6588047 347.88626,-94.3478787 347.891603,-93.9642687 C347.899616,-93.5820047 348.043862,-93.2697327 348.220163,-93.2697327 M344.907852,-87.7188286 C345.076139,-87.7188286 345.2097,-88.0391766 345.204357,-88.4160567 C345.199015,-88.7996667 345.054769,-89.1092467 344.886483,-89.1079007 C344.718196,-89.1079007 344.581964,-88.7969747 344.587306,-88.4133647 C344.59532,-88.0364846 344.736894,-87.7188286 344.907852,-87.7188286 M344.213336,-88.4550907 C344.520526,-89.6691827 344.344225,-90.0554847 343.975597,-88.9746467 C343.804639,-88.4698967 343.74053,-87.9597626 343.831351,-87.8332386 C343.919502,-87.7013306 344.093131,-87.9839906 344.213336,-88.4550907 M313.179125,-87.8749646 C313.764122,-87.9193826 314.212887,-87.7188286 314.17549,-87.4254006 C314.087339,-86.7066366 314.252955,-86.7860506 314.5922,-87.6353766 C314.792541,-88.1401267 314.883362,-88.1307047 314.891376,-87.5949966 C314.896718,-87.1804286 314.976855,-87.0565966 315.070348,-87.3244506 C315.358839,-88.1657007 316.419313,-88.3581787 316.429997,-87.5748066 C316.43534,-87.1723526 316.510134,-87.0485206 316.595613,-87.2975306 C316.900132,-88.1764687 318.422726,-88.2653047 318.436082,-87.4025186 C318.446767,-86.8816166 318.494849,-86.9327646 318.572314,-87.5411566 C318.644437,-88.1158987 319.047791,-88.6044967 319.590048,-88.7619787 C320.199086,-88.9450347 320.418126,-88.8158187 320.271209,-88.3649087 C320.153675,-88.0028346 320.108265,-87.4765486 320.172374,-87.2086946 C320.233812,-86.9408406 320.40477,-87.1952346 320.543673,-87.7740146 C320.840178,-89.0123347 321.724352,-89.2546147 322.627223,-88.3595247 C322.977153,-88.0055266 323.327082,-87.9086146 323.404548,-88.1333967 C323.660985,-88.8844647 324.558514,-88.9638787 324.665363,-88.2572287 C324.732143,-87.8170866 324.876389,-88.0014886 325.047347,-88.7431347 C325.199606,-89.3972907 325.327825,-89.6139967 325.333167,-89.2290407 C325.349194,-88.1805067 326.131861,-88.3635627 326.500489,-89.5009327 C326.775625,-90.3556427 326.83172,-90.3408367 326.922542,-89.4269027 C327.037404,-88.2881867 328.223425,-88.5035467 328.725614,-89.7620567 C328.861846,-90.1039407 329.011434,-90.2062367 329.062187,-89.9949147 C329.110269,-89.7930147 329.299926,-89.8293567 329.478897,-90.0864427 C330.058552,-90.9398067 329.649855,-91.3274547 328.239452,-91.2709227 C327.018706,-91.2184287 326.869117,-91.3476447 326.925213,-92.3759887 C326.978637,-93.3558767 326.954596,-93.3329947 326.772953,-92.2508107 C326.580626,-91.0986347 326.289463,-90.9532667 323.933449,-90.8577007 C322.490991,-90.8011687 321.312984,-90.4956267 321.318326,-90.1914307 C321.320998,-89.8778127 321.248875,-89.8360867 321.152711,-90.0891347 C320.971068,-90.5790787 315.495071,-90.2196967 314.936787,-89.6907187 C314.648295,-89.4134427 313.136386,-89.6839887 313.002825,-90.0352947 C312.845223,-90.4552467 312.097282,-88.9840687 312.107967,-88.2774187 C312.113309,-88.0095646 312.594128,-87.8278546 313.179125,-87.8749646 M271.262373,-87.5007766 C272.587297,-87.4913546 275.843512,-87.3204126 278.490689,-87.1225506 C284.105589,-86.7093286 292.100544,-86.7564386 299.539886,-87.2517666 C302.918977,-87.4765486 304.478968,-87.3500246 303.928697,-86.8883466 C303.463905,-86.5006986 303.731027,-86.1830426 304.529721,-86.1870806 C305.328416,-86.1897726 305.985535,-86.4630106 305.980193,-86.7927806 C305.980193,-86.9583386 307.198268,-87.1037066 309.166956,-87.2060026 L309.546269,-87.2248466 C309.669145,-87.2302306 309.605036,-87.2356146 309.645104,-87.2409986 L309.738596,-87.2692646 C309.802706,-87.2867626 309.872157,-87.3015686 309.94428,-87.3123366 C310.088526,-87.3338726 310.248799,-87.3406026 310.417086,-87.3298346 C311.555025,-87.2611886 311.990433,-87.7134446 311.752695,-88.7148687 C311.733996,-88.7875527 311.354683,-88.8561987 310.783043,-88.9127307 C310.494551,-88.9409967 310.160649,-88.9665707 309.800034,-88.9894527 L309.663802,-88.9975287 L309.594351,-89.0015667 L309.089491,-89.0042587 C308.258742,-89.0056047 307.414637,-89.0082967 306.562518,-89.0096427 C304.858281,-89.0123347 303.116647,-89.0150267 301.364328,-89.0177187 C287.345776,-89.0284867 272.555242,-88.9679167 269.178823,-88.8252407 C267.463901,-88.7539027 269.416561,-87.5155826 271.262373,-87.5007766 M238.238105,-87.0296766 C242.544108,-87.2544586 246.409361,-87.5451946 246.836756,-87.6838326 C247.266822,-87.8238166 251.492689,-87.7215206 256.228758,-87.4577046 C264.891518,-86.9785286 270.108407,-87.9301506 265.901238,-89.2223107 C264.966312,-89.5076627 263.999331,-89.4457467 263.764264,-89.0836727 C263.529197,-88.7229447 260.390516,-88.5075847 256.816426,-88.6098807 C253.242336,-88.7067927 249.526672,-88.7794767 248.583732,-88.7673627 C247.638121,-88.7592867 245.794981,-88.7431347 244.472728,-88.7323667 C232.577794,-88.7215987 230.382053,-88.4873947 230.400751,-87.2652266 C230.406094,-86.9071906 233.86265,-86.8048946 238.238105,-87.0296766 M200.221331,-85.7927026 C201.164271,-85.0752846 201.893513,-84.9958706 202.601386,-85.5342706 C203.165013,-85.9555686 205.163084,-86.2395746 207.056978,-86.1655446 C208.956214,-86.0874766 211.258804,-86.3337946 212.199072,-86.7093286 C213.438517,-87.2086946 213.916665,-87.0485206 213.930021,-86.1345866 C213.943378,-85.1520066 214.309334,-85.0577866 215.586177,-85.7132886 C217.744521,-86.8197006 222.162715,-86.8170086 222.210797,-85.7105966 C222.234838,-85.1264326 222.576754,-85.0887446 223.236545,-85.5840726 C223.778802,-85.9865266 225.322766,-86.5383866 226.639677,-86.7887426 C231.880606,-87.7834366 228.509529,-88.4806647 219.753277,-88.2101187 C214.640565,-88.0539826 207.842316,-87.8453526 204.642197,-87.7484406 C198.404903,-87.5586546 198.081685,-87.4132866 200.221331,-85.7927026 M188.163453,-85.2435346 C191.376928,-85.2246906 194.945675,-85.1062426 196.083614,-84.9837566 C197.210868,-84.8518486 198.137781,-85.2152686 198.129767,-85.7859726 C198.11374,-86.9408406 193.740956,-87.2786866 186.766406,-86.6608726 C180.456989,-86.1022826 181.263697,-85.2785306 188.163453,-85.2435346 M171.53245,-83.9998306 C174.660446,-84.1223166 177.873921,-84.5624586 178.6833,-84.9770266 C180.165826,-85.7348246 178.619191,-86.0013326 174.088805,-85.7590526 C164.966596,-85.2771846 162.597226,-83.6485246 171.53245,-83.9998306 M61.1897778,10.2793942 C61.8121716,10.2767022 63.5217511,9.82040824 64.9668801,9.28066224 C68.4528195,7.97504223 66.6684459,7.11764022 62.9501105,8.30481223 C60.051839,9.23355224 59.1115703,10.2847782 61.1897778,10.2793942 M59.8728674,-28.2915821 C64.0773645,-28.7128801 65.0176332,-29.8933221 61.1470384,-29.8798621 C58.9726669,-29.8717861 54.8776898,-28.4948281 55.7565205,-28.0721841 C55.9435057,-27.9806561 57.7919886,-28.0802601 59.8728674,-28.2915821 M52.5670862,4.7715622 C53.5821491,4.7675242 57.233704,2.89658418 57.2256904,2.38510418 C57.2150055,1.60980817 53.312356,2.02841417 52.649894,2.87639418 C51.6829131,4.11067619 51.6535297,4.7756002 52.5670862,4.7715622 M52.796811,-9.16088393 C54.9952234,-7.44204191 58.6254086,-8.82169193 57.5649351,-10.9779839 C56.2052851,-13.770934 55.5962474,-14.09532 53.4459169,-13.189462 C51.2555182,-12.26476 50.9857252,-10.5795679 52.796811,-9.16088393 M50.3900436,-23.8713181 C49.6340889,-22.8429741 51.1967514,-22.6329981 53.4672867,-23.4580961 C55.2997422,-24.1243661 55.1287843,-27.7801021 53.2616029,-27.7733721 C50.8468219,-27.7639501 48.4453969,-26.1487501 49.8371015,-25.4609441 C50.5342894,-25.1109841 50.7907263,-24.3976041 50.3900436,-23.8713181 M44.5267201,-12.820658 C46.0252734,-13.298488 46.5995853,-15.285184 45.2292505,-15.2798 C44.8152117,-15.278454 43.642547,-14.881384 42.6087856,-14.400862 C40.5252356,-13.433088 42.1733771,-12.073628 44.5267201,-12.820658 M41.7593383,-34.2826282 C44.7564449,-33.8155662 47.0029392,-34.8237202 47.0136241,-36.6381282 C47.0216377,-37.6583962 52.3346903,-40.1767622 54.5357739,-40.2023362 C55.2863861,-40.2104122 54.9765248,-39.9048702 53.8599557,-39.5320282 C52.0782533,-38.9397882 52.0755821,-38.7580782 53.8065314,-38.2102562 C55.4065909,-37.7014682 55.0700175,-37.3972722 52.1129792,-36.7054282 C47.7615651,-35.6851602 47.2326639,-33.9824702 51.2742167,-33.9972762 C56.9612398,-34.0188122 64.0132552,-39.1874522 59.3493087,-39.9156382 C57.8293856,-40.1498422 56.5872693,-40.6411322 56.5819268,-40.9964762 C56.571242,-41.7246622 52.3934571,-41.8269582 49.1318999,-41.1795322 C47.956564,-40.9493662 46.976227,-40.3167462 46.9842407,-39.7958442 C46.9975968,-38.9586322 45.3521265,-38.6544362 41.9944055,-38.8671042 C38.2547003,-39.1066922 38.0383317,-34.8654462 41.7593383,-34.2826282 M41.1770128,-23.8403601 C44.7617873,-23.4029101 47.1365001,-24.3154981 47.1525274,-26.1447121 C47.1685547,-27.4045681 42.6301554,-27.6037761 39.9803071,-26.4583301 C36.681353,-25.0288781 36.988543,-24.3558781 41.1770128,-23.8403601 M36.6733393,-40.1686862 C37.7979221,-40.1727242 38.7275059,-40.4944182 38.7221635,-40.8726442 C38.716821,-41.2522162 37.7765523,-41.5617962 36.6546408,-41.5577582 C35.5247156,-41.5523742 34.5951317,-41.2360642 34.6004742,-40.8564922 C34.6058166,-40.4796122 35.5460853,-40.1646482 36.6733393,-40.1686862 M33.8658892,-44.0707402 C34.9931432,-44.2914843 35.9147134,-44.9146823 35.909371,-45.4450063 C35.8906724,-46.6362163 33.6094523,-46.6954403 32.698567,-45.5311503 C31.4965189,-44.0034402 31.7743255,-43.6575182 33.8658892,-44.0707402 M28.3204407,-23.3490701 C30.5215243,-22.9829581 34.8569111,-23.5577001 34.8488974,-24.2132021 C34.843555,-24.4945161 32.9950722,-24.7475641 30.7191944,-24.7637161 C26.5921627,-24.8108261 25.040185,-23.8915081 28.3204407,-23.3490701 M20.3174717,-41.2051062 C21.1776038,-40.0986942 25.002788,-39.6706662 24.9867607,-40.6828582 C24.9760758,-41.4029682 21.9869829,-42.8822222 20.5552101,-42.8768382 C19.2356284,-42.8714542 19.1982313,-42.6399422 20.3174717,-41.2051062 M19.8847343,-10.3386339 C21.6183548,-10.3440179 24.1880665,-12.805852 23.0554701,-13.367134 C22.5666372,-13.61076 23.189031,-13.81266 24.4525171,-13.818044 C27.3374325,-13.828812 27.5324314,-11.53792 24.7490223,-10.3561319 C22.4010217,-9.35739993 22.0190375,-7.57664192 24.1586831,-7.58471792 C24.9600485,-7.58740992 26.5200398,-8.70055193 27.6232528,-10.0627039 C29.084409,-11.855576 30.2864571,-12.438394 32.0013791,-12.192076 C40.0924983,-11.0089419 41.9383099,-10.9712539 41.1396157,-11.996906 C40.701536,-12.558188 39.3151739,-12.972756 38.0516878,-12.922954 C36.7882017,-12.867768 35.6609477,-13.209652 35.5407429,-13.687482 C35.4232093,-14.158582 35.2415665,-14.878692 35.1427314,-15.267686 C34.9477325,-16.065864 29.8911169,-15.854542 26.7390797,-14.913688 C25.0749109,-14.419706 25.0081304,-14.47893 26.3891501,-15.234036 C28.9775603,-16.663488 28.4406455,-17.131896 24.6555296,-16.75367 C22.3155427,-16.522158 20.9452079,-15.822238 20.4269916,-14.58661 C20.0049392,-13.58384 19.4573395,-12.442432 19.2115874,-12.065552 C18.3861811,-10.7720459 18.5544678,-10.3332499 19.8847343,-10.3386339 M-0.304331088,-55.9720724 C3.62503055,-56.0205284 6.69426,-59.4460984 2.80496663,-59.4312924 C0.283336866,-59.4218704 -1.05761456,-58.5577384 -1.24994225,-56.8160144 C-1.30336661,-56.3422224 -0.878642952,-55.9613044 -0.304331088,-55.9720724 M0.467650906,-33.7496122 C2.04366951,-32.9662401 4.14858927,-32.4762961 5.12892627,-32.6741581 C6.95871058,-33.0362321 9.99855663,-31.9432801 10.0145839,-30.9176281 C10.0199264,-30.6053561 8.48931848,-30.0494581 6.60076737,-29.6793081 C3.36592241,-29.0466881 1.80593111,-27.5795481 4.37831402,-27.5889701 C6.51795961,-27.5970461 12.7712809,-30.4653721 12.7579248,-31.4398761 C12.7499111,-31.9540481 13.2788123,-32.5557101 13.9172334,-32.7576101 C14.5690106,-32.9568181 14.8120914,-32.3578481 14.4621619,-31.4156481 C14.0908626,-30.4169161 14.4728467,-29.7035361 15.3677048,-29.7062281 C16.2171521,-29.7102661 16.8983127,-30.0225381 16.8929702,-30.4048021 C16.8876278,-30.7830281 17.6035142,-31.1006841 18.4930298,-31.1047221 C19.3772029,-31.1074141 18.765494,-30.3846121 17.1253662,-29.4908681 C15.4905808,-28.5998161 14.5636681,-27.6670381 15.0711996,-27.4207201 C15.9874273,-26.9684641 23.6938912,-31.0401141 23.7179321,-31.9944281 C23.7259458,-32.2757421 23.0688262,-32.5045621 22.2728032,-32.5018701 C20.0824045,-32.4937941 22.2594471,-35.4603782 25.2405264,-36.5331402 C27.7541425,-37.4389982 28.9294784,-39.2062962 26.5040125,-38.4336922 C25.812167,-38.2142942 23.2664963,-37.9154822 20.849044,-37.7620382 C18.434263,-37.6139782 16.0729063,-37.1859502 15.6027719,-36.8117622 C14.1309308,-35.6434342 5.82878538,-35.3163562 5.81275807,-36.4294982 C5.80474441,-36.9665522 5.04077607,-37.2155622 4.08715126,-36.9894342 C3.14688253,-36.7659982 1.30641335,-36.3837342 -0.0104971107,-36.1481842 C-3.04232951,-35.5922862 -3.0263022,-35.4805682 0.467650906,-33.7496122 M-2.97554906,-37.3824662 C-1.74144636,-38.0097022 -1.18583302,-38.8536442 -1.72274783,-39.2803262 C-3.11445239,-40.3961602 -5.22471459,-39.4754962 -5.20067363,-37.7566542 C-5.17930389,-36.3729662 -5.01101715,-36.3460462 -2.97554906,-37.3824662 M-4.14287131,-65.9499704 C-1.84562386,-65.2487044 0.764156101,-66.8639045 -1.14042231,-67.8061045 C-2.72712579,-68.5948605 -5.64943825,-68.0820345 -5.63341094,-67.0146565 C-5.62806851,-66.6768105 -4.96293523,-66.2057105 -4.14287131,-65.9499704 M-17.2692364,-54.5331983 C-16.4411589,-54.5453123 -16.8338279,-54.9625723 -18.1320398,-55.4511704 C-22.3605779,-57.0461804 -15.4768492,-59.6749184 -8.48627174,-59.1351724 C-2.89808374,-58.7084904 1.19155098,-59.9320044 -0.721041091,-61.4664444 C-1.20720276,-61.8621684 -0.948094619,-62.1865544 -0.149400445,-62.1892464 C0.649293728,-62.1932844 1.31175579,-61.8917804 1.31976944,-61.5162464 C1.33312553,-60.4542524 7.71733648,-59.9346964 10.4980744,-60.7624864 C12.8033355,-61.4502924 12.8140204,-61.5095164 10.5942382,-61.5149004 C9.27465656,-61.5243224 8.18479963,-61.8608224 8.17945719,-62.2605844 C4.77899671,-61.9267764 0.165803275,-62.8003304 -0.349741793,-63.9188564 C-0.707685001,-64.6928064 -1.83493899,-64.6201224 -6.26916082,-63.5325544 C-9.28496591,-62.7922544 -12.5171397,-62.1744404 -13.4627508,-62.1623264 C-14.3950059,-62.1448284 -15.1723303,-61.8177504 -15.1669879,-61.4408704 C-15.1616454,-61.0518764 -15.6932178,-60.7449884 -16.3717072,-60.7422964 C-18.1266974,-60.7355664 -19.2325816,-64.1355624 -17.6351933,-64.6403124 C-16.8284855,-64.8960524 -16.9593751,-65.2675484 -17.9584107,-65.5744364 C-20.8459973,-66.4641425 -7.99743885,-70.3325465 -1.31405148,-70.5869405 C3.79331728,-70.7753805 4.5546144,-70.6313585 4.1966712,-69.5316765 C3.83872799,-68.4535305 4.3756428,-68.3310445 7.64254238,-68.7550345 C9.76081823,-69.0255805 13.495181,-69.4307265 15.9126332,-69.6433945 C18.324743,-69.8601005 21.105481,-70.5223325 22.0751331,-71.1172645 C23.6110834,-72.0608105 23.3065646,-72.1415705 19.7164476,-71.7875725 C15.5974295,-71.3743505 15.5974295,-71.3743505 18.7441243,-72.6705485 C20.4590462,-73.3879665 22.7509512,-73.8092645 23.8114248,-73.6060185 C24.8638846,-73.4041185 27.4603085,-73.7069685 29.5705707,-74.2844025 C38.8236698,-76.7920005 45.1037032,-77.6695926 55.9007663,-77.9603286 C63.3721629,-78.1635746 67.8838501,-78.5942946 68.7012428,-79.1892266 C71.0545858,-78.7585066 72.6653303,-78.5444926 74.3375127,-78.7463926 C75.9722981,-78.9496386 80.7217237,-79.2484506 84.8674539,-79.4167006 C99.6179196,-80.0129786 107.562122,-80.8367306 110.965254,-82.1235066 C112.861818,-82.8382326 116.270292,-83.6067986 118.492746,-83.8140826 C120.715199,-84.0254046 123.557375,-84.6647546 124.767437,-85.2219986 C125.977499,-85.7832806 128.378923,-86.3930186 130.075147,-86.5626146 C131.774042,-86.7375946 134.720395,-87.3998266 136.584905,-88.0270626 C138.444073,-88.6475687 141.478576,-89.0284867 143.276306,-88.8602367 C145.084721,-88.6906407 151.957765,-88.8427387 158.577043,-89.1913527 C165.19365,-89.5453507 175.523249,-90.0379867 181.573558,-90.2869967 C187.629209,-90.5467747 198.105726,-90.9976847 204.920003,-91.2911127 C211.712911,-91.5912707 244.178894,-92.0192987 277.04556,-92.2360047 C285.259555,-92.2965747 293.273209,-92.3557987 300.731249,-92.4109847 C302.59576,-92.4257907 304.425544,-92.4419427 306.212589,-92.4567487 C307.107447,-92.4634787 309.743939,-92.4957827 309.743939,-92.4957827 C312.15872,-92.6330747 313.082961,-92.7151807 313.272618,-92.7838267 C316.048013,-93.7354487 322.848934,-93.9440787 322.985166,-93.0826387 C323.32174,-93.5900807 323.610231,-93.9804207 323.896052,-93.9333107 C326.796994,-94.3613387 327.053431,-94.5565087 327.371306,-94.4959387 C327.691852,-94.4380607 330.093277,-94.6413067 332.716413,-94.9468487 C335.336878,-95.2537367 337.68755,-95.4865947 337.941316,-95.4650587 C338.195082,-95.4462147 340.34007,-95.3977587 342.70944,-95.3708387 C345.60504,-95.3371887 347.050169,-95.0720267 347.127634,-94.5713147 C349.854948,-94.7799447 350.920764,-95.0747187 352.160209,-95.1581707 C353.399654,-95.2416227 354.935605,-95.4233327 355.566012,-95.5687007 C356.199091,-95.7059927 356.802786,-95.5498567 356.909635,-95.2133567 C358.736748,-96.0963327 361.715156,-96.1865147 361.728512,-95.2483527 C362.289468,-96.0357627 365.086233,-96.2699667 365.687257,-95.6346547 C366.547389,-94.7341807 366.02383,-93.6843007 364.717605,-93.6789167 C363.718569,-93.6748787 363.373982,-93.9050447 363.392681,-94.5417027 C363.408708,-95.0154947 363.307202,-95.4085267 363.17097,-95.4085267 C363.013368,-95.4071807 362.962615,-95.0249167 363.026724,-94.3680687 C362.345563,-93.9010067 362.014332,-93.5389327 361.677759,-93.5160507 C361.338514,-93.4783627 359.725098,-93.3033827 358.087642,-93.1270567 C356.452856,-92.9413087 355.202726,-93.0462967 355.309575,-93.3558767 C355.416424,-93.6668027 355.445807,-94.1648227 355.379027,-94.4488287 C355.306904,-94.7395647 355.106563,-94.5470867 354.927591,-94.0046487 C354.729921,-93.4097167 354.094171,-92.9682287 353.298148,-92.8578567 C351.086379,-92.5603907 346.924622,-92.3692587 346.759006,-92.5630827 C346.486542,-92.5402007 343.510805,-92.3652207 339.915346,-92.2185067 C336.317215,-92.0758307 332.908741,-91.8550867 332.339772,-91.7204867 C330.069236,-91.5172407 329.919648,-91.1363227 329.882251,-90.2816127 C329.834169,-89.1388587 329.914306,-89.0540607 330.771767,-89.4094047 C331.816213,-89.8333947 333.961201,-90.0501007 334.562225,-89.7849387 C334.775923,-89.6866807 335.499823,-89.8468547 336.17297,-90.1322067 C338.187068,-90.9842247 338.702613,-90.8428947 338.723983,-89.4309407 C338.731996,-88.7808227 338.884256,-88.3918287 339.124665,-88.3931747 C339.335692,-88.3931747 339.503978,-88.6731427 339.498636,-89.0284867 C338.953707,-89.0069507 338.8709,-89.1280907 338.926995,-89.5978447 C340.796848,-89.6422627 341.237599,-89.3340287 341.397872,-88.9652247 C342.076361,-89.0917487 342.239306,-89.3878687 342.303415,-89.4672827 C342.591906,-89.8603147 342.936493,-89.9451127 343.294437,-89.9612647 C343.655051,-89.9760707 343.946214,-90.2479627 343.940871,-90.5723487 C344.563265,-90.0931727 344.803675,-89.9531887 344.873126,-90.1564347 C345.16696,-89.4188267 345.337918,-89.3999827 345.564972,-89.7983987 C346.710924,-89.0365627 346.644144,-88.4214407 346.753664,-88.4214407 C346.863184,-88.4214407 347.066196,-88.9275367 347.210442,-89.5588107 C348.233519,-90.5736947 348.294957,-90.6248427 348.359066,-90.0312567 C348.404477,-89.5695787 348.540709,-89.3757547 348.658242,-89.5843847 C348.778447,-89.8010907 348.879953,-89.6247647 348.887967,-89.2021207 C348.89331,-88.7821687 349.002829,-88.4295167 349.128377,-88.4308627 C349.256595,-88.4308627 349.35543,-88.7700547 349.350088,-89.1805847 C349.342074,-89.6543767 349.665292,-89.8495467 350.226247,-89.7189847 C350.71508,-89.6005367 351.198571,-89.7539807 351.300077,-90.0554847 C351.903772,-89.4807427 354.513552,-89.5776547 354.748619,-90.2439247 C354.895536,-90.6584927 354.895536,-90.5037027 354.745948,-89.6018827 C354.48684,-88.0230246 354.657798,-87.3729066 354.954303,-88.8131267 C355.085193,-89.4363247 355.192041,-89.6597607 355.197384,-89.3138387 C355.202726,-88.9719547 355.622108,-88.7148687 356.129639,-88.7471727 C356.661211,-88.7835147 357.029839,-89.0971327 357.003127,-89.4995867 C356.976415,-89.8858887 356.89895,-90.1079787 356.829498,-90.0070287 C356.762718,-89.9047327 356.749362,-90.1577807 356.800115,-90.5696567 C357.529357,-88.8790807 357.681617,-88.8521607 357.548056,-90.1927767 C357.49196,-90.7607887 357.521344,-91.2318887 357.614836,-91.2318887 C357.708329,-91.2318887 357.791137,-90.8859667 357.796479,-90.4579387 C357.804493,-90.0326027 357.935382,-89.8360867 358.090313,-90.0258727 C358.886336,-91.0259507 358.918391,-91.2453487 358.963801,-90.8227047 C359.009212,-90.4040987 359.204211,-90.1981607 359.401881,-90.3664107 C359.599551,-90.5373527 359.810577,-90.3367987 359.874687,-89.9114627 C360.440985,-91.3301467 361.982278,-91.3786027 362.396316,-90.2721907 C364.543976,-88.8292787 365.80479,-88.6650667 365.967735,-89.8239727 C366.173419,-91.3059187 368.016559,-92.4634787 367.834916,-90.9949927 C370.631681,-91.1201707 370.722503,-90.9411527 370.727845,-90.5629267 C370.73853,-89.8333947 371.288801,-90.2129667 371.983318,-91.4216747 C373.952005,-90.9976847 374.080224,-90.6934887 374.227141,-90.7096407 C374.374058,-90.7150247 374.964397,-90.5023567 375.544051,-90.2291187 C376.569799,-90.9546127 376.772811,-91.3045727 377.026577,-91.3059187 C377.283014,-91.3059187 377.49404,-90.9748027 377.499383,-90.5696567 C379.724507,-90.7527127 380.264093,-91.0555627 380.354915,-91.4109067 C380.464435,-91.8281667 380.557927,-91.6653007 380.632721,-90.9196167 C380.715529,-90.1025947 380.798337,-89.9814547 380.926555,-90.4888967 C381.028062,-90.8778907 381.281827,-91.1888167 381.492854,-91.1847787 C384.086606,-91.3261087 386.389196,-90.8617387 387.091727,-90.3664107 C387.53782,-90.0433707 387.695422,-90.2021987 387.754189,-91.0138367 C387.807613,-91.7635587 387.887749,-91.8725847 388.026653,-91.3718727 C388.184255,-90.8173207 391.552661,-90.3125707 392.583751,-90.6988727 C392.709298,-90.7473287 393.198131,-90.5858087 393.668265,-90.3421827 C394.993189,-89.6597607 396.748179,-89.3744087 401.999794,-88.9988747 C404.668341,-88.8037047 407.446407,-88.4981627 408.167636,-88.3124147 C410.611801,-87.6851786 413.325758,-87.2759946 417.038751,-86.9717986 C419.074219,-86.8008566 422.439954,-86.4280146 424.518162,-86.1399706 C427.6515,-85.7092506 432.916471,-85.6163766 433.936876,-85.9865266 C434.561941,-86.2059246 434.519202,-87.9072686 433.883452,-88.1751227 C431.198878,-88.0809027 431.105385,-88.3204907 431.0947,-89.0419467 C431.084015,-89.6355327 431.164152,-90.1483587 431.268329,-90.1779707 C432.384898,-90.4862047 442.185597,-89.5022787 442.353884,-89.0688667 C442.976278,-87.4011726 441.51245,-87.0014106 436.594738,-87.4927006 C435.010706,-87.6474906 434.591324,-87.4940466 434.545914,-86.7308646 C434.500503,-86.0026786 434.599338,-85.8761546 434.959953,-86.2072706 C435.555634,-85.7980866 435.785359,-85.6325286 436.023097,-85.7213646 C436.605423,-85.9407626 436.982065,-85.9367246 439.917733,-85.6917526 L443.462439,-85.4023626 C446.29393,-85.2058466 454.849842,-85.7698206 454.844499,-86.1561226 C454.833814,-86.8829626 454.499912,-87.1440866 453.631766,-87.1171666 C453.188344,-87.1023606 452.825058,-87.2894546 452.822387,-87.5317346 C452.809031,-88.4672047 454.422447,-89.0877107 456.725037,-89.0257947 C460.747891,-88.9221527 462.940961,-88.9383047 463.42178,-89.0729047 C463.715614,-89.1590487 464.324652,-88.8710047 464.776088,-88.4470147 C465.574782,-89.2303867 467.233608,-89.0002207 467.332443,-88.0176406 C467.695729,-89.0298327 468.66271,-88.4389387 468.681408,-87.3325266 C468.99127,-87.8292006 469.130173,-87.9732226 469.18894,-87.7201746 C470.158592,-87.5398106 470.214687,-87.6138406 470.206674,-88.2504987 C471.64646,-88.6475687 473.214465,-88.8561987 474.739731,-88.7808227 C476.264996,-88.6987167 477.771563,-88.8063967 478.089438,-89.0123347 C481.511268,-89.3919067 481.831814,-89.3703707 481.871883,-88.9315747 C482.347359,-89.5588107 484.748784,-89.3367207 485.165494,-88.6058427 C485.876038,-89.4080587 495.094412,-90.2829587 502.736766,-90.3031487 C507.154961,-90.6100367 507.774683,-90.4377487 507.988381,-89.6947567 C508.116599,-89.2384627 508.386392,-89.0675207 508.60009,-89.3192227 C508.813787,-89.5547727 509.134333,-89.4094047 509.321318,-88.9786847 C509.884945,-90.0622147 511.156445,-89.2923027 511.351444,-88.0876327 C511.733428,-89.1536647 512.182193,-89.7755167 512.294384,-89.0459847 C512.793902,-89.1267447 512.847326,-89.0056047 512.788559,-88.5183527 C512.732464,-88.0418686 512.815272,-87.7888206 513.004928,-87.8547746 C513.175886,-87.9086146 513.306776,-88.3676007 513.298762,-88.8750427 C516.792715,-88.2316547 516.91292,-87.6797946 517.009084,-87.6811406 C517.107919,-87.6811406 517.139973,-87.9853366 517.078535,-88.3676007 C517.019769,-88.7646707 517.142645,-89.0634827 517.369698,-89.0648287 C517.583396,-89.0661747 517.76771,-88.7539027 517.773052,-88.3702927 C517.778395,-87.9961046 517.85586,-87.6838326 517.946681,-87.6838326 C518.037503,-87.6838326 518.069557,-87.9557246 518.018804,-88.2787647 C517.968051,-88.6058427 518.462226,-89.0688667 519.111332,-89.3030707 C519.757767,-89.5359287 520.484338,-89.8508927 520.714063,-90.0043367 C521.280361,-89.3528727 521.248307,-89.0796347 521.157485,-89.0796347 C521.069335,-89.0782887 520.999883,-88.7888987 521.005226,-88.4335547 C521.010568,-88.0782107 521.208238,-87.8211246 521.45399,-87.8493906 C521.697071,-87.8763106 521.972207,-87.6824866 522.076384,-87.4186706 C522.188575,-87.1171666 522.252685,-87.4186706 522.242,-88.1791607 C522.233986,-89.0527147 522.268712,-89.1711627 522.362205,-88.5708467 C522.525149,-87.5209666 525.188353,-86.7133666 525.172326,-87.7228666 C525.166983,-88.0970547 524.694178,-88.4254787 524.122537,-88.4456687 C523.526856,-88.4739347 523.198296,-88.7041007 523.355898,-88.9921447 C527.907653,-88.9154227 528.417856,-88.9261907 529.959149,-89.3515267 C531.150512,-88.4497067 533.768305,-88.3743307 534.000701,-89.0406007 C534.492205,-90.4027527 537.756434,-89.4659367 537.865954,-87.9247666 C538.426909,-89.4269027 540.392926,-89.6611067 542.150587,-88.2545367 C543.288526,-89.4255567 543.785373,-88.6516067 543.8014,-87.3648306 C544.666875,-88.1145527 545.011462,-88.4618207 545.177077,-88.2787647 C546.76111,-87.8440066 547.613228,-87.4805866 548.230279,-87.4738566 C549.111781,-87.1023606 549.053015,-86.4805086 549.063699,-85.8425046 C549.573902,-85.9138426 549.670066,-86.0430586 549.691436,-86.4428206 C549.768901,-87.6919086 552.00471,-88.1616627 552.285188,-86.9906426 C554.245862,-88.6179567 559.270423,-87.9355346 559.564257,-86.1790046 C559.850078,-86.5935726 560.127884,-86.9354566 560.40302,-86.9287266 C560.726237,-86.9206506 560.841099,-86.7133666 560.718223,-86.3580226 C560.592676,-85.9878726 560.680826,-85.7859726 560.963976,-85.7819346 C561.212399,-85.7711666 561.351302,-86.0619026 561.289864,-86.4616646 C561.118906,-87.5788446 562.067189,-87.2531126 562.294242,-86.1184346 C562.406433,-85.5531146 562.564035,-85.2892986 562.646843,-85.5261946 C562.734993,-85.7846266 562.70561,-86.1911186 562.57472,-86.5451166 C562.417118,-86.9704526 562.449173,-87.1360106 562.700267,-87.1454326 C562.935334,-87.1548546 563.018142,-86.8506586 562.967389,-86.1211266 C562.884581,-84.9635666 564.551421,-85.3444846 564.821214,-86.5531926 C565.091007,-86.0982446 565.144432,-85.7603986 565.256623,-85.7334786 C566.020591,-85.4010166 566.212919,-85.7361706 566.250316,-86.2436126 C566.285042,-86.7537466 566.378534,-87.1736986 566.461342,-87.1736986 C566.54415,-87.1736986 566.570862,-86.8695026 566.52278,-86.4818546 C566.472027,-86.0605566 566.712437,-85.7859726 567.139831,-85.7873186 C567.59661,-85.7900106 567.837019,-86.0968986 567.831677,-86.6581806 C567.826334,-87.1427406 567.9038,-86.9906426 567.999964,-86.3122586 C568.096128,-85.6527186 568.245716,-85.1035506 568.331195,-85.1048966 C568.416674,-85.1048966 568.43003,-85.4629326 568.365921,-85.8936526 C569.581325,-85.3296786 573.385139,-85.7321326 573.371783,-86.7160586 C573.665617,-86.1870806 574.058286,-85.8142386 574.426914,-85.8155846 C574.795542,-85.8169306 575.246978,-85.4804306 575.428621,-85.0604786 C578.794355,-84.8208906 579.00271,-84.7643586 579.170997,-84.9312626 C579.65983,-85.4185146 585.261374,-85.2610326 586.003973,-84.7455146 C586.52486,-84.3820946 586.711846,-84.5126566 586.794653,-85.2987206 C586.872119,-86.0134466 587.109857,-86.2597646 587.574649,-86.1049746 C588.381357,-85.8398126 588.202385,-85.8330826 594.883101,-86.2328446 C599.611157,-86.5128126 600.329715,-86.4145546 600.551426,-85.4965826 C600.690329,-84.9164566 600.799849,-84.7374386 600.794507,-85.0995126 C600.778479,-86.1547766 601.382175,-86.5989566 601.825597,-85.8626946 C602.42395,-84.8666546 609.5748,-84.5664966 609.566787,-85.5369626 C609.828566,-84.5813026 613.12752,-83.9163786 613.116835,-84.8007006 C613.383957,-84.6176446 613.52286,-84.8303126 613.597654,-85.3565986 C614.364294,-84.4547786 614.626073,-84.2542246 615.467507,-84.2932586 C616.084558,-84.3242166 616.722979,-84.0536706 616.888595,-83.6929426 C617.137018,-83.1558886 617.171744,-83.2514546 617.070238,-84.2636466 C616.974074,-85.2179606 616.992772,-85.3189106 617.16373,-84.7199406 C617.305305,-84.2219206 618.365779,-83.9998306 620.291727,-84.0725146 C621.894457,-84.1371226 623.825748,-83.9567586 624.587045,-83.6767906 C625.655532,-83.2756826 625.992106,-83.3645186 626.082927,-84.0711686 C627.234222,-83.8033146 627.600179,-83.6431406 628.011547,-83.7360146 C629.299074,-84.0280966 642.096879,-83.6364106 651.39806,-83.0199426 C665.007916,-82.1167766 668.499197,-81.9498726 679.280233,-81.6806726 C685.546911,-81.5245366 694.348574,-81.2297626 698.838891,-81.0265166 C703.33188,-80.8232706 707.108982,-80.6536746 707.2372,-80.6469446 C707.362748,-80.6482906 708.468632,-80.8178866 709.69205,-81.0345926 C710.918139,-81.2472606 715.135992,-81.6322166 719.070696,-81.8812266 C727.054967,-82.3953986 728.438657,-82.5421126 733.826504,-83.4102826 C737.996275,-84.0765526 747.711495,-84.1209706 765.151877,-83.5502666 C771.506705,-83.3429826 777.738656,-83.1787706 779.012827,-83.1828086 C782.739176,-82.6390246 799.738808,-82.7480506 799.794903,-83.2191506 C800.593597,-82.6511386 811.182305,-82.9041866 815.485638,-83.6242966 C816.839945,-83.8423486 818.84603,-84.1640426 819.9439,-84.3403686 C821.0391,-84.5113106 822.628474,-84.8128146 823.472579,-85.0133686 C825.350446,-85.4548566 827.385914,-85.8303906 829.477477,-86.1305486 C830.519252,-86.2799546 831.579726,-86.4118626 832.637528,-86.5222346 C837.178599,-86.7658606 839.350299,-86.7914346 841.511314,-86.8183546 C878.702682,-87.2261926 913.759747,-87.2961846 938.826456,-86.9381486 C955.457459,-86.6972146 979.575886,-86.4185926 992.424445,-86.3095666 C1045.4962,-85.8640406 1052.52151,-85.7105966 1053.48315,-84.9393386 C1054.01472,-84.5153486 1055.96471,-84.1828866 1057.81052,-84.1976926 C1062.48248,-84.2380726 1066.40383,-83.8975346 1068.45799,-83.2635686 C1069.41162,-82.9714866 1084.67763,-82.8732286 1102.39849,-83.0414786 C1140.83732,-83.4116286 1140.83732,-83.4116286 1139.57917,-76.9131405 C1138.48664,-71.2330205 1138.79918,-69.0228885 1140.97622,-67.2784725 C1143.12388,-65.5569384 1139.2052,-55.4080984 1136.38707,-55.3973304 C1132.3749,-55.3825244 1132.16654,-54.2639983 1136.00241,-53.4012123 C1138.57212,-52.8197403 1139.37349,-52.2140403 1138.86596,-51.2287683 C1138.48664,-50.4844303 1138.77514,-49.6822143 1139.50705,-49.4587783 C1140.32711,-49.2111143 1140.34581,-48.7494363 1139.54712,-48.2473783 C1138.83924,-47.8031983 1137.15103,-45.4692343 1135.78871,-43.0558562 C1133.67311,-39.3099382 1132.77825,-38.6127102 1129.65293,-38.2829402 C1127.45184,-38.0541202 1125.69685,-37.3097822 1125.25343,-36.4375742 C1124.3372,-34.6339342 1125.52589,-33.9286302 1127.17136,-35.2961662 C1129.96546,-37.6247462 1133.59831,-33.9932382 1132.56188,-29.9040901 C1132.05702,-27.8649001 1131.93415,-24.7542941 1132.29476,-22.9843041 C1132.65805,-21.210276 1132.26003,-18.901886 1131.41059,-17.8372 C1130.33409,-16.506006 1130.30203,-15.645912 1131.27168,-15.055018 C1132.83702,-14.114164 1132.01962,-10.5782219 1130.10703,-9.96982994 C1129.44991,-9.76254594 1128.92101,-8.53499392 1128.93971,-7.24821791 C1128.95841,-5.9614419 1128.40814,-4.72715989 1127.71095,-4.50776189 C1127.02445,-4.29105589 1126.65849,-2.86429587 1126.89089,-1.35273786 C1127.14999,0.328416156 1126.60239,1.69999017 1125.46446,2.18051217 C1124.26775,2.68930018 1123.95789,3.59785019 1124.58028,4.7863682 C1127.743,10.8258703 1123.19125,11.0829563 1040.56246,9.57947424 C1017.66745,9.16625224 979.274039,9.15683024 937.210369,9.46237224 C916.177199,9.61581624 894.22513,9.84867424 872.834016,10.1515242 C862.138459,10.3224662 851.584477,10.4907162 841.351041,10.6549283 C840.068857,10.6778103 838.797357,10.7006923 837.525857,10.7262663 C834.817242,10.9981583 834.280327,11.0856483 833.754097,11.1717923 C827.842692,12.1960983 806.28062,12.6456623 797.743408,11.9242063 C795.750679,11.7626863 792.555902,11.5056003 790.651324,11.3508103 C788.744074,11.2081343 785.346285,10.8877863 783.094448,10.6401223 C778.435844,10.1313342 775.850105,9.98865824 759.601086,9.33719424 C746.634994,8.81629223 747.575263,8.81090823 739.358597,9.41391624 C736.105053,9.63600624 731.088506,9.98058224 728.211604,10.1770982 C726.771817,10.2740102 725.468263,10.3601542 724.519981,10.4234162 C722.981359,10.5459022 722.04109,10.6105103 720.521167,10.6872323 C719.001244,10.7612623 716.907009,10.8622123 714.599077,10.9752763 C709.988555,11.1946743 705.041459,11.4961783 703.604344,11.6509683 C700.286691,11.9888143 693.012965,12.0251563 687.440804,11.7357663 C685.068762,11.6078963 677.338258,11.3454263 670.267544,11.1475643 C656.906111,10.7747223 649.052731,10.3036222 646.539114,9.72753424 C645.732407,9.54313224 639.046348,9.29950624 631.676458,9.19451824 C618.614202,9.00069424 610.929108,8.57939623 603.556546,7.66142422 C601.561146,7.40972222 597.51158,7.28050622 594.546528,7.37607222 C591.586818,7.46760022 586.637051,7.54432222 583.543781,7.54701422 C577.017996,7.56989622 577.832717,7.56720422 575.308416,7.57797222 C574.207874,7.57797222 571.921312,7.45548622 570.225088,7.29665822 C568.528865,7.14186822 560.488499,6.88478222 552.357311,6.72730021 C544.228795,6.57520221 536.987123,6.29658021 536.263223,6.11352421 C534.740629,5.73799021 528.879976,5.0205722 524.539247,4.6854182 C522.888435,4.54947219 519.666946,4.28027219 517.375041,4.08914019 C512.441301,3.65842019 493.061615,3.71226019 488.897186,4.17393819 C487.291784,4.34622619 482.790782,4.6813802 478.898817,4.8994322 C475.009524,5.1228682 470.652767,5.4499462 469.212981,5.6168502 C467.775865,5.78779221 460.857411,6.11621621 453.832108,6.35311221 C432.772225,7.05437822 431.59956,7.12571622 431.607574,7.70315022 C431.324425,7.50125022 428.151018,7.19167022 424.376587,7.08533622 C420.599485,6.98438622 416.053072,6.76498822 414.271369,6.60212221 C411.18077,6.31811621 406.866753,5.92239221 398.933236,5.1955522 C396.940507,5.0138422 393.441212,4.6436922 391.149307,4.36776219 C382.75634,3.36903018 354.799372,4.00165019 347.442838,5.3584182 C346.515926,5.5360902 343.091424,5.85374621 339.835209,6.07449021 C327.942947,6.88612822 318.465466,7.79467822 316.315135,8.32634823 C313.443576,8.39230223 312.615498,8.35326823 311.648517,8.34115423 C304.494996,8.37749623 296.299699,8.42191423 287.973512,8.46364023 C267.851227,8.61035423 247.106549,8.85532623 234.578536,9.13125624 C220.605395,9.44352824 190.620973,9.91866624 167.955689,10.2013262 C145.287733,10.4812942 123.958058,10.8662503 120.56294,11.0654583 C117.16515,11.2606283 109.445331,11.6240483 103.397693,11.8676743 C97.1390293,12.1234143 91.0112553,12.7829543 89.15743,13.4034603 C85.9359411,14.4789143 83.5959542,13.9028263 83.5024616,12.0224643 C83.4810918,11.6900023 81.6005544,11.5688623 79.3006357,11.7478803 C76.9927034,11.9255523 74.794291,11.8097963 74.4042932,11.4867563 C73.1969026,10.5230202 70.7527382,10.8635583 71.5514324,11.8865183 C71.9681424,12.4141503 70.7099987,13.5972843 68.7733657,14.5004503 C65.824341,15.8720243 65.3889325,15.9299023 66.1395447,14.8571403 C66.9008419,13.7628423 66.534885,13.6322803 63.7060652,14.0037763 C61.6251864,14.2729763 60.1293043,14.1128023 59.720608,13.5730563 C59.2237614,12.9242843 58.5853403,12.9888923 57.2123343,13.8126443 C49.230735,18.5626783 35.8265632,17.8358383 37.5815534,12.7479583 C38.4790826,10.1542162 33.8311634,6.72999221 31.2053561,8.04907223 C30.0139929,8.65208023 30.3559088,9.10164424 32.5917182,9.88770824 C34.4375299,10.5364802 35.0145129,11.1004543 34.095614,11.3925363 C32.6077455,9.75714624 30.150225,10.3951502 29.4049552,11.9618943 C28.985574,12.8219883 27.7140742,14.1397223 26.5494232,14.9109803 C25.7560714,14.3752723 25.4168268,13.8745603 24.4605307,13.8785983 C23.3653314,13.8826363 23.1142369,13.2042523 23.704576,11.8071043 C24.5139551,9.88905424 24.2254635,9.67369424 20.9265094,9.75580024 C14.9029128,9.89713024 6.30960461,4.21028019 9.82225624,2.41067818 C12.1809417,1.20735416 9.62725733,-1.55598386 6.69693122,-0.977203856 C3.49146965,-0.34323785 4.88851665,-3.08100187 8.95143919,-5.4095819 C12.0927915,-7.20649191 12.7899794,-8.14196192 12.1462159,-9.69793794 C11.6707391,-10.8460759 11.9111487,-11.691364 12.7205277,-11.695402 C13.4925097,-11.698094 14.5049013,-12.785662 14.9777069,-14.111472 C15.8458528,-16.554462 19.0379582,-18.022948 22.2514335,-17.46032 C23.875534,-17.179006 24.1399846,-18.01218 24.4471746,-24.3827981 C24.5032702,-25.5632401 23.69122,-25.9576181 21.0787688,-26.0181881 C17.0692706,-26.1177921 13.3188806,-24.8754341 15.55469,-24.1862821 C16.4922875,-23.8995841 16.2545491,-23.2669641 14.8815431,-22.3934101 C14.0881913,-23.5213581 13.826412,-24.1620541 12.9555949,-24.1593621 C12.1569008,-24.1553241 11.4810826,-24.7758301 11.4703977,-25.5336281 C11.4383431,-27.6185821 7.65322725,-27.1851701 6.7236434,-24.9938821 C6.25083782,-23.8578581 4.45577934,-22.7379861 2.25469573,-22.2117 C-2.06733495,-21.165858 -4.04670747,-21.071638 -2.97287784,-21.951922 C-2.55349662,-22.3005361 -2.94082323,-22.7191421 -3.82766759,-22.8618181 C-5.04307177,-23.0650641 -5.07512639,-23.6855701 -3.95855727,-25.3384581 C-2.94082323,-26.8311721 -2.91411105,-27.6710761 -3.88643439,-27.9685421 C-4.6610876,-28.2000541 -4.99231863,-29.0211141 -4.61300568,-29.7694901 C-3.62198381,-31.7386881 -5.00834594,-33.0927641 -8.01613737,-33.0806501 C-9.44523899,-33.0752661 -10.6900266,-33.3108162 -10.7728343,-33.5975142 C-12.2366618,-38.8657582 -11.9775536,-40.1377282 -9.35976001,-40.4930722 C-7.59141371,-40.7393902 -6.62977525,-41.4527702 -6.64580255,-42.5322622 C-6.66984351,-44.1918802 -6.70991178,-44.1945722 -10.9811893,-43.0625862 C-13.7993243,-43.9199882 -14.4377454,-44.6629803 -16.2648585,-45.2942543 C-18.8773096,-46.2041503 -18.9200491,-46.4100883 -17.0261556,-48.7440523 C-15.9229426,-50.1062043 -15.0173997,-51.2960683 -15.0173997,-51.3889423 C-15.0200709,-51.4791243 -16.5667061,-51.3997103 -18.4552572,-51.2126163 C-22.2617428,-50.8290063 -22.2403731,-50.8061243 -20.2476445,-52.9301123 C-19.4436079,-53.7955903 -18.0946428,-54.5157003 -17.2692364,-54.5331983 Z" id="Fill-1-Copy-3" transform="translate(560.008240, -39.500000) scale(1, -1) rotate(-180.000000) translate(-560.008240, 39.500000) "/>
        </g>
    </g>
</svg>