<?xml version="1.0" encoding="UTF-8" standalone="no"?>
<!-- Created with Inkscape (http://www.inkscape.org/) -->

<svg
   xmlns:dc="http://purl.org/dc/elements/1.1/"
   xmlns:cc="http://creativecommons.org/ns#"
   xmlns:rdf="http://www.w3.org/1999/02/22-rdf-syntax-ns#"
   xmlns:svg="http://www.w3.org/2000/svg"
   xmlns="http://www.w3.org/2000/svg"
   xmlns:sodipodi="http://sodipodi.sourceforge.net/DTD/sodipodi-0.dtd"
   xmlns:inkscape="http://www.inkscape.org/namespaces/inkscape"
   width="500"
   height="500"
   id="svg2"
   version="1.1"
   inkscape:version="0.48.4 r9939"
   sodipodi:docname="kds.svg">
  <defs
     id="defs4">
    <clipPath
       clipPathUnits="userSpaceOnUse"
       id="clipPath5593">
      <path
         transform="matrix(0.99294305,0,0,0.99294305,2.0461839,553.25807)"
         d="m 500,251.5 a 250.5,250.5 0 1 1 -501,0 250.5,250.5 0 1 1 501,0 z"
         sodipodi:ry="250.5"
         sodipodi:rx="250.5"
         sodipodi:cy="251.5"
         sodipodi:cx="249.5"
         id="path5595"
         style="fill:#00b09a;fill-opacity:0.67021275;fill-rule:evenodd;stroke:none"
         sodipodi:type="arc" />
    </clipPath>
  </defs>
  <sodipodi:namedview
     id="base"
     pagecolor="#ffffff"
     bordercolor="#666666"
     borderopacity="1.0"
     inkscape:pageopacity="0.0"
     inkscape:pageshadow="2"
     inkscape:zoom="1.4142136"
     inkscape:cx="97.655418"
     inkscape:cy="192.5631"
     inkscape:document-units="px"
     inkscape:current-layer="g5547"
     showgrid="false"
     showguides="true"
     inkscape:guide-bbox="true"
     inkscape:object-nodes="false"
     inkscape:object-paths="false"
     inkscape:window-width="2560"
     inkscape:window-height="1355"
     inkscape:window-x="3352"
     inkscape:window-y="-8"
     inkscape:window-maximized="1"
     inkscape:snap-page="true"
     inkscape:snap-nodes="false">
    <sodipodi:guide
       orientation="0,1"
       position="152.02796,0"
       id="guide3780" />
    <sodipodi:guide
       orientation="0,1"
       position="444.06306,41.7193"
       id="guide3782" />
    <sodipodi:guide
       orientation="0,1"
       position="-74.246212,234.05234"
       id="guide4047" />
    <sodipodi:guide
       orientation="0,1"
       position="-121,178"
       id="guide4096" />
  </sodipodi:namedview>
  <metadata
     id="metadata7">
    <rdf:RDF>
      <cc:Work
         rdf:about="">
        <dc:format>image/svg+xml</dc:format>
        <dc:type
           rdf:resource="http://purl.org/dc/dcmitype/StillImage" />
        <dc:title></dc:title>
      </cc:Work>
    </rdf:RDF>
  </metadata>
  <g
     inkscape:label="Layer 1"
     inkscape:groupmode="layer"
     id="layer1"
     transform="translate(0,-552.36218)">
    <g
       id="g5547"
       clip-path="url(#clipPath5593)">
      <path
         transform="translate(0,552.36218)"
         style="fill:#00b09a;fill-opacity:0.47872338;stroke:none"
         clip-path="none"
         d="m -0.70710677,321.80908 501.33871677,0 0,178.1909 -501.33871677,0 z"
         id="rect4027" />
      <path
         style="fill:#00b09a;fill-opacity:0.19148937;stroke:none"
         clip-path="none"
         d="m -1.0606581,551.73059 501.3387181,0 0,322.44067 -501.3387181,0 z"
         id="rect4027-2" />
      <g
         id="g4098"
         clip-path="none">
        <path
           style="fill:#ffffff;fill-opacity:1;stroke:none"
           d="m 77.60498,610.42047 344.36099,0 0,207.88941 -344.36099,0 z"
           id="rect4049" />
        <path
           transform="translate(0,552.36218)"
           style="fill:#00b09a;fill-opacity:0.67021275;stroke:none"
           d="m 77.60498,58.058292 344.36099,0 0,19.091854 -344.36099,0 z"
           id="rect4051" />
        <path
           style="fill:#00b09a;fill-opacity:0.40425535;stroke:none"
           d="m 77.60498,809.96063 344.36099,0 0,8.34922 -344.36099,0 z"
           id="rect4053" />
        <g
           transform="matrix(0.86194513,0,0,-0.86194513,188.70238,776.65072)"
           inkscape:label="knowit_symbol_black_cmyk"
           id="g4063"
           style="fill:#00b09a;fill-opacity:1">
          <g
             transform="scale(0.24,0.24)"
             id="g4065"
             style="fill:#00b09a;fill-opacity:1">
            <path
               id="path4067"
               style="fill:#00b09a;fill-opacity:1;fill-rule:nonzero;stroke:none"
               d="m 309.07,112.023 c -108.824,0 -197.039,88.219 -197.039,197.043 0,108.821 88.215,197.039 197.039,197.039 108.821,0 197.039,-88.218 197.039,-197.039 0,-108.824 -88.218,-197.043 -197.039,-197.043 z M 508.109,508.105 C 398.18,618.031 219.957,618.031 110.031,508.105 17.7422,415.816 3.04297,275.43 65.7188,167.695 L 65.6406,167.773 1.47656,23.9219 C -1.39453,17.4883 0.00390625,9.96094 4.98438,4.98047 9.96484,0 17.4961,-1.39453 23.9297,1.48047 L 167.781,65.6328 167.707,65.7109 C 275.441,3.04688 415.82,17.7383 508.109,110.027 c 109.926,109.922 109.926,288.149 0,398.078"
               inkscape:connector-curvature="0" />
            <path
               id="path4069"
               style="fill:#00b09a;fill-opacity:1;fill-rule:nonzero;stroke:none"
               d="m 309.07,378.031 c -38.093,0 -68.965,-30.879 -68.965,-68.965 0,-38.082 30.872,-68.964 68.965,-68.964 38.082,0 68.961,30.882 68.961,68.964 0,38.086 -30.879,68.965 -68.961,68.965"
               inkscape:connector-curvature="0" />
          </g>
        </g>
      </g>
      <g
         transform="translate(20,0)"
         id="g4107"
         clip-path="none">
        <path
           transform="matrix(0.56059776,0,0,0.56059776,333.20703,558.41767)"
           d="m 160,331 c 0,22.09139 -17.90861,40 -40,40 -22.09139,0 -40,-17.90861 -40,-40 0,-22.09139 17.90861,-40 40,-40 22.09139,0 40,17.90861 40,40 z"
           sodipodi:ry="40"
           sodipodi:rx="40"
           sodipodi:cy="331"
           sodipodi:cx="120"
           id="path2985-6-16"
           style="fill:#009682;fill-opacity:1;fill-rule:evenodd;stroke:none"
           sodipodi:type="arc" />
        <path
           sodipodi:nodetypes="zssccz"
           inkscape:connector-curvature="0"
           id="path3757-14-9"
           d="m 365.1611,792.18694 c -0.27773,-12.22005 17.1932,-26.17049 34.759,-26.02984 17.89097,0.14326 35.88036,14.58992 35.31573,25.46924 -1.05588,20.34447 -17.93913,82.40776 -17.93913,82.40776 l -33.63587,0 c 0,0 -18.22199,-69.62712 -18.49973,-81.84716 z"
           style="fill:#009682;fill-opacity:1;stroke:none" />
      </g>
      <g
         id="g4013"
         clip-path="none">
        <path
           sodipodi:type="arc"
           style="fill:#00b09a;fill-opacity:1;fill-rule:evenodd;stroke:none"
           id="path2985-8"
           sodipodi:cx="120"
           sodipodi:cy="331"
           sodipodi:rx="40"
           sodipodi:ry="40"
           d="m 160,331 c 0,22.09139 -17.90861,40 -40,40 -22.09139,0 -40,-17.90861 -40,-40 0,-22.09139 17.90861,-40 40,-40 22.09139,0 40,17.90861 40,40 z"
           transform="matrix(0.56059776,0,0,0.56059776,10.732436,695.53241)" />
        <path
           style="fill:#00b09a;fill-opacity:1;stroke:none"
           d="m 42.686508,929.30166 c -0.277733,-12.22 17.193199,-26.1705 34.759,-26.0298 17.89097,0.1432 35.880362,14.5899 35.315722,25.4692 -1.05588,20.3445 -17.939132,82.40784 -17.939132,82.40784 l -33.635864,0 c 0,0 -18.221992,-69.62714 -18.499726,-81.84724 z"
           id="path3757-5"
           inkscape:connector-curvature="0"
           sodipodi:nodetypes="zssccz" />
        <path
           sodipodi:type="arc"
           style="fill:#00b09a;fill-opacity:1;fill-rule:evenodd;stroke:none"
           id="path2985-5-7"
           sodipodi:cx="120"
           sodipodi:cy="331"
           sodipodi:rx="40"
           sodipodi:ry="40"
           d="m 160,331 c 0,22.09139 -17.90861,40 -40,40 -22.09139,0 -40,-17.90861 -40,-40 0,-22.09139 17.90861,-40 40,-40 22.09139,0 40,17.90861 40,40 z"
           transform="matrix(0.56059776,0,0,0.56059776,80.842068,695.25364)" />
        <path
           style="fill:#00b09a;fill-opacity:1;stroke:none"
           d="m 112.79614,929.02296 c -0.27773,-12.2201 17.1932,-26.1705 34.759,-26.0299 17.89097,0.1433 35.88036,14.5899 35.31573,25.4693 -1.05588,20.3444 -17.93913,82.40774 -17.93913,82.40774 l -33.63587,0 c 0,0 -18.22199,-69.62714 -18.49973,-81.84714 z"
           id="path3757-1-6"
           inkscape:connector-curvature="0"
           sodipodi:nodetypes="zssccz" />
        <path
           sodipodi:type="arc"
           style="fill:#00b09a;fill-opacity:1;fill-rule:evenodd;stroke:none"
           id="path2985-6-1"
           sodipodi:cx="120"
           sodipodi:cy="331"
           sodipodi:rx="40"
           sodipodi:ry="40"
           d="m 160,331 c 0,22.09139 -17.90861,40 -40,40 -22.09139,0 -40,-17.90861 -40,-40 0,-22.09139 17.90861,-40 40,-40 22.09139,0 40,17.90861 40,40 z"
           transform="matrix(0.56059776,0,0,0.56059776,150.84564,695.96075)" />
        <path
           style="fill:#00b09a;fill-opacity:1;stroke:none"
           d="m 182.79971,929.73006 c -0.27773,-12.2201 17.1932,-26.1705 34.759,-26.0299 17.89097,0.1433 35.88036,14.5899 35.31573,25.4693 -1.05588,20.3444 -17.93913,82.40774 -17.93913,82.40774 l -33.63587,0 c 0,0 -18.22199,-69.62714 -18.49973,-81.84714 z"
           id="path3757-14-8"
           inkscape:connector-curvature="0"
           sodipodi:nodetypes="zssccz" />
        <path
           sodipodi:type="arc"
           style="fill:#00b09a;fill-opacity:1;fill-rule:evenodd;stroke:none"
           id="path2985-2-9"
           sodipodi:cx="120"
           sodipodi:cy="331"
           sodipodi:rx="40"
           sodipodi:ry="40"
           d="m 160,331 c 0,22.09139 -17.90861,40 -40,40 -22.09139,0 -40,-17.90861 -40,-40 0,-22.09139 17.90861,-40 40,-40 22.09139,0 40,17.90861 40,40 z"
           transform="matrix(0.56059776,0,0,0.56059776,220.14211,695.96075)" />
        <path
           style="fill:#00b09a;fill-opacity:1;stroke:none"
           d="m 252.09618,929.73006 c -0.27773,-12.2201 17.1932,-26.1705 34.759,-26.0299 17.89097,0.1433 35.88036,14.5899 35.31573,25.4693 -1.05588,20.3444 -17.93914,82.40784 -17.93914,82.40784 l -33.63586,0 c 0,0 -18.222,-69.62724 -18.49973,-81.84724 z"
           id="path3757-3-2"
           inkscape:connector-curvature="0"
           sodipodi:nodetypes="zssccz" />
        <path
           sodipodi:type="arc"
           style="fill:#00b09a;fill-opacity:1;fill-rule:evenodd;stroke:none"
           id="path2985-22-7"
           sodipodi:cx="120"
           sodipodi:cy="331"
           sodipodi:rx="40"
           sodipodi:ry="40"
           d="m 160,331 c 0,22.09139 -17.90861,40 -40,40 -22.09139,0 -40,-17.90861 -40,-40 0,-22.09139 17.90861,-40 40,-40 22.09139,0 40,17.90861 40,40 z"
           transform="matrix(0.56059776,0,0,0.56059776,289.43857,695.25364)" />
        <path
           style="fill:#00b09a;fill-opacity:1;stroke:none"
           d="m 321.39265,929.02296 c -0.27774,-12.2201 17.19319,-26.1705 34.75899,-26.0299 17.89097,0.1433 35.88036,14.5899 35.31573,25.4693 -1.05588,20.3444 -17.93913,82.40774 -17.93913,82.40774 l -33.63587,0 c 0,0 -18.22199,-69.62714 -18.49972,-81.84714 z"
           id="path3757-16-9"
           inkscape:connector-curvature="0"
           sodipodi:nodetypes="zssccz" />
        <path
           transform="matrix(0.56059776,0,0,0.56059776,359.3891,694.90015)"
           d="m 160,331 c 0,22.09139 -17.90861,40 -40,40 -22.09139,0 -40,-17.90861 -40,-40 0,-22.09139 17.90861,-40 40,-40 22.09139,0 40,17.90861 40,40 z"
           sodipodi:ry="40"
           sodipodi:rx="40"
           sodipodi:cy="331"
           sodipodi:cx="120"
           id="path2985-22-7-3"
           style="fill:#00b09a;fill-opacity:1;fill-rule:evenodd;stroke:none"
           sodipodi:type="arc" />
        <path
           sodipodi:nodetypes="zssccz"
           inkscape:connector-curvature="0"
           id="path3757-16-9-1"
           d="m 391.34318,928.66947 c -0.27774,-12.2201 17.19319,-26.1705 34.75899,-26.0299 17.89097,0.1433 35.88036,14.5899 35.31573,25.4693 -1.05588,20.3444 -17.93913,82.40773 -17.93913,82.40773 l -33.63587,0 c 0,0 -18.22199,-69.62713 -18.49972,-81.84713 z"
           style="fill:#00b09a;fill-opacity:1;stroke:none" />
      </g>
      <g
         id="g3949"
         clip-path="none">
        <path
           sodipodi:type="arc"
           style="fill:#009682;fill-opacity:1;fill-rule:evenodd;stroke:none"
           id="path2985"
           sodipodi:cx="120"
           sodipodi:cy="331"
           sodipodi:rx="40"
           sodipodi:ry="40"
           d="m 160,331 c 0,22.09139 -17.90861,40 -40,40 -22.09139,0 -40,-17.90861 -40,-40 0,-22.09139 17.90861,-40 40,-40 22.09139,0 40,17.90861 40,40 z"
           transform="matrix(0.56059776,0,0,0.56059776,41.084998,736.89819)" />
        <path
           style="fill:#009682;fill-opacity:1;stroke:none"
           d="m 73.03907,970.66746 c -0.277733,-12.22005 17.193199,-26.17049 34.759,-26.02984 17.89097,0.14326 36.09564,14.32532 36.06572,25.21924 -0.0559,20.34447 0.31087,82.65784 0.31087,82.65784 l -52.635864,0 c 0,0 -18.221992,-69.6272 -18.499726,-81.84724 z"
           id="path3757"
           inkscape:connector-curvature="0"
           sodipodi:nodetypes="zssccz" />
        <path
           sodipodi:type="arc"
           style="fill:#009682;fill-opacity:1;fill-rule:evenodd;stroke:none"
           id="path2985-5"
           sodipodi:cx="120"
           sodipodi:cy="331"
           sodipodi:rx="40"
           sodipodi:ry="40"
           d="m 160,331 c 0,22.09139 -17.90861,40 -40,40 -22.09139,0 -40,-17.90861 -40,-40 0,-22.09139 17.90861,-40 40,-40 22.09139,0 40,17.90861 40,40 z"
           transform="matrix(0.56059776,0,0,0.56059776,111.19463,736.61942)" />
        <path
           style="fill:#009682;fill-opacity:1;stroke:none"
           d="m 143.1487,970.38869 c 0.22226,-13.72004 17.1932,-26.17049 34.759,-26.02984 17.89097,0.14326 36.59565,14.57532 36.56573,25.46924 -0.0559,20.34444 -0.18913,81.40781 -0.18913,81.40781 l -70.63587,2 c 0,0 -0.72199,-69.12717 -0.49973,-82.84721 z"
           id="path3757-1"
           inkscape:connector-curvature="0"
           sodipodi:nodetypes="zssccz" />
        <path
           sodipodi:type="arc"
           style="fill:#009682;fill-opacity:1;fill-rule:evenodd;stroke:none"
           id="path2985-6"
           sodipodi:cx="120"
           sodipodi:cy="331"
           sodipodi:rx="40"
           sodipodi:ry="40"
           d="m 160,331 c 0,22.09139 -17.90861,40 -40,40 -22.09139,0 -40,-17.90861 -40,-40 0,-22.09139 17.90861,-40 40,-40 22.09139,0 40,17.90861 40,40 z"
           transform="matrix(0.56059776,0,0,0.56059776,181.1982,737.32653)" />
        <path
           style="fill:#009682;fill-opacity:1;stroke:none"
           d="m 213.15227,971.0958 c -0.27773,-12.22005 17.1932,-26.17049 34.759,-26.02984 17.89097,0.14326 35.21305,14.57576 35.31573,25.46924 0.19412,20.59447 0.0609,81.4078 0.0609,81.4078 l -69.63587,1 c 0,0 -0.22199,-69.62716 -0.49973,-81.8472 z"
           id="path3757-14"
           inkscape:connector-curvature="0"
           sodipodi:nodetypes="csscczc" />
        <path
           sodipodi:type="arc"
           style="fill:#009682;fill-opacity:1;fill-rule:evenodd;stroke:none"
           id="path2985-2"
           sodipodi:cx="120"
           sodipodi:cy="331"
           sodipodi:rx="40"
           sodipodi:ry="40"
           d="m 160,331 c 0,22.09139 -17.90861,40 -40,40 -22.09139,0 -40,-17.90861 -40,-40 0,-22.09139 17.90861,-40 40,-40 22.09139,0 40,17.90861 40,40 z"
           transform="matrix(0.56059776,0,0,0.56059776,250.49467,737.32653)" />
        <path
           style="fill:#009682;fill-opacity:1;stroke:none"
           d="m 282.44874,971.0958 c -0.27773,-12.22005 17.1932,-26.17049 34.759,-26.02984 17.89097,0.14326 35.21179,14.57577 35.31573,25.46924 0.19412,20.34446 0.0609,82.4079 0.0609,82.4079 l -70.63586,0 c 0,0 0.528,-69.62726 0.50027,-81.8473 -0.0277,-12.22004 -4e-5,0 -4e-5,0 z"
           id="path3757-3"
           inkscape:connector-curvature="0"
           sodipodi:nodetypes="csscczc" />
        <path
           sodipodi:type="arc"
           style="fill:#009682;fill-opacity:1;fill-rule:evenodd;stroke:none"
           id="path2985-22"
           sodipodi:cx="120"
           sodipodi:cy="331"
           sodipodi:rx="40"
           sodipodi:ry="40"
           d="m 160,331 c 0,22.09139 -17.90861,40 -40,40 -22.09139,0 -40,-17.90861 -40,-40 0,-22.09139 17.90861,-40 40,-40 22.09139,0 40,17.90861 40,40 z"
           transform="matrix(0.56059776,0,0,0.56059776,319.79113,736.61942)" />
        <path
           style="fill:#009682;fill-opacity:1;stroke:none"
           d="m 351.74521,970.38869 c -0.0277,-12.72009 17.19319,-26.17049 34.75899,-26.02984 17.89097,0.14326 35.88036,14.58992 35.31573,25.46924 -1.05588,20.34449 -17.93913,82.40781 -17.93913,82.40781 l -52.13587,2 c 0,0 0.028,-71.12712 2.8e-4,-83.84721 z"
           id="path3757-16"
           inkscape:connector-curvature="0"
           sodipodi:nodetypes="zssccz" />
      </g>
    </g>
  </g>
</svg>
