<?xml version="1.0" encoding="utf-8"?>
<!-- Generator: Adobe Illustrator 22.0.1, SVG Export Plug-In . SVG Version: 6.00 Build 0)  -->
<svg version="1.1" id="Layer_1" xmlns="http://www.w3.org/2000/svg" xmlns:xlink="http://www.w3.org/1999/xlink" x="0px" y="0px"
	 width="226.8px" height="179.3px" viewBox="0 0 226.8 179.3" enable-background="new 0 0 226.8 179.3" xml:space="preserve">
<g>
	<g>
		<path d="M28.7,9.5h-3.9c-1.2,0-1.4,0.2-2.8,1.6C21.3,11.8,9.4,23.8,9.4,23.8V3.9c0-0.7-0.4-1-1-1h-6c-0.7,0-1,0.4-1,1v2.7
			c0,0.7,0.4,1,1,1h2.2v24.6H2.4c-0.7,0-1,0.4-1,1v2.7c0,0.7,0.4,1,1,1h9.2c0.7,0,1-0.4,1-1v-2.7c0-0.7-0.4-1-1-1H9.4v-2l4.7-4.8
			l8.3,10.2c1.1,1.4,1.1,1.4,2.7,1.4h3.6c0.7,0,1-0.4,1-1v-2.7c0-0.7-0.4-1-1-1h-3L17.5,22l7.6-7.7h3.7c0.7,0,1-0.3,1-1v-2.7
			C29.8,9.9,29.4,9.5,28.7,9.5"/>
		<path d="M61.2,32.2H59V20.4C59,13.5,54.6,9,47.8,9c-3.1,0-5.8,1-7.8,2.9v-1.2c0-0.7-0.4-1-1-1H33c-0.7,0-1,0.4-1,1v2.7
			c0,0.7,0.4,1,1,1h2.2v17.9H33c-0.7,0-1,0.4-1,1v2.7c0,0.7,0.4,1,1,1h9.2c0.7,0,1-0.4,1-1v-2.7c0-0.7-0.4-1-1-1H40V21.3
			c0-4.5,3.1-7.7,7.5-7.7c4.2,0,6.7,2.7,6.7,7.3v11.3H52c-0.7,0-1,0.4-1,1v2.7c0,0.7,0.4,1,1,1h9.2c0.7,0,1-0.4,1-1v-2.7
			C62.2,32.5,61.9,32.2,61.2,32.2"/>
		<path d="M76.1,9c-7.9,0-14,6.3-14,14.3c0,7.9,6.1,14.2,13.9,14.2c7.9,0,14.1-6.3,14.1-14.3C90.1,15.2,83.9,9,76.1,9 M76.1,32.8
			c-5,0-9-4.2-9-9.6c0-5.4,3.8-9.5,8.9-9.5c5.1,0,9.1,4.2,9.1,9.6C85.1,28.7,81.2,32.8,76.1,32.8"/>
		<path d="M130.8,9.5h-9.4c-0.7,0-1,0.4-1,1v2.7c0,0.7,0.4,1,1,1h2.1L119,28.8l-6.4-18.5c-0.2-0.5-0.6-0.8-1.2-0.8h-1.9
			c-0.5,0-1,0.3-1.2,0.8l-6.3,18.5l-4.5-14.5h2.1c0.7,0,1-0.4,1-1v-2.7c0-0.7-0.4-1-1-1h-9.5c-0.7,0-1,0.4-1,1v2.7c0,0.7,0.4,1,1,1
			h2.2l7.5,21.9c0.2,0.5,0.6,0.8,1.1,0.8h2c0.5,0,1-0.3,1.2-0.8l6.2-18l6.2,18c0.2,0.5,0.6,0.8,1.2,0.8h2c0.5,0,1-0.3,1.1-0.8
			l7.5-21.9h2.2c0.7,0,1-0.4,1-1v-2.7C131.8,9.9,131.5,9.5,130.8,9.5"/>
		<path d="M144.1,32.2h-2.2V10.6c0-0.7-0.4-1-1-1h-6c-0.7,0-1,0.4-1,1v2.7c0,0.7,0.4,1,1,1h2.2v17.9h-4c-0.7,0-1,0.4-1,1v2.7
			c0,0.7,0.4,1,1,1h11c0.7,0,1-0.4,1-1v-2.7C145.2,32.5,144.8,32.2,144.1,32.2"/>
		<path d="M165.4,23h-2.6c-0.7,0-1,0.4-1,1v5.1c0,1.7-1.2,3.5-3.3,3.5c-2.6,0-3.7-1.1-3.7-3.6V14.3h6.4c0.7,0,1-0.4,1-1v-2.7
			c0-0.7-0.4-1-1-1h-6.4V3.9c0-0.7-0.4-1-1-1h-2.8c-0.7,0-1,0.4-1,1v5.7H147c-0.7,0-1,0.4-1,1v2.7c0,0.7,0.4,1,1,1h2.9v15
			c0,4.9,3.2,8.1,8.2,8.1c5.1,0,8.4-3.1,8.4-7.8V24C166.5,23.4,166.1,23,165.4,23"/>
		<path d="M139.5,6.1c1.7,0,3-1.4,3-3c0-1.7-1.4-3-3-3c-1.7,0-3,1.4-3,3C136.4,4.7,137.8,6.1,139.5,6.1"/>
	</g>
	<path fill="#3D8474" d="M26.3,86.5v-2.2v-0.4h-0.4c-0.3,0-0.6-0.1-0.6-0.8V50.4V50h-0.4h-2.5H22v0.4v14.7c-0.3-0.5-0.7-0.9-1.1-1.3
		c-0.7-0.7-1.5-1.4-2.4-2c-0.9-0.6-1.8-1-2.9-1.3c-1-0.3-2.1-0.5-3.3-0.5c-1.8,0-3.4,0.4-4.9,1.1c-1.5,0.7-2.8,1.8-3.9,3
		c-1.1,1.2-1.9,2.7-2.5,4.4c-0.6,1.7-0.9,3.4-0.9,5.2c0,1.8,0.3,3.5,0.9,5.1c0.6,1.6,1.5,3.1,2.6,4.4c1.1,1.3,2.5,2.3,4,3.1
		c1.6,0.8,3.3,1.2,5.1,1.2c2,0,3.9-0.5,5.7-1.6c1.4-0.8,2.7-1.9,3.6-3.2v1.6c0,0.7,0.3,1.3,0.8,1.9c0.5,0.6,1.2,0.9,2,0.9
		c0.1,0,0.3,0,0.4,0c0.1,0,0.3,0,0.5-0.1l0.3-0.1V86.5z M22,69.5v8.4c-0.1,0.8-0.4,1.7-1,2.4c-0.6,0.8-1.3,1.5-2.2,2.1
		C18,83,17,83.5,16,83.9c-1,0.3-1.9,0.5-2.7,0.5c-1.4,0-2.7-0.3-3.9-0.9c-1.2-0.6-2.2-1.4-3.1-2.3c-0.9-1-1.6-2.1-2.1-3.4
		c-0.5-1.3-0.8-2.6-0.8-4.1c0-1.4,0.2-2.7,0.7-4c0.4-1.3,1.1-2.4,1.9-3.4c0.8-1,1.8-1.8,3-2.4c1.2-0.6,2.5-0.9,3.9-0.9
		c0.9,0,1.8,0.2,2.7,0.5c0.9,0.3,1.8,0.8,2.7,1.4c0.8,0.6,1.6,1.3,2.2,2.1C21.1,67.8,21.6,68.6,22,69.5"/>
	<path fill="#3D8474" d="M51.8,79.7l-0.3-0.1l-0.1,0.3c-0.3,0.7-0.7,1.3-1.3,1.9c-0.5,0.6-1.2,1.1-1.9,1.5c-0.7,0.4-1.5,0.7-2.3,1
		c-0.8,0.2-1.7,0.4-2.5,0.4c-1.3,0-2.5-0.3-3.6-0.8c-1.1-0.5-2.1-1.2-3-2.1c-0.9-0.9-1.6-2-2.2-3.2c-0.5-1.1-0.8-2.3-1-3.6h22.1h0.2
		l0.1-0.2c0.1-0.1,0.1-0.3,0.1-0.6v-0.6c0-1.8-0.3-3.6-1-5.2c-0.6-1.6-1.5-3.1-2.7-4.3c-1.1-1.2-2.5-2.2-4.1-3
		C46.7,60.3,45,60,43.1,60c-1.8,0-3.6,0.4-5.1,1.1c-1.6,0.7-3,1.7-4.1,2.9c-1.1,1.2-2.1,2.7-2.7,4.3c-0.7,1.6-1,3.4-1,5.3
		c0,1.9,0.3,3.7,1,5.3c0.7,1.6,1.6,3.1,2.7,4.4c1.2,1.3,2.6,2.3,4.2,3c1.6,0.7,3.3,1.1,5.2,1.1c1.2,0,2.4-0.2,3.6-0.5
		c1.1-0.3,2.2-0.8,3.2-1.4c1-0.6,1.8-1.3,2.6-2.1c0.7-0.8,1.3-1.7,1.7-2.7l0.2-0.4L54,80.3L51.8,79.7z M52.9,72.3H33.5
		c0.1-1.3,0.4-2.5,0.9-3.6c0.5-1.2,1.2-2.3,2.1-3.1c0.9-0.9,1.9-1.5,3-2c1.1-0.5,2.4-0.7,3.6-0.7c1.3,0,2.5,0.2,3.6,0.7
		c1.1,0.5,2.2,1.2,3,2c0.9,0.9,1.6,1.9,2.1,3.1C52.4,69.8,52.8,71,52.9,72.3"/>
	<polygon fill="#3D8474" points="67.9,86.7 68,86.9 68.2,86.9 70.8,86.9 71.1,86.9 71.2,86.7 81.9,61 82.1,60.4 81.5,60.4 
		79.1,60.4 78.9,60.4 78.7,60.7 69.6,83 60.5,60.7 60.4,60.4 60.1,60.4 57.5,60.4 56.9,60.4 57.2,61 	"/>
	<path fill="#3D8474" d="M103.1,85.6c1-0.6,1.8-1.3,2.6-2.1c0.7-0.8,1.3-1.7,1.7-2.7l0.2-0.4l-0.4-0.1l-2.2-0.6l-0.3-0.1l-0.1,0.3
		c-0.3,0.7-0.7,1.3-1.3,1.9c-0.5,0.6-1.2,1.1-1.9,1.5c-0.7,0.4-1.5,0.7-2.3,1c-0.8,0.2-1.7,0.4-2.5,0.4c-1.3,0-2.5-0.3-3.6-0.8
		c-1.1-0.5-2.1-1.2-3-2.1s-1.6-2-2.2-3.2c-0.5-1.1-0.8-2.3-1-3.6h22.1h0.2l0.1-0.2c0.1-0.1,0.1-0.3,0.1-0.6v-0.6
		c0-1.8-0.3-3.6-1-5.2c-0.6-1.6-1.5-3.1-2.7-4.3c-1.2-1.2-2.5-2.2-4.1-3c-1.6-0.7-3.3-1.1-5.2-1.1c-1.8,0-3.6,0.4-5.1,1.1
		c-1.6,0.7-3,1.7-4.1,2.9c-1.1,1.2-2.1,2.7-2.7,4.3c-0.7,1.6-1,3.4-1,5.3c0,1.9,0.3,3.7,1,5.3c0.7,1.7,1.6,3.1,2.7,4.4
		c1.2,1.3,2.6,2.3,4.1,3c1.6,0.7,3.3,1.1,5.2,1.1c1.2,0,2.4-0.2,3.6-0.5C101.1,86.6,102.1,86.1,103.1,85.6 M106,72.3H86.6
		c0.1-1.3,0.4-2.5,0.9-3.6c0.5-1.2,1.2-2.3,2.1-3.1c0.9-0.9,1.9-1.5,3-2c1.1-0.5,2.4-0.7,3.6-0.7c1.3,0,2.5,0.2,3.6,0.7
		c1.1,0.5,2.1,1.2,3,2c0.9,0.9,1.6,1.9,2.1,3.1C105.6,69.8,105.9,71,106,72.3"/>
	<path fill="#3D8474" d="M119.3,87.2c0.6,0,1.3-0.1,2.2-0.2c0.8-0.2,1.6-0.4,2.2-0.6l0.3-0.1l-0.1-0.3l-0.5-2l-0.1-0.4l-0.4,0.2
		c-0.4,0.2-0.8,0.3-1.3,0.4c-0.5,0.1-0.9,0.1-1.2,0.1c-0.8,0-1.5-0.2-2-0.7c-0.5-0.5-0.7-1.1-0.7-2v-31V50h-0.4h-2.5h-0.4v0.4v31.7
		c0,1.5,0.5,2.7,1.4,3.7C116.6,86.7,117.8,87.2,119.3,87.2"/>
	<path fill="#3D8474" d="M146.8,64.1c-1.2-1.2-2.5-2.2-4.1-3c-1.6-0.7-3.3-1.1-5.1-1.1c-1.8,0-3.6,0.4-5.1,1.1c-1.6,0.7-3,1.7-4.1,3
		c-1.1,1.3-2.1,2.7-2.7,4.4c-0.7,1.7-1,3.4-1,5.3c0,1.8,0.3,3.6,1,5.2c0.6,1.6,1.5,3.1,2.7,4.4c1.1,1.3,2.5,2.3,4.1,3
		c1.6,0.7,3.3,1.1,5.2,1.1c1.8,0,3.6-0.4,5.1-1.1c1.6-0.7,3-1.7,4.1-3c1.2-1.3,2.1-2.7,2.7-4.4c0.7-1.7,1-3.4,1-5.2
		c0-1.9-0.3-3.6-1-5.3C148.9,66.8,148,65.3,146.8,64.1 M137.6,63c1.3,0,2.6,0.3,3.7,0.8c1.2,0.6,2.2,1.3,3.1,2.3
		c0.9,1,1.6,2.1,2.1,3.4c0.5,1.3,0.8,2.7,0.8,4.1c0,1.5-0.3,2.9-0.8,4.2c-0.5,1.3-1.2,2.4-2.1,3.4c-0.9,1-1.9,1.8-3.1,2.3
		c-1.2,0.5-2.4,0.8-3.7,0.8c-1.3,0-2.6-0.3-3.7-0.8c-1.2-0.6-2.2-1.3-3.1-2.3c-0.9-0.9-1.6-2.1-2.1-3.4c-0.5-1.3-0.8-2.7-0.8-4.1
		c0-1.5,0.3-2.9,0.8-4.2c0.5-1.3,1.2-2.5,2.1-3.5c0.9-1,1.9-1.8,3.1-2.3C135.1,63.3,136.3,63,137.6,63"/>
	<path fill="#3D8474" d="M176.4,64.2c-1.1-1.3-2.5-2.3-4-3.1c-1.6-0.8-3.3-1.2-5.1-1.2c-2,0-4,0.5-5.8,1.6c-1.4,0.8-2.6,1.9-3.6,3.1
		v-3.9v-0.4h-0.4h-2.3h-0.4v0.4V94v0.4h0.4h2.5h0.4V94V82.2c1,1.3,2.2,2.4,3.6,3.3c1.8,1.2,3.8,1.8,6.1,1.8c1.8,0,3.5-0.4,5-1.1
		c1.5-0.7,2.8-1.7,3.9-3c1.1-1.3,1.9-2.7,2.5-4.4c0.6-1.7,0.9-3.4,0.9-5.2c0-1.7-0.3-3.4-0.9-5.1C178.4,67,177.5,65.5,176.4,64.2
		 M176.7,73.7c0,1.3-0.2,2.7-0.7,3.9c-0.4,1.3-1.1,2.4-1.9,3.4c-0.8,1-1.8,1.8-3,2.4c-1.2,0.6-2.5,0.9-3.9,0.9c-1,0-1.9-0.2-2.8-0.5
		c-0.9-0.3-1.8-0.8-2.6-1.4c-0.8-0.6-1.5-1.3-2.2-2.1c-0.6-0.8-1.1-1.6-1.5-2.5v-8.4c0.1-0.8,0.4-1.6,1-2.4c0.6-0.8,1.3-1.5,2.2-2.1
		c0.9-0.6,1.8-1.1,2.7-1.5c1-0.4,1.9-0.5,2.7-0.5c1.3,0,2.6,0.3,3.8,0.9c1.2,0.6,2.3,1.4,3.2,2.4c0.9,1,1.6,2.1,2.1,3.4
		C176.4,70.9,176.7,72.3,176.7,73.7"/>
	<path fill="#3D8474" d="M205.9,64c-1.2-1.2-2.5-2.2-4.1-3c-1.6-0.7-3.3-1.1-5.2-1.1c-1.8,0-3.6,0.4-5.1,1.1c-1.6,0.7-3,1.7-4.1,2.9
		c-1.1,1.2-2.1,2.7-2.7,4.3c-0.7,1.6-1,3.4-1,5.3c0,1.9,0.3,3.7,1,5.3c0.7,1.6,1.6,3.1,2.7,4.4c1.2,1.3,2.6,2.3,4.1,3
		c1.6,0.7,3.3,1.1,5.2,1.1c1.2,0,2.4-0.2,3.6-0.5c1.1-0.3,2.2-0.8,3.2-1.4c1-0.6,1.8-1.3,2.6-2.1c0.7-0.8,1.3-1.7,1.7-2.7l0.2-0.4
		l-0.4-0.1l-2.2-0.6l-0.3-0.1l-0.1,0.3c-0.3,0.7-0.7,1.3-1.3,1.9c-0.5,0.6-1.2,1.1-1.9,1.5c-0.7,0.4-1.5,0.7-2.3,1
		c-0.8,0.2-1.7,0.4-2.5,0.4c-1.3,0-2.5-0.3-3.6-0.8c-1.1-0.5-2.1-1.2-3-2.1c-0.9-0.9-1.6-2-2.2-3.2c-0.5-1.1-0.8-2.3-1-3.6h22.1h0.2
		l0.1-0.2c0-0.1,0.1-0.2,0.1-0.6v-0.6c0-1.8-0.3-3.6-1-5.2C207.9,66.7,207,65.3,205.9,64 M206.4,72.3H187c0.1-1.3,0.4-2.5,0.9-3.6
		c0.5-1.2,1.2-2.3,2.1-3.1c0.9-0.9,1.9-1.5,3-2c1.1-0.5,2.4-0.7,3.6-0.7c1.3,0,2.5,0.2,3.6,0.7c1.1,0.5,2.1,1.2,3,2
		c0.9,0.9,1.6,1.9,2.1,3.1C205.9,69.8,206.2,71,206.4,72.3"/>
	<path fill="#3D8474" d="M226.4,60.3h-0.6c-0.3,0-0.6,0-0.9,0c-1.8,0.2-3.4,0.9-4.9,2c-1.1,0.9-2.1,2-2.9,3.2v-4.8v-0.4h-0.4h-2.4
		h-0.4v0.4v25.7v0.4h0.4h2.5h0.4v-0.4v-16c0.7-2.2,1.8-3.9,3.5-5.1c1.7-1.2,3.6-1.9,5.8-2l0.4,0V63v-2.3v-0.4H226.4z"/>
	<path fill="#3D8474" d="M18.4,121.5c-0.9-0.5-2-1-3.2-1.4c-1.3-0.4-2.7-0.8-4.3-1.1c-1.2-0.3-2.2-0.6-3-0.8c-0.8-0.2-1.5-0.5-2-0.8
		c-0.5-0.3-0.8-0.6-1-1c-0.2-0.4-0.3-1-0.3-1.6c0-0.9,0.2-1.6,0.5-2.2c0.3-0.6,0.8-1.1,1.4-1.5c0.6-0.4,1.3-0.7,2.1-0.9
		c0.8-0.2,1.7-0.3,2.6-0.3c1.5,0,2.9,0.2,4.2,0.7c1.3,0.5,2.4,1.2,3.2,2.1l0.3,0.3l0.3-0.3l1.4-1.3l0.3-0.3l-0.2-0.3
		c-0.9-1.1-2.2-2-3.8-2.7c-1.6-0.7-3.4-1-5.5-1c-1.3,0-2.6,0.2-3.7,0.5c-1.2,0.3-2.2,0.8-3.1,1.5c-0.9,0.7-1.7,1.5-2.2,2.5
		c-0.5,1-0.8,2.2-0.8,3.5c0,1.1,0.2,2,0.6,2.7c0.4,0.7,0.9,1.3,1.7,1.8c0.7,0.5,1.6,0.9,2.7,1.2c1.1,0.3,2.4,0.7,3.8,1
		c1.3,0.3,2.5,0.6,3.5,0.9c1,0.3,1.8,0.6,2.5,1c0.6,0.3,1.1,0.8,1.4,1.3c0.3,0.5,0.5,1.1,0.5,1.8c0,1.6-0.6,2.7-1.9,3.6
		c-1.3,0.9-3,1.3-5.2,1.3c-1.7,0-3.3-0.3-4.7-0.9c-1.4-0.6-2.8-1.5-4.2-2.7l-0.3-0.3l-0.3,0.3l-1.2,1.7L0,130.2l0.2,0.2
		c1.4,1.4,3,2.4,4.9,3.1c1.8,0.7,3.8,1,5.8,1c3.1,0,5.6-0.7,7.4-2.1c1.9-1.4,2.8-3.4,2.8-5.8c0-1.2-0.2-2.2-0.7-3
		C20,122.8,19.3,122.1,18.4,121.5"/>
	<path fill="#3D8474" d="M48.2,130.1v-22.2v-0.4h-0.4h-2.5h-0.4v0.4V124c-0.4,1.1-0.9,2.1-1.5,3c-0.6,0.9-1.4,1.7-2.3,2.4
		c-0.9,0.7-1.8,1.2-2.8,1.5c-1,0.4-2,0.5-3,0.5c-4.1,0-6.1-3-6.1-9.1v-14.5v-0.4h-0.4h-2.5H26v0.4v14.8c0,7.8,2.9,11.8,8.6,11.8
		c2.3,0,4.5-0.6,6.5-1.8c1.6-0.9,3-2.2,4-3.8v2.5c0,0.8,0.3,1.5,0.9,2c0.6,0.5,1.3,0.7,2,0.7h0.3c0.2,0,0.3,0,0.5-0.1l0.3-0.1v-0.3
		v-2.2V131h-0.4C48.5,131,48.2,130.9,48.2,130.1"/>
	<path fill="#3D8474" d="M84.8,107c-4.1,0-7.4,2.1-9.9,6.2c-0.4-1.7-1.2-3.1-2.3-4.2c-1.4-1.4-3.3-2-5.6-2c-2.1,0-4.1,0.6-5.9,1.8
		c-1.4,0.9-2.6,2.2-3.5,3.7v-4.6v-0.4h-0.4h-2.3h-0.4v0.4v25.7v0.4h0.4h2.5h0.4v-0.4v-15.9c0.3-1.1,0.8-2.2,1.3-3.1
		c0.6-0.9,1.3-1.8,2-2.4c0.8-0.7,1.6-1.2,2.5-1.6c0.9-0.4,1.8-0.5,2.8-0.5c2,0,3.3,0.7,4.3,2.1c0.9,1.5,1.4,3.8,1.4,7v14.3v0.4h0.4
		H75h0.4v-0.4v-15.8c0.3-1.1,0.8-2.2,1.3-3.1c0.6-0.9,1.2-1.7,2-2.4c0.8-0.7,1.6-1.2,2.5-1.6c0.9-0.4,1.9-0.6,2.9-0.6
		c1.9,0,3.4,0.7,4.3,2.1c1,1.5,1.4,3.8,1.4,7v14.3v0.4h0.4h2.5H93v-0.4v-14.8c0-3.6-0.6-6.5-1.9-8.6C89.9,108.1,87.7,107,84.8,107"
		/>
	<path fill="#3D8474" d="M129,107c-4.1,0-7.4,2.1-9.9,6.2c-0.4-1.7-1.2-3.1-2.3-4.2c-1.4-1.4-3.3-2-5.6-2c-2.1,0-4.1,0.6-5.9,1.8
		c-1.4,0.9-2.6,2.2-3.5,3.7v-4.6v-0.4h-0.4h-2.3h-0.4v0.4v25.7v0.4h0.4h2.5h0.4v-0.4v-15.9c0.3-1.1,0.8-2.2,1.3-3.1
		c0.6-0.9,1.3-1.8,2-2.4c0.8-0.7,1.6-1.2,2.5-1.6c0.9-0.4,1.8-0.5,2.8-0.5c2,0,3.3,0.7,4.3,2.1c0.9,1.5,1.4,3.8,1.4,7v14.3v0.4h0.4
		h2.5h0.4v-0.4v-15.8c0.3-1.1,0.8-2.2,1.3-3.1c0.6-0.9,1.2-1.7,2-2.4c0.8-0.7,1.6-1.2,2.5-1.6c0.9-0.4,1.9-0.6,2.9-0.6
		c1.9,0,3.4,0.7,4.3,2.1c1,1.5,1.4,3.8,1.4,7v14.3v0.4h0.4h2.5h0.4v-0.4v-14.8c0-3.6-0.6-6.5-1.9-8.6C134.1,108.1,131.9,107,129,107
		"/>
	<polygon fill="#3D8474" points="143.8,107.9 143.4,107.9 143.4,108.3 143.4,133.6 143.4,134 143.8,134 146.3,134 146.7,134 
		146.7,133.6 146.7,108.3 146.7,107.9 146.3,107.9 	"/>
	<polygon fill="#3D8474" points="143.8,101.8 143.4,101.8 143.4,102.2 143.4,105 143.4,105.4 143.8,105.4 146.3,105.4 146.7,105.4 
		146.7,105 146.7,102.2 146.7,101.8 146.3,101.8 	"/>
	<path fill="#3D8474" d="M165.3,130.2l-0.2-0.4l-0.4,0.2c-0.2,0.1-0.6,0.3-1.3,0.6c-0.7,0.3-1.5,0.5-2.5,0.5c-0.7,0-1.4-0.2-2-0.6
		c-0.6-0.4-0.8-1-0.8-1.8v-18h5.6h0.4v-0.4v-2v-0.4h-0.4h-5.6v-5.7v-0.4h-0.4h-2.5h-0.4v0.4v5.7h-3.2h-0.4v0.4v2v0.4h0.4h3.2v18.6
		c0,0.8,0.1,1.5,0.4,2.1c0.3,0.6,0.7,1.1,1.2,1.6c0.5,0.4,1.1,0.8,1.7,1c0.6,0.2,1.3,0.3,2.1,0.3c0.7,0,1.4-0.1,2-0.2
		c0.6-0.1,1.2-0.3,1.6-0.5c0.5-0.2,0.9-0.4,1.3-0.6c0.3-0.2,0.5-0.3,0.6-0.4l0.3-0.2l-0.1-0.3L165.3,130.2z"/>
	<g>
		<path fill="#3D8474" d="M63.4,150.1c-0.6,0.5-1.3,1.1-2.1,1.7c-0.8,0.6-1.7,1.1-2.7,1.6c-0.9,0.4-1.7,0.6-2.5,0.7v3
			c0.6,0,1.2-0.2,2-0.4c0.8-0.3,1.6-0.6,2.4-1c0.8-0.4,1.5-0.9,2.2-1.3c0.6-0.5,1.7-1.6,1.7-1.6l0.1-0.1v22.6h-7.3v2.8H74v-2.8h-6.4
			v-26h-3.2C64.2,149.4,63.9,149.7,63.4,150.1z"/>
		<path fill="#3D8474" d="M22.9,177.9V175H4.8v-0.1c0-1.1,0.3-2.1,0.8-3c0.5-0.9,1.2-1.7,2-2.4c0.8-0.7,1.8-1.4,2.8-2
			c1-0.6,2.1-1.1,3.2-1.6c0.8-0.4,1.7-0.8,2.7-1.3c1-0.5,2-1.2,2.8-1.9c0.9-0.7,1.6-1.6,2.2-2.6c0.6-1,0.9-2.2,0.9-3.5
			c0-1-0.2-2-0.7-3c-0.4-0.9-1.1-1.8-1.9-2.5c-0.8-0.7-1.9-1.3-3.1-1.7c-1.2-0.4-2.6-0.6-4.1-0.6c-1.5,0-2.9,0.2-4.2,0.6
			c-1.2,0.4-2.3,0.9-3.3,1.4c-0.9,0.5-1.7,1.1-2.2,1.6c-0.5,0.5-0.9,0.8-1.1,1l2.1,2.3c0.2-0.3,0.6-0.6,1-1.1c0.5-0.5,1.1-1,1.7-1.4
			c0.7-0.4,1.5-0.8,2.3-1.2c0.9-0.3,1.9-0.5,3-0.5c1.1,0,2.1,0.2,3,0.5c0.8,0.3,1.6,0.7,2.1,1.2c0.6,0.5,1,1.1,1.3,1.7
			c0.3,0.6,0.4,1.3,0.4,2c0,1-0.3,2-0.9,2.7c-0.6,0.8-1.3,1.5-2.2,2.1c-0.9,0.6-1.9,1.2-3,1.7c-1.1,0.5-2.1,1-3.1,1.5
			c-1.8,0.9-3.3,1.9-4.4,3c-1.1,1.1-1.9,2.2-2.5,3.3c-0.6,1.1-1,2.3-1.2,3.4c-0.2,1.1-0.3,2.2-0.3,3.3H22.9z"/>
		<path fill="#3D8474" d="M48.6,153.1c-1.1-1.4-2.5-2.4-4-3.2c-1.5-0.8-3.2-1.2-5-1.2c-1.8,0-3.5,0.4-5,1.2c-1.5,0.8-2.9,1.8-4,3.2
			c-1.1,1.4-2,3-2.6,4.8c-0.6,1.9-1,3.9-1,6.1c0,2.2,0.3,4.3,1,6.1c0.6,1.9,1.5,3.5,2.6,4.8c1.1,1.3,2.5,2.4,4,3.2
			c1.5,0.7,3.2,1.1,5,1.1c1.8,0,3.5-0.4,5-1.1c1.5-0.7,2.9-1.8,4-3.2c1.1-1.4,2-3,2.6-4.8c0.6-1.9,1-3.9,1-6.1c0-2.2-0.3-4.3-1-6.1
			C50.6,156.1,49.7,154.5,48.6,153.1 M48.2,169.1c-0.5,1.5-1.1,2.8-1.9,3.9c-0.8,1.1-1.8,1.9-3,2.5c-1.1,0.6-2.4,0.9-3.8,0.9
			c-1.4,0-2.7-0.3-3.8-0.9c-1.1-0.6-2.1-1.4-3-2.5c-0.8-1.1-1.5-2.4-1.9-3.9c-0.5-1.5-0.7-3.2-0.7-5c0-1.8,0.2-3.5,0.7-5
			c0.5-1.5,1.1-2.8,1.9-3.9c0.8-1.1,1.8-1.9,3-2.5c1.1-0.6,2.4-0.9,3.8-0.9c1.4,0,2.6,0.3,3.8,0.9c1.1,0.6,2.1,1.5,3,2.5
			c0.8,1.1,1.5,2.4,1.9,3.9c0.5,1.5,0.7,3.2,0.7,5C48.9,165.9,48.7,167.6,48.2,169.1"/>
		<path fill="#3D8474" d="M78.9,173.7c0.5,1.1,1.3,2.1,2.2,2.9c0.9,0.8,2.1,1.5,3.4,2c1.3,0.5,2.8,0.7,4.3,0.7
			c1.4,0,2.9-0.2,4.2-0.6c1.3-0.4,2.5-1,3.5-1.8c1-0.8,1.8-1.7,2.4-2.8c0.6-1.1,0.9-2.3,0.9-3.7c0-1-0.2-1.9-0.5-2.8
			c-0.3-0.8-0.8-1.6-1.4-2.3c-0.6-0.7-1.2-1.3-2-1.8c-0.2-0.2-0.5-0.3-0.8-0.4c-0.1-0.1-0.3-0.1-0.4-0.2c0,0-0.1,0-0.1-0.1
			c-0.1-0.1-0.2-0.1-0.4-0.2c-0.2-0.1-0.4-0.2-0.6-0.3l-0.2-0.1l0.2-0.1c0.7-0.3,1.3-0.6,1.8-1c0.6-0.4,1.2-0.9,1.7-1.5
			c0.5-0.6,0.9-1.2,1.1-1.9c0.3-0.7,0.4-1.4,0.4-2.1c0-1.3-0.3-2.4-0.9-3.4c-0.6-1-1.3-1.8-2.3-2.5c-0.9-0.7-2-1.2-3.1-1.5
			c-1.2-0.4-2.3-0.5-3.5-0.5c-1.2,0-2.3,0.2-3.5,0.5c-1.1,0.3-2.2,0.9-3.1,1.5c-0.9,0.7-1.7,1.5-2.3,2.5c-0.6,1-0.9,2.1-0.9,3.4
			c0,0.8,0.1,1.5,0.4,2.1c0.3,0.7,0.7,1.3,1.1,1.8c0.5,0.6,1,1,1.6,1.5c0.6,0.4,1.2,0.7,1.8,1l0.2,0.1l-0.2,0.1
			c-0.7,0.3-1.4,0.6-2.1,1.1c-0.7,0.5-1.4,1.1-2,1.7c-0.6,0.6-1.1,1.4-1.4,2.3c-0.4,0.8-0.5,1.8-0.5,2.8
			C78.1,171.4,78.4,172.6,78.9,173.7z M82.8,158.2c-0.4-0.7-0.6-1.4-0.6-2.3c0-0.8,0.2-1.6,0.6-2.2c0.4-0.7,0.9-1.2,1.5-1.7
			c0.6-0.4,1.3-0.8,2.1-1.1c1.6-0.5,3.4-0.5,5,0c0.8,0.2,1.5,0.6,2.2,1c0.6,0.5,1.1,1,1.5,1.7c0.4,0.7,0.6,1.4,0.6,2.2
			c0,0.8-0.2,1.6-0.6,2.3c-0.4,0.7-0.9,1.2-1.6,1.7c-0.7,0.5-1.4,0.8-2.2,1.1c-0.8,0.2-1.6,0.3-2.4,0.3c-0.8,0-1.5-0.1-2.3-0.3
			c-0.8-0.2-1.5-0.6-2.2-1C83.8,159.4,83.2,158.8,82.8,158.2z M81.9,167.5c0.4-0.8,1-1.5,1.8-2.1c0.7-0.6,1.6-1,2.5-1.3
			c1.7-0.6,3.6-0.6,5.6,0c0.9,0.3,1.8,0.7,2.5,1.3c0.8,0.6,1.4,1.2,1.8,2c0.5,0.8,0.7,1.7,0.7,2.8c0,1-0.2,1.9-0.7,2.7
			c-0.4,0.8-1,1.5-1.8,2.1c-0.7,0.6-1.6,1-2.5,1.3c-0.9,0.3-1.9,0.5-2.8,0.5c-0.9,0-1.9-0.1-2.8-0.4c-0.9-0.3-1.8-0.7-2.5-1.3
			c-0.7-0.6-1.4-1.2-1.8-2c-0.5-0.8-0.7-1.7-0.7-2.7C81.2,169.2,81.4,168.3,81.9,167.5z"/>
	</g>
</g>
</svg>
