<svg id="Layer_1" data-name="Layer 1" xmlns="http://www.w3.org/2000/svg" viewBox="0 0 566.9 448.3"><defs><style>.cls-1{fill:#fff;}.cls-2{fill:#a9ceca;}</style></defs><title>Artboard 1</title><path class="cls-1" d="M71.8,23.8H62c-3.1,0-3.5.4-7,4L23.5,59.5V9.7a2.3,2.3,0,0,0-2.6-2.6H5.9A2.3,2.3,0,0,0,3.3,9.7v6.6a2.3,2.3,0,0,0,2.6,2.6h5.5V80.4H5.9A2.3,2.3,0,0,0,3.3,83v6.7a2.4,2.4,0,0,0,2.6,2.6h23a2.4,2.4,0,0,0,2.7-2.6V83a2.4,2.4,0,0,0-2.7-2.6H23.5v-5l11.8-12L56.1,88.8c2.7,3.5,2.7,3.5,6.7,3.5h9a2.3,2.3,0,0,0,2.6-2.6V83a2.3,2.3,0,0,0-2.6-2.6H64.4L43.7,54.9,62.6,35.8h9.2a2.3,2.3,0,0,0,2.6-2.5V26.4a2.3,2.3,0,0,0-2.6-2.6"/><path class="cls-1" d="M153,80.4h-5.5V51.1c0-17.4-10.9-28.7-27.9-28.7-7.9,0-14.5,2.4-19.6,7.2V26.5a2.3,2.3,0,0,0-2.6-2.6H82.6c-1.7,0-2.7.8-2.7,2.5v6.7a2.4,2.4,0,0,0,2.6,2.6H88V80.4H82.5A2.4,2.4,0,0,0,79.9,83v6.7a2.4,2.4,0,0,0,2.6,2.6h23a2.4,2.4,0,0,0,2.6-2.6V83a2.4,2.4,0,0,0-2.6-2.6H100V53.2c0-11.2,7.9-19.3,18.7-19.3s16.8,6.8,16.8,18.3V80.4h-5.4a2.3,2.3,0,0,0-2.6,2.6v6.7a2.3,2.3,0,0,0,2.6,2.6H153a2.3,2.3,0,0,0,2.6-2.6V83a2.3,2.3,0,0,0-2.6-2.6"/><path class="cls-1" d="M190.2,22.5c-19.6,0-35,15.7-35,35.8S170.5,93.7,190,93.7s35.1-15.8,35.1-35.8-15.3-35.4-34.9-35.4m0,59.5c-12.6,0-22.5-10.6-22.5-24.1s9.6-23.7,22.3-23.7,22.6,10.5,22.6,24.1S203,82,190.2,82"/><path class="cls-1" d="M327,23.9H303.4a2.4,2.4,0,0,0-2.6,2.6v6.7a2.3,2.3,0,0,0,2.6,2.5h5.3L297.5,72,281.6,25.8a3.1,3.1,0,0,0-2.9-2.1H274a3.2,3.2,0,0,0-2.9,2.1L255.4,72,244.2,35.7h5.3a2.3,2.3,0,0,0,2.6-2.5V26.5a2.3,2.3,0,0,0-2.6-2.6H225.7a2.3,2.3,0,0,0-2.6,2.6v6.7a2.3,2.3,0,0,0,2.6,2.5h5.6l18.6,54.8a3.1,3.1,0,0,0,2.9,2h5.1a2.9,2.9,0,0,0,2.8-2l15.7-44.9,15.5,44.9a3,3,0,0,0,2.9,2h5.1a3,3,0,0,0,2.8-2l18.7-54.8H327a2.3,2.3,0,0,0,2.6-2.5V26.5a2.3,2.3,0,0,0-2.6-2.6"/><path class="cls-1" d="M360.3,80.4h-5.4V26.5a2.4,2.4,0,0,0-2.6-2.6h-15a2.3,2.3,0,0,0-2.6,2.6v6.7a2.3,2.3,0,0,0,2.6,2.5h5.4V80.4h-9.9a2.3,2.3,0,0,0-2.6,2.6v6.7a2.3,2.3,0,0,0,2.6,2.6h27.5a2.3,2.3,0,0,0,2.6-2.6V83a2.3,2.3,0,0,0-2.6-2.6"/><path class="cls-1" d="M413.6,57.5H407a2.3,2.3,0,0,0-2.6,2.6V72.8c0,4.3-3.1,8.8-8.3,8.8s-9.3-2.7-9.3-9V35.8h15.9a2.4,2.4,0,0,0,2.6-2.6V26.5a2.3,2.3,0,0,0-2.6-2.6H386.8V9.6A2.3,2.3,0,0,0,384.2,7h-7a2.4,2.4,0,0,0-2.6,2.6V23.9h-7.2a2.3,2.3,0,0,0-2.6,2.6v6.7a2.4,2.4,0,0,0,2.6,2.6h7.2V73.2c0,12.3,8.1,20.2,20.5,20.2s21.1-7.7,21.1-19.6V60.1a2.3,2.3,0,0,0-2.6-2.6"/><path class="cls-1" d="M348.6,15.2A7.6,7.6,0,1,0,341,7.6a7.6,7.6,0,0,0,7.6,7.6"/><path class="cls-2" d="M65.6,216.3v-6.6h-.9c-.8,0-1.7-.1-1.7-2.1V125.1H54.9v37.7a22.2,22.2,0,0,0-2.8-3.3,31.4,31.4,0,0,0-5.9-4.9,34,34,0,0,0-7.2-3.4,27.1,27.1,0,0,0-8.2-1.3,26.4,26.4,0,0,0-12.2,2.9,32,32,0,0,0-9.7,7.5,36.6,36.6,0,0,0-6.3,10.9A38,38,0,0,0,.3,184.3,34.1,34.1,0,0,0,2.7,197a33.3,33.3,0,0,0,16.7,18.6,29,29,0,0,0,12.8,2.9,28.3,28.3,0,0,0,14.2-4,30.2,30.2,0,0,0,9.1-7.9v4a7.2,7.2,0,0,0,2,4.7,6.6,6.6,0,0,0,4.9,2.2h1.1l1.3-.2h.8ZM54.9,173.7v20.9a12.4,12.4,0,0,1-2.5,6.1A24.7,24.7,0,0,1,47,206a25.5,25.5,0,0,1-6.9,3.7,22,22,0,0,1-6.8,1.3,22.6,22.6,0,0,1-9.7-2.2,26.6,26.6,0,0,1-13.1-14.3,25.9,25.9,0,0,1-1.9-10.1,28.4,28.4,0,0,1,1.7-10,28.7,28.7,0,0,1,4.7-8.6,24.3,24.3,0,0,1,7.5-6,19.6,19.6,0,0,1,9.7-2.3,19,19,0,0,1,6.8,1.3,25.2,25.2,0,0,1,6.7,3.5,26.9,26.9,0,0,1,9.2,11.4"/><path class="cls-2" d="M129.5,199.3l-.8-.3-.4.8a14.6,14.6,0,0,1-3.2,4.7,21.8,21.8,0,0,1-4.7,3.8,27.2,27.2,0,0,1-5.8,2.4,21.8,21.8,0,0,1-6.3.9,23.5,23.5,0,0,1-9.1-1.9,25.9,25.9,0,0,1-7.5-5.2,28.2,28.2,0,0,1-5.4-8,28.6,28.6,0,0,1-2.5-8.9h55.9l.3-.6a4.7,4.7,0,0,0,.2-1.6v-1.5a35.7,35.7,0,0,0-2.4-13,33.6,33.6,0,0,0-6.8-10.8,31.7,31.7,0,0,0-36.1-7.5A31.5,31.5,0,0,0,84.7,160a32.5,32.5,0,0,0-6.8,10.8,33.6,33.6,0,0,0-2.5,13.1,34.6,34.6,0,0,0,2.5,13.3,33.4,33.4,0,0,0,6.8,11,31.1,31.1,0,0,0,10.4,7.5,29.8,29.8,0,0,0,13,2.8,33.1,33.1,0,0,0,16.9-4.6,29.2,29.2,0,0,0,6.4-5.2,22.3,22.3,0,0,0,4.2-6.7l.4-1-1.1-.3Zm2.7-18.6H83.7a28.4,28.4,0,0,1,2.3-8.9,24.1,24.1,0,0,1,5.2-7.9,25.6,25.6,0,0,1,7.5-5.1,24.2,24.2,0,0,1,18.3,0,22.7,22.7,0,0,1,7.5,5.1,27.2,27.2,0,0,1,5.4,7.8,29.1,29.1,0,0,1,2.3,9"/><polygon class="cls-2" points="169.7 216.6 170 217.2 170.6 217.2 177 217.2 177.7 217.2 177.9 216.6 204.7 152.4 205.3 151.1 203.8 151.1 197.8 151.1 197.1 151.1 196.9 151.7 173.9 207.5 151.1 151.7 150.9 151.1 150.2 151.1 143.8 151.1 142.3 151.1 142.9 152.4 169.7 216.6"/><path class="cls-2" d="M257.8,213.9a29.2,29.2,0,0,0,6.4-5.2,22.3,22.3,0,0,0,4.2-6.7l.4-1-1.1-.3-5.4-1.4-.8-.3-.4.8a14.6,14.6,0,0,1-3.2,4.7,19.6,19.6,0,0,1-4.7,3.8,27.2,27.2,0,0,1-5.8,2.4,21.8,21.8,0,0,1-6.3.9,23.5,23.5,0,0,1-9.1-1.9,25.9,25.9,0,0,1-7.5-5.2,28.2,28.2,0,0,1-5.4-8,26,26,0,0,1-2.4-8.9h55.8l.3-.6a4.7,4.7,0,0,0,.2-1.6v-1.5a35.7,35.7,0,0,0-2.4-13,35.1,35.1,0,0,0-6.7-10.8,32.3,32.3,0,0,0-10.4-7.4,30.9,30.9,0,0,0-13-2.8,30.6,30.6,0,0,0-12.8,2.7,31.5,31.5,0,0,0-10.2,7.4,32.5,32.5,0,0,0-6.8,10.8,33.9,33.9,0,0,0-2.5,13.1,34.6,34.6,0,0,0,2.5,13.3,33.4,33.4,0,0,0,6.8,11,31.1,31.1,0,0,0,10.4,7.5,30.1,30.1,0,0,0,13,2.8,33.1,33.1,0,0,0,16.9-4.6m7.2-33.2H216.5a28.4,28.4,0,0,1,2.3-8.9,23.8,23.8,0,0,1,12.7-13,23.4,23.4,0,0,1,25.8,5.1,27.2,27.2,0,0,1,5.4,7.8,29.1,29.1,0,0,1,2.3,9"/><path class="cls-2" d="M298.3,218a31.5,31.5,0,0,0,5.5-.6,26.3,26.3,0,0,0,5.3-1.5l.8-.3-.2-.8-1.2-5-.3-1-1,.4a15.9,15.9,0,0,1-3.3.8l-3.2.3a6.1,6.1,0,0,1-6.6-6.8V125.1h-8.3v80.3A11.7,11.7,0,0,0,298.3,218"/><path class="cls-2" d="M367.1,160.1a33,33,0,0,0-10.3-7.4,30.2,30.2,0,0,0-12.7-2.8,31.1,31.1,0,0,0-12.9,2.8,31.5,31.5,0,0,0-10.2,7.4,34.5,34.5,0,0,0-6.8,11,34.1,34.1,0,0,0-2.5,13.2,36.6,36.6,0,0,0,2.4,13.1,35.1,35.1,0,0,0,6.8,10.9,31.5,31.5,0,0,0,10.2,7.4,31.1,31.1,0,0,0,25.8,0,31.5,31.5,0,0,0,10.2-7.4,34,34,0,0,0,6.8-10.9,34.7,34.7,0,0,0,2.5-13.1,34.1,34.1,0,0,0-2.5-13.2,34.5,34.5,0,0,0-6.8-11m-23-2.6a20.7,20.7,0,0,1,9.2,2.1,26.5,26.5,0,0,1,12.9,14.2,27.3,27.3,0,0,1,1.9,10.3,27.6,27.6,0,0,1-1.9,10.5,26.3,26.3,0,0,1-5.2,8.5,24.1,24.1,0,0,1-7.7,5.8,21.5,21.5,0,0,1-9.4,2.1,21.1,21.1,0,0,1-9.3-2.1,25.3,25.3,0,0,1-7.7-5.7,28.4,28.4,0,0,1-5.2-8.4,29,29,0,0,1-1.9-10.3,28.3,28.3,0,0,1,2-10.4,29.4,29.4,0,0,1,5.3-8.7,24,24,0,0,1,7.6-5.8,21.5,21.5,0,0,1,9.4-2.1"/><path class="cls-2" d="M441,160.6a30.5,30.5,0,0,0-10-7.7,28,28,0,0,0-27.2,1.1,33.8,33.8,0,0,0-9,7.8V151.1h-7.6v84.8h8.1V205.6a37.5,37.5,0,0,0,9,8.3,26.8,26.8,0,0,0,15.3,4.6,27.2,27.2,0,0,0,12.4-2.8,29.1,29.1,0,0,0,9.6-7.4,36,36,0,0,0,6.2-11,40.2,40.2,0,0,0,2.1-13,37,37,0,0,0-2.3-12.7,35.8,35.8,0,0,0-6.6-11m.7,23.7a30.2,30.2,0,0,1-1.7,9.8,26.9,26.9,0,0,1-4.8,8.6,22.8,22.8,0,0,1-7.4,6,21,21,0,0,1-9.7,2.3,21.3,21.3,0,0,1-7.1-1.3,23.5,23.5,0,0,1-6.4-3.5,33.2,33.2,0,0,1-5.4-5.2,41.2,41.2,0,0,1-3.9-6.3V173.8a12.7,12.7,0,0,1,2.6-6,27.2,27.2,0,0,1,5.4-5.3,32.9,32.9,0,0,1,6.9-3.7,19.4,19.4,0,0,1,6.8-1.3,22,22,0,0,1,9.5,2.1,29.1,29.1,0,0,1,8,5.9,30.2,30.2,0,0,1,5.3,8.6,28.9,28.9,0,0,1,1.9,10.2"/><path class="cls-2" d="M514.7,160.1a31.8,31.8,0,0,0-23.3-10.2,30.3,30.3,0,0,0-12.8,2.7,31.9,31.9,0,0,0-10.3,7.4,32.5,32.5,0,0,0-6.8,10.8,35.5,35.5,0,0,0-2.5,13.1,36.6,36.6,0,0,0,2.5,13.3,33.6,33.6,0,0,0,6.9,11,31.8,31.8,0,0,0,10.3,7.5,30.1,30.1,0,0,0,13,2.8,33.7,33.7,0,0,0,9-1.2,34.9,34.9,0,0,0,7.9-3.4,27,27,0,0,0,6.4-5.2,18.9,18.9,0,0,0,4.2-6.7l.4-1-1-.3-5.5-1.4-.8-.3-.3.8a18.6,18.6,0,0,1-3.2,4.7,22.3,22.3,0,0,1-4.8,3.8,26.4,26.4,0,0,1-5.7,2.4,22.8,22.8,0,0,1-6.3.9,23.2,23.2,0,0,1-9.1-1.9,26.3,26.3,0,0,1-7.6-5.2,30.4,30.4,0,0,1-5.4-8,26,26,0,0,1-2.4-8.9h55.9l.2-.6c.2-.2.3-.6.3-1.6v-1.5a33.8,33.8,0,0,0-2.5-13,33.3,33.3,0,0,0-6.7-10.8m1.2,20.6H467.4a28.4,28.4,0,0,1,2.2-8.9,25.8,25.8,0,0,1,5.2-7.9,24.8,24.8,0,0,1,7.6-5.1,23.6,23.6,0,0,1,25.8,5.1,29,29,0,0,1,5.3,7.8,26.6,26.6,0,0,1,2.4,9"/><path class="cls-2" d="M565.9,150.8H562a25,25,0,0,0-12.3,5.1,31.2,31.2,0,0,0-7.2,8.1v-13h-7.9v66.1h8.1V176.3a25,25,0,0,1,8.7-12.8,24.4,24.4,0,0,1,14.6-4.9h.9v-7.8Z"/><path class="cls-2" d="M46.1,303.8a34,34,0,0,0-8.1-3.4l-10.8-2.9-7.6-2a27.3,27.3,0,0,1-5-2,7.2,7.2,0,0,1-2.6-2.6,8.1,8.1,0,0,1-.8-4.1,12.2,12.2,0,0,1,1.2-5.6,11.2,11.2,0,0,1,3.4-3.8,18.9,18.9,0,0,1,5.2-2.2,33.2,33.2,0,0,1,6.5-.7,31.1,31.1,0,0,1,10.6,1.8,19.3,19.3,0,0,1,7.9,5.3l.7.8.7-.7,3.5-3.4.6-.6L51,277a26.2,26.2,0,0,0-9.4-6.8,35,35,0,0,0-13.8-2.6,35.4,35.4,0,0,0-9.3,1.2,24.5,24.5,0,0,0-7.8,3.7,18.5,18.5,0,0,0-5.5,6.3,19,19,0,0,0-1.9,8.8,14,14,0,0,0,1.4,6.8,11.3,11.3,0,0,0,4.2,4.5,24.6,24.6,0,0,0,6.9,3.1,84.9,84.9,0,0,0,9.5,2.5l8.8,2.3a39.3,39.3,0,0,1,6.3,2.5,10.7,10.7,0,0,1,3.5,3.1,8.8,8.8,0,0,1,1.1,4.5,10.2,10.2,0,0,1-4.7,9c-3.2,2.2-7.6,3.4-12.9,3.4a32.7,32.7,0,0,1-11.9-2.2A35.7,35.7,0,0,1,5,320.4l-.8-.8-.6.9L.5,324.7l-.5.7.6.6a34.4,34.4,0,0,0,12.2,7.6,41.9,41.9,0,0,0,14.6,2.6c7.6,0,13.9-1.8,18.5-5.4A17.5,17.5,0,0,0,53,316.3a14.4,14.4,0,0,0-1.8-7.5,16.3,16.3,0,0,0-5.1-5"/><path class="cls-2" d="M120.5,325.3V268.7h-8.2v41.4a29.4,29.4,0,0,1-3.8,7.5,28.6,28.6,0,0,1-5.6,5.9,28,28,0,0,1-7,3.8,21.1,21.1,0,0,1-7.5,1.3c-10.2,0-15.2-7.4-15.2-22.7V268.7H65.1v38.1c0,19.5,7.2,29.4,21.4,29.4a31.4,31.4,0,0,0,16.4-4.5,32.4,32.4,0,0,0,10.1-9.4v6.1a5.8,5.8,0,0,0,2.3,4.9,7.4,7.4,0,0,0,5,1.7h2l.8-.2v-7.3h-1c-.8,0-1.6-.2-1.6-2.1"/><path class="cls-2" d="M212,267.6c-10.2,0-18.5,5.2-24.7,15.6a20.9,20.9,0,0,0-5.8-10.5c-3.6-3.4-8.3-5.1-13.9-5.1a25.8,25.8,0,0,0-14.8,4.5,29.8,29.8,0,0,0-8.8,9.2V268.7h-7.8v66.2h8.1V294.3a31.6,31.6,0,0,1,3.4-7.7,30.6,30.6,0,0,1,5.1-6.1,20.3,20.3,0,0,1,6.2-3.9,18.7,18.7,0,0,1,7.1-1.3c4.9,0,8.3,1.7,10.6,5.3s3.6,9.5,3.6,17.5v36.8h8.1V294.4a31.4,31.4,0,0,1,3.3-7.7,26.8,26.8,0,0,1,4.9-6.1,20.7,20.7,0,0,1,6.3-3.9,17.8,17.8,0,0,1,7.2-1.4c4.8,0,8.3,1.7,10.7,5.3s3.6,9.6,3.6,17.5v36.8h8.1V297c0-9.1-1.5-16.3-4.6-21.4s-8.5-8-15.9-8"/><path class="cls-2" d="M322.5,267.6c-10.3,0-18.6,5.2-24.7,15.6a21.1,21.1,0,0,0-5.9-10.5c-3.5-3.4-8.2-5.1-13.9-5.1a25.7,25.7,0,0,0-14.7,4.5,31.3,31.3,0,0,0-8.9,9.2V268.7h-7.7v66.2h8.1V294.3a28.2,28.2,0,0,1,3.4-7.7,27.2,27.2,0,0,1,5-6.1,21.5,21.5,0,0,1,6.2-3.9,19.4,19.4,0,0,1,7.1-1.3c4.9,0,8.4,1.7,10.7,5.3s3.6,9.5,3.6,17.5v36.8h8.1V294.4a31.4,31.4,0,0,1,3.3-7.7,24.3,24.3,0,0,1,4.9-6.1,20.7,20.7,0,0,1,6.3-3.9,17,17,0,0,1,7.1-1.4c4.9,0,8.4,1.7,10.7,5.3s3.7,9.6,3.7,17.5v36.8H343V297c0-9.1-1.6-16.3-4.7-21.4s-8.5-8-15.8-8"/><polygon class="cls-2" points="359.5 269.6 358.5 269.6 358.5 270.6 358.5 333.9 358.5 334.9 359.5 334.9 365.7 334.9 366.7 334.9 366.7 333.9 366.7 270.6 366.7 269.6 365.7 269.6 359.5 269.6"/><polygon class="cls-2" points="359.5 254.4 358.5 254.4 358.5 255.4 358.5 262.5 358.5 263.5 359.5 263.5 365.7 263.5 366.7 263.5 366.7 262.5 366.7 255.4 366.7 254.4 365.7 254.4 359.5 254.4"/><path class="cls-2" d="M413.3,325.6l-.4-1.1-1,.6-3.3,1.6a14.6,14.6,0,0,1-6.2,1.2,8.1,8.1,0,0,1-5-1.6,5.2,5.2,0,0,1-2.1-4.6v-45h15v-7.1h-15V254.4h-8.1v15.2h-9v7.1h9v46.5a13.3,13.3,0,0,0,1.1,5.4,11.4,11.4,0,0,0,3,3.9,14.9,14.9,0,0,0,4.3,2.4,17.7,17.7,0,0,0,5.2.8,19.6,19.6,0,0,0,5-.6,34.4,34.4,0,0,0,4.1-1.1,16.1,16.1,0,0,0,3.2-1.4l1.6-.9.8-.4-.3-.8Z"/><path class="cls-2" d="M158.5,375.3a51.8,51.8,0,0,1-5.3,4.1,45,45,0,0,1-6.7,3.9,15.7,15.7,0,0,1-6.2,1.7v7.5a21,21,0,0,0,5-1,46,46,0,0,0,6.1-2.5q3-1.7,5.4-3.3a57.1,57.1,0,0,0,4.2-4.1l.4-.4v56.6H143v6.9h42.1v-6.9H168.9V372.9h-8.1A14.9,14.9,0,0,1,158.5,375.3Z"/><path class="cls-2" d="M57.3,444.7v-7.2H12.1v-.4a15,15,0,0,1,2-7.5,23.9,23.9,0,0,1,5.1-6,38.9,38.9,0,0,1,6.9-4.9,86.2,86.2,0,0,1,8-4.1c2.1-.9,4.4-2,6.8-3.3a42.4,42.4,0,0,0,7.2-4.7,26.9,26.9,0,0,0,5.5-6.6,16.5,16.5,0,0,0,2.3-8.8,18.6,18.6,0,0,0-1.6-7.4,18.3,18.3,0,0,0-4.8-6.3,20.9,20.9,0,0,0-7.6-4.3,30.1,30.1,0,0,0-10.3-1.6,31.3,31.3,0,0,0-10.5,1.6,43.8,43.8,0,0,0-8.1,3.5,30.1,30.1,0,0,0-5.6,4.1l-2.7,2.5,5.3,5.8c.5-.8,1.4-1.6,2.4-2.8a31.1,31.1,0,0,1,4.3-3.5,29.5,29.5,0,0,1,5.9-2.9,22.4,22.4,0,0,1,7.6-1.2,20.9,20.9,0,0,1,7.4,1.2,16,16,0,0,1,5.3,3,12.1,12.1,0,0,1,3.2,4.3A11.5,11.5,0,0,1,45,398.9a21.9,21.9,0,0,1-5.6,5.3,47.3,47.3,0,0,1-7.4,4.1L24.4,412a50,50,0,0,0-11,7.5,31,31,0,0,0-6.2,8.3,28.5,28.5,0,0,0-3,8.6,59.7,59.7,0,0,0-.8,8.3Z"/><path class="cls-2" d="M121.4,382.8a29.8,29.8,0,0,0-10-8,27.7,27.7,0,0,0-12.5-2.9,28.4,28.4,0,0,0-12.6,2.9,30.8,30.8,0,0,0-10,8,39,39,0,0,0-6.6,12.1,50,50,0,0,0,0,30.6,41.4,41.4,0,0,0,6.6,12.1,30.5,30.5,0,0,0,10,7.9,28.3,28.3,0,0,0,12.6,2.8,27.6,27.6,0,0,0,12.5-2.8,29.5,29.5,0,0,0,10-7.9,39.2,39.2,0,0,0,6.6-12.1,50,50,0,0,0,0-30.6,37,37,0,0,0-6.6-12.1m-.8,39.9a33.8,33.8,0,0,1-4.8,9.7,21.7,21.7,0,0,1-7.4,6.2,21.8,21.8,0,0,1-19.1,0,20,20,0,0,1-7.4-6.2,29.4,29.4,0,0,1-4.8-9.7,41,41,0,0,1-1.8-12.5,41.7,41.7,0,0,1,1.8-12.6,27.9,27.9,0,0,1,4.8-9.6,21.6,21.6,0,0,1,7.4-6.4,21.8,21.8,0,0,1,19.1,0,23.6,23.6,0,0,1,7.4,6.4,32,32,0,0,1,4.8,9.6,45.2,45.2,0,0,1,1.7,12.6,44.4,44.4,0,0,1-1.7,12.5"/><path class="cls-2" d="M197.3,434.3a23.1,23.1,0,0,0,5.5,7.3,28.3,28.3,0,0,0,8.5,4.9,31.2,31.2,0,0,0,10.7,1.8,33,33,0,0,0,10.5-1.6,25.7,25.7,0,0,0,8.7-4.5,22.2,22.2,0,0,0,5.9-7.1,18.7,18.7,0,0,0,2.2-9.2,19.2,19.2,0,0,0-1.2-6.9,20.1,20.1,0,0,0-3.4-5.7,24,24,0,0,0-5-4.5l-1.9-1-.9-.4-.4-.2-.9-.5-1.5-.7-.4-.2.4-.2a24.6,24.6,0,0,0,4.5-2.5,18.6,18.6,0,0,0,4.2-3.7,17.5,17.5,0,0,0,2.9-4.7,15.1,15.1,0,0,0,1-5.3,16.3,16.3,0,0,0-2.2-8.5,19.2,19.2,0,0,0-5.6-6.1,23.6,23.6,0,0,0-7.8-3.8,29.8,29.8,0,0,0-17.4,0,23.6,23.6,0,0,0-7.8,3.8,22.4,22.4,0,0,0-5.7,6.2,16.7,16.7,0,0,0-2.1,8.5,14,14,0,0,0,1,5.4,18.3,18.3,0,0,0,2.8,4.6,22.9,22.9,0,0,0,4,3.6,22.5,22.5,0,0,0,4.6,2.5l.4.2-.5.2a25.2,25.2,0,0,0-10.2,6.9,21.2,21.2,0,0,0-3.5,5.6,17.4,17.4,0,0,0-1.4,6.9A20.7,20.7,0,0,0,197.3,434.3Zm9.7-38.8a11,11,0,0,1-1.5-5.7,11.9,11.9,0,0,1,1.4-5.6,15.1,15.1,0,0,1,3.8-4.2,17.5,17.5,0,0,1,5.3-2.6,22.2,22.2,0,0,1,12.5-.1,18.1,18.1,0,0,1,5.4,2.6,11.8,11.8,0,0,1,3.8,4.2,10.3,10.3,0,0,1,1.4,5.5,11,11,0,0,1-1.5,5.7,14.9,14.9,0,0,1-4,4.3,19.9,19.9,0,0,1-17.2,2.6,19.3,19.3,0,0,1-5.4-2.6A15.6,15.6,0,0,1,207,395.5Zm-2.4,23.1a16.9,16.9,0,0,1,4.4-5.2,22.5,22.5,0,0,1,6.1-3.3,23.1,23.1,0,0,1,14,0,20.8,20.8,0,0,1,6.3,3.2,16,16,0,0,1,4.6,5.1,13.1,13.1,0,0,1,1.8,6.9,13.3,13.3,0,0,1-1.7,6.7,18.8,18.8,0,0,1-4.5,5.2,21.6,21.6,0,0,1-6.2,3.3,23.3,23.3,0,0,1-7,1.1,20.7,20.7,0,0,1-6.9-1.1,21.2,21.2,0,0,1-6.2-3.1,17.2,17.2,0,0,1-4.6-5.1,15,15,0,0,1-.1-13.7Z"/></svg>