<?xml version="1.0" encoding="utf-8"?>
<!-- Generator: Adobe Illustrator 23.0.1, SVG Export Plug-In . SVG Version: 6.00 Build 0)  -->
<svg version="1.1" id="Layer_1" xmlns="http://www.w3.org/2000/svg" xmlns:xlink="http://www.w3.org/1999/xlink" x="0px" y="0px"
	 viewBox="0 0 184.83 196.41" style="enable-background:new 0 0 184.83 196.41;" xml:space="preserve">
<style type="text/css">
	.st0{fill:#E2C222;}
	.st1{fill:#FFFFFF;}
	.st2{font-family:'Raleway-Regular';}
	.st3{font-size:14px;}
</style>
<g>
	<g>
		<path class="st0" d="M33.21,45.05c-0.26,0.3-0.5,0.58-0.73,0.85c-0.82,0.56-2.09,1.62-3.54,3.22l-2.41,2.7l-1.87,2.16l-1.59,1.89
			c0,0-0.79,0.96-1.57,1.91c-0.77,0.97-1.55,1.93-1.55,1.93L19.71,60l-0.29,0.01c-0.47,0.59-1.42,2.18-1.95,2.9
			c-1.58,2.12-3.03,4.32-4.14,6.38c-1.12,2.04-1.9,3.92-2.32,5.3c-0.15,0.38-0.39,1-0.69,1.95c-0.31,0.94-0.68,2.26-1.04,3.94
			c-0.17,0.9-0.34,1.97-0.46,3.12c-0.11,1.12-0.18,2.28-0.18,3.36c-0.02,2.17,0.16,4.02,0.31,5.07c0.28,1,0.43,2.42,0.64,3.91
			c-0.1,0.82-0.17,2.1-0.03,3.97c0.02,1.31,0.16,2.6-0.05,2.62c0,0-0.12-0.73-0.21-1.73c-0.1-1-0.14-2.28-0.13-3.36
			c0.01-1.08,0.06-1.95,0.04-2.14c-0.01-0.19-0.14,0.3-0.25,1.96c0,0-0.03,0.33-0.04,0.66c-0.01,0.33-0.02,0.66-0.02,0.66l-0.43,0
			c0,0,0.09,0.34,0.21,0.67c0.11,0.33,0.23,0.66,0.23,0.66s0,0.33,0.02,0.67c0.02,0.33,0.04,0.66,0.04,0.66l-0.22,0.02
			c0.23-0.02,0.19-0.01,0.33,1.31c0.06,0.66,0.18,1.32,0.28,1.98l-0.1-0.66l-0.21,0.03c-0.11-0.66-0.14-1-0.17-0.99
			c-0.03,0-0.05,0.34-0.05,1.03c0.17-0.03,0.2-0.03,0.32,0.63c0.03,0.15,0.08,0.37,0.13,0.65l-0.43,0.09l-0.13-0.66
			c-0.27-1.56-0.43-3.14-0.46-4.72c0,0,0-0.34-0.01-0.68c0-0.34,0.01-0.68,0.01-0.68c-0.18,0-0.27,0.8-0.24,1.97
			c0.04,1.17,0.23,2.7,0.53,4.14c0.52,2.44,1.37,4.56,1.18,4.62c0.67,1.22,0.88,1.13,1.41,2.37c0.27,0.79,0.59,1.62,0.92,2.35
			c0.3,0.69,0.61,1.31,0.93,1.93c0.44,0.82,0.89,1.57,1.36,2.28c0.04,0.16,0.08,0.28,0.11,0.36c0.3,0.98,1.01,3.6,1.4,4.58
			c0.21,0.59,1.05,2.08,1.29,2.66l0.24,0.59c0.08,0.19,0.08,0.2,0.37,0.3c0.26,0.58,0.39,1.45,0.66,2.04l0.29,0.1
			c0.54,1.16,0.15,1.35,0.72,1.55c0,0,0.23,0.48,0.47,0.97c0.24,0.48,0.48,0.96,0.48,0.96s0.12,0.24,0.24,0.48
			c0.13,0.24,0.25,0.48,0.25,0.48c0.1,0.19,0.1,0.19-0.09,0.29l0.4,0.28c0,0,0.14,0.26,0.35,0.66c0.21,0.39,0.51,0.92,0.81,1.45
			c0.59,1.06,1.23,2.09,1.23,2.09l0.23,0.38c0,0,0.29,0.47,0.58,0.94c0.3,0.46,0.61,0.93,0.61,0.93l0.73,1.11
			c0.37,0.55,1.07,1.15,1.2,1.33c0.38,0.55,1.35,1.49,1.49,1.66c2.6,3.05,4.73,5.05,5.97,6.35c0.45,0.5,1.28,1.59,1.43,1.76
			c0.31,0,0.47,0.16,0.63,0.32c0,0,0.12,0.12,0.24,0.24c0.13,0.12,0.25,0.23,0.25,0.23c1.43,1.13,2.89,2.04,4.29,2.68
			c0.08,0.08,0.15,0.16,0.23,0.24c1.43,1.52,3.04,2.97,4.32,4.02c1.27,1.05,2.17,1.67,2.17,1.67s1.1,0.8,2.18,1.49
			c1.09,0.71,2.14,1.31,2.14,1.31c1.7,1.01,4.37,2.32,6.49,3.26c2.02,0.88,3.78,1.65,4.13,1.81c2.8,1.17,6.95,3.14,11.24,4.82
			c2.13,0.83,4.27,1.59,6.14,2.15c0.94,0.28,1.8,0.52,2.54,0.72c0.76,0.18,1.39,0.33,1.86,0.44l0.96,0.19c0,0,0.42,0.08,1.05,0.2
			c0.64,0.11,1.51,0.24,2.37,0.36c0.88,0.1,1.76,0.2,2.42,0.26c0.66,0.04,1.11,0.06,1.11,0.06c2.52,0.32,7.36,0.25,11.96-0.48
			c4.63-0.69,8.84-2.05,11.09-2.63c6.61-1.97,12.62-4.71,18.08-7.71c2.73-1.5,5.36-3.07,7.88-4.67c1.27-0.8,2.49-1.6,3.72-2.41
			l3.47-2.34l1.18-0.79l0.12,0.18c0,0,0.79-0.53,1.58-1.06c0.87-0.6,1.75-1.19,1.75-1.19c1.13-0.74,2.87-1.86,5.32-3.91
			c1.21-1.02,2.57-2.26,3.96-3.75c0.69-0.74,1.39-1.54,2.08-2.39c0.65-0.82,1.25-1.54,1.93-2.5c1.33-1.81,2.82-4.1,4.13-6.78
			c1.32-2.67,2.39-5.63,3.17-8.4c0.79-2.79,1.36-5.44,1.88-8.08c0.24-1.29,0.49-2.62,0.75-3.98c0.24-1.35,0.49-2.74,0.74-4.17
			c0.1-0.73,0.25-1.66,0.35-2.8c0.03-0.56,0.06-1.16,0.1-1.79c0.01-0.57,0.01-1.13,0.01-1.74c-0.04-2.33-0.25-4.63-0.53-6.76
			c-0.47-3.81-1.04-6.95-1.5-9.8c-0.24-1.42-0.45-2.75-0.64-4c-0.09-0.61-0.17-1.2-0.25-1.8l-0.06-0.43l-0.08-0.55
			c-0.08-0.49-0.16-0.98-0.24-1.47c-0.3-1.99-0.77-3.76-1.21-5.51c-0.23-0.87-0.5-1.66-0.75-2.47c-0.26-0.8-0.51-1.61-0.8-2.33
			c-0.56-1.48-1.11-2.92-1.72-4.21c-0.3-0.65-0.59-1.29-0.87-1.92c-0.31-0.6-0.61-1.19-0.9-1.76c-3.02-5.81-5.85-9.8-7.87-12.57
			c-2.03-2.76-3.26-4.31-3.46-4.71c-0.2-0.41-1.23-1.84-3.25-4.18c-1.03-1.16-2.28-2.55-3.87-4.12c-0.77-0.8-1.66-1.62-2.61-2.51
			c-0.25-0.23-0.46-0.43-0.74-0.68c-0.31-0.26-0.62-0.53-0.94-0.79c-0.64-0.53-1.3-1.09-1.98-1.63c-1.71-1.26-2.58-1.87-2.7-1.69
			c0,0-0.19-0.2-0.37-0.39c-0.19-0.19-0.37-0.37-0.37-0.37l-1.75-1.11c0,0-0.47-0.23-0.94-0.45c-0.47-0.2-0.94-0.4-0.94-0.4
			s-0.55-0.31-1.38-0.77c-0.83-0.48-1.94-1-3.06-1.55c-1.12-0.56-2.23-1-3.07-1.37c-0.42-0.18-0.77-0.33-1.02-0.43
			c-0.25-0.11-0.38-0.15-0.38-0.15s-1.23-0.46-3.08-1.14c-0.92-0.3-2-0.65-3.16-1.02c-1.15-0.33-2.39-0.68-3.62-1
			c-1.23-0.29-2.46-0.6-3.62-0.83c-1.15-0.22-2.23-0.45-3.16-0.6c-0.92-0.15-1.69-0.27-2.23-0.35c-0.54-0.09-0.85-0.13-0.85-0.13
			c-0.67-0.08-1.62-0.19-2.72-0.3c-1.09-0.1-2.33-0.17-3.56-0.25c-1.24-0.05-2.47-0.1-3.57-0.12c-1.1-0.01-2.05-0.02-2.73-0.03
			c0,0-0.18,0-0.45,0c-0.28,0-0.66,0.01-1.03,0.01c-0.75,0.01-1.5,0.03-1.5,0.03s-0.74,0.04-1.49,0.08c-0.74,0.04-1.48,0.1-1.48,0.1
			l-1.95,0.19c0,0-0.3,0.03-0.84,0.09c-0.53,0.07-1.28,0.18-2.18,0.3c-0.9,0.13-1.93,0.33-3.04,0.53c-1.09,0.24-2.27,0.46-3.4,0.75
			c-2.3,0.55-4.51,1.22-6.15,1.75c-0.83,0.26-1.49,0.5-1.96,0.67c-0.47,0.17-0.74,0.26-0.74,0.26c-5.11,1.86-9.09,3.75-12.25,5.4
			c-3.15,1.65-5.53,3.12-7.34,4.33c-5.44,3.59-9.55,6.95-12.54,9.79"/>
		<g>
			<path class="st1" d="M59.38,153.83c0.1-0.19,0.76,0.14,1.42,0.47C60.71,154.5,60.04,154.17,59.38,153.83z M65.29,164.09
				l-2.73-1.26c-2.11-0.74-2.82-1.07-2.72-1.27c0.09-0.2,0.88-0.07,1.55,0.25l2.03,0.94c0.09-0.2-0.58-0.51-1.26-0.82
				c0.09-0.2,0.09-0.2,0.77,0.12l0.67,0.31c-0.29-0.26-1.47-0.8-2.83-1.43c-1.36-0.64-2.96-1.41-3.98-2.06l-0.2,0.39
				c-2.15-1.12-2.89-1.58-3.5-2.2c0.11-0.18,0.83,0.25,1.55,0.66c0.11-0.19,0.11-0.18-0.61-0.6l0.22-0.38l-0.71-0.42
				c-0.59-0.62-0.59-0.62-0.47-0.8c0.35,0.22,1.49,0.73,2.53,1.12c1.04,0.39,1.99,0.69,1.99,0.69c0.1-0.19,0.1-0.19-0.59-0.56
				l-1.28-0.95l0.32-0.57c0,0,0.37,0.14,0.74,0.28c0.37,0.14,0.74,0.27,0.74,0.27c0.68,0.38,3.62,1.35,6.3,2.58
				c0.09-0.2,0.18-0.39-0.49-0.71l0.28-0.59c-0.67-0.31-1.35-0.63-1.44-0.43c-0.58-0.51-1.16-1.03-1.93-1.17
				c-1.91-1.21-1.15-1.05,0.86-0.06c1.34,0.65,2.11,0.76,2.87,0.87c2.01,0.93,3.35,1.56,4.62,2.36c-0.59-0.5-2.52-1.62-5.2-2.87
				c0.94-0.28-1.73-1.53-1.63-1.73c0,0,1.33,0.63,2.67,1.26c1.34,0.62,2.68,1.24,2.68,1.24c-0.09,0.2,0.58,0.51,1.25,0.81l0.67,0.31
				l0.76,0.1l1.35,0.6c-0.09,0.2-0.09,0.2-0.76-0.1c-0.09,0.2,1.27,0.79,1.18,0.99c0.76,0.1,1.44,0.37,1.53,0.17
				c0.67,0.3,3.34,1.57,4.04,1.81l-0.49,0.09c0.29,0.03,0.72,0.14,1.19,0.16c0.69,0.25,1.33,0.68,1.9,1.32c0,0,0.37,0.06,0.74,0.11
				c0.37,0.05,0.74,0.11,0.74,0.11c0.77,0,1.54-0.03,2.2,0.36c0.05-0.2-2.08-0.77-1.32-0.79c1.06,0.27,1.77,0.46,2.31,0.6
				c0.53,0.15,0.88,0.27,1.22,0.45c0,0-0.36-0.07-0.72-0.14c-0.36-0.08-0.72-0.16-0.72-0.16c-0.77,0.05-0.77,0.05-0.1,0.42
				c0,0,0.36,0.08,0.72,0.16c0.37,0.07,0.73,0.14,0.73,0.14l-0.77,0.07l-0.82,0.26c-0.05,0.22,1.47,0.32,1.43,0.52l0.04-0.21
				c0,0,0.56,0.1,1.11,0.21c0.56,0.08,1.12,0.17,1.12,0.17l-0.71-0.33c-0.7-0.32-0.7-0.34-0.66-0.55c0,0,0.36,0.07,0.73,0.12
				c0.37,0.06,0.73,0.11,0.73,0.11s0.18,0.08,0.35,0.16c0.18,0.07,0.36,0.15,0.36,0.15s0.32,0.05,0.81,0.12
				c0.48,0.09,1.14,0.13,1.79,0.19c0.65,0.06,1.31,0.12,1.8,0.16c0.49,0.02,0.82,0.02,0.82,0.02c0.94,0.03,1.79,0.05,2.56,0.05
				c0.77-0.06,1.48-0.11,2.14-0.15c0.33-0.03,0.65-0.06,0.95-0.08c0.3-0.05,0.6-0.1,0.89-0.14c0.58-0.1,1.14-0.19,1.69-0.29
				c0,0,0.56-0.09,1.11-0.23c0.55-0.13,1.1-0.26,1.1-0.26c0.78,0.02,0.06,0.24-2.16,0.7c0,0-0.93,0.16-1.86,0.32
				c-0.46,0.09-0.93,0.16-1.29,0.18c-0.35,0.04-0.59,0.06-0.59,0.06c0.01,0.11,0.4,0.13,1.25,0.08c0.43-0.05,0.97-0.11,1.64-0.19
				c0.67-0.08,1.48-0.16,2.42-0.35l0.05,0.21c0,0-0.56,0.14-1.12,0.26c-0.57,0.1-1.13,0.2-1.13,0.2c-0.75,0.13-1.48,0.47-1.41,0.9
				l2.38,0.03c0,0,0.17-0.14,0.34-0.28c0.17-0.13,0.34-0.29,0.34-0.29s1.13-0.27,2.26-0.54c0.57-0.12,1.12-0.29,1.54-0.42
				c0.42-0.12,0.69-0.21,0.69-0.21l-0.68,0.43c-0.68,0.43-0.63,0.64,0.18,0.63c0,0-0.14,0.04-0.35,0.1
				c-0.21,0.06-0.49,0.15-0.78,0.21c-0.57,0.14-1.15,0.27-1.15,0.27c-0.72,0.39-1.53,0.36-1.58,0.15c-0.77,0.16-0.73,0.36-0.69,0.58
				c-0.38,0.16,0.04,0.2,1.2-0.05c0.58-0.13,1.35-0.31,2.32-0.53c0.96-0.24,2.08-0.61,3.4-1l0.07,0.21c0.1,0.31-0.5,0.38-1.49,0.53
				c-0.49,0.07-1.08,0.18-1.73,0.33c-0.66,0.13-1.38,0.31-2.13,0.6c0.05,0.21,0.88,0.24,1.65,0.05c0,0,0.16,0,0.39,0.01
				c0.24,0.01,0.55,0.01,0.86,0c0.62-0.02,1.24-0.03,1.24-0.03l1.61-0.26c-0.07-0.21-0.06-0.2,0.69-0.47l0.75-0.27
				c0.07,0.2-0.68,0.48-1.44,0.74c0.03,0.1-0.34,0.27-1.2,0.56c-0.43,0.14-0.99,0.32-1.68,0.53c-0.7,0.2-1.55,0.38-2.54,0.62
				l-0.8,0.19c0,0-0.2,0.05-0.4,0.09c-0.2,0.04-0.41,0.07-0.41,0.07s-0.76,0.13-1.9,0.33c-0.29,0.05-0.6,0.1-0.92,0.16
				c-0.33,0.04-0.68,0.07-1.05,0.11c-0.73,0.07-1.5,0.15-2.28,0.23c-0.78,0.05-1.57,0.06-2.3,0.08c-0.74,0.02-1.42,0.06-2.01,0.01
				c-1.18-0.06-1.97-0.09-1.97-0.09l0.01-0.22c-2.09-0.09-3.74-0.39-4.87-0.54c-1.12-0.18-1.74-0.25-1.76-0.14
				c-1.57-0.56-3.13-0.97-3.96-0.99c0.07-0.22-0.73-0.41-3-1.16c-0.14,0.41,0.56,0.87,1.32,1.11l-1.67-0.08
				c-3.74-1.51-6.64-2.55-7.7-2.06C67.91,165.74,65.98,164.4,65.29,164.09z M103.72,170.63c-0.48,0.06-1.05,0.18-1.67,0.32
				c-0.62,0.15-1.3,0.32-1.97,0.48c-0.69,0.12-1.38,0.24-2.03,0.3c0.01,0.19,1.77,0.12,4.29-0.37c-0.18,0.2-0.59,0.39-1.18,0.58
				c-0.59,0.2-1.4,0.35-2.38,0.45c-0.98,0.11-2.12,0.24-3.43,0.2c-0.65-0.01-1.33-0.02-2.05-0.04c-0.71-0.02-1.46-0.14-2.23-0.22
				l-1.76-0.09c0,0-0.44-0.09-0.87-0.19c-0.43-0.1-0.86-0.2-0.86-0.2s0.87,0.11,1.75,0.18c0.88,0.05,1.76,0.09,1.76,0.09l0.01-0.22
				c-0.86-0.27-1.74-0.25-4.33-0.6c0,0-0.43-0.06-0.85-0.13c-0.43-0.06-0.85-0.14-0.85-0.14c0.04-0.2,2.61-0.02,2.64-0.27
				c0,0,0.83,0.27,1.68,0.5c0.86,0.21,1.71,0.41,1.71,0.41c0.87,0.04,0.88-0.18,0.89-0.61c0.85,0.3,2.58,0.42,4.29,0.16l-0.03-0.43
				c0.85-0.05,0.86,0.14,0.9,0.58c0.83-0.3,0.83-0.3,0.81-0.52l1.69-0.17c0.82-0.31,1.63-0.48,1.6-0.69c0,0,0.84-0.04,1.69-0.07
				c0.43-0.01,0.84-0.05,1.15-0.08c0.31-0.03,0.52-0.05,0.52-0.05s-1,0.27-2.05,0.42c-1.04,0.18-2.07,0.35-2.07,0.35
				c0.03,0.21,0.87,0.09,3.4-0.16l3.32-0.57c0.06,0.22-2.46,0.59-2.41,0.8C104.57,170.55,104.19,170.55,103.72,170.63z
				 M86.15,169.68c0,0,0.46,0.08,1.16,0.21c0.7,0.09,1.65,0.26,2.59,0.33c0.95,0.07,1.9,0.15,2.61,0.2
				c0.36,0.03,0.65,0.03,0.86,0.03c0.21,0,0.33,0,0.33,0c0,0.22,0,0.22-0.85,0.24L92,170.86c-1.07-0.05-1.98-0.11-2.74-0.18
				c-0.76-0.11-1.36-0.22-1.83-0.32C86.5,170.12,86.11,169.89,86.15,169.68z M74.23,168.05c-1.7-0.62-3.35-1.3-3.35-1.3
				c0.24-0.6,1.63,0.19,2.3,0.67l1.58,0.35l1.6,0.33c0.77,0.25,0.77,0.25,1.48,0.71l0.72,0.45l-0.79-0.24l-0.07,0.21
				C77.7,169.23,75.93,168.67,74.23,168.05z M65.2,167.33c-1.28-0.7-2.42-1.4-2.37-1.5l-0.6-0.51c0.1-0.21,3.48,1.4,7.1,3.14
				c-0.08,0.2-0.83-0.1-1.55-0.42c0.73,0.31,0.64,0.51,0.56,0.71C67.92,168.7,66.48,168.02,65.2,167.33z M125.88,165.41
				c-0.59,0.6-2.8,1.71-3.62,1.88c0,0-0.37,0.18-0.73,0.37c-0.38,0.17-0.76,0.35-0.76,0.35c-0.76,0.35-0.67,0.55-0.57,0.74
				c-0.38,0.17-0.97,0.39-1.57,0.57c-0.6,0.18-1.24,0.31-1.67,0.38c0,0-0.39,0.16-0.98,0.4c-0.29,0.12-0.64,0.26-1,0.41
				c-0.38,0.14-0.78,0.28-1.18,0.43c-0.81,0.29-1.62,0.58-2.22,0.79c-0.62,0.19-1.04,0.32-1.04,0.32l-1.67,0.5
				c-0.83,0.26-1.75,0.25-2.61,0.45c1.78-0.14-1.61,0.8-6.69,1.29c-1.28,0.08-2.63,0.25-4.05,0.22c-1.41,0.02-2.85,0.04-4.28-0.08
				c-2.84-0.09-5.54-0.5-7.54-0.78c0.05-0.22,0.91-0.03,1.82,0.1c-0.86-0.35,0.07-0.43,0.99-0.51c0,0,0.17,0.02,0.46,0.07
				c0.3,0.03,0.72,0.08,1.23,0.14c1.01,0.14,2.38,0.16,3.74,0.24c0.34,0.01,0.68,0.03,1.02,0.04c0.33-0.01,0.66-0.02,0.98-0.02
				c0.63-0.02,1.23-0.03,1.73-0.05c1.02-0.01,1.68-0.1,1.68-0.1c0.67-0.06,1.5-0.13,2.42-0.21c0.93-0.05,1.89-0.24,2.88-0.37
				c0.49-0.07,0.99-0.15,1.47-0.22c0.47-0.1,0.93-0.19,1.37-0.29c0.88-0.19,1.68-0.36,2.31-0.52l-0.06-0.21
				c1.23-0.37,2.49-0.67,3.83-1.03c1.31-0.4,2.79-0.74,4.36-1.3l0.69-0.52l0.08,0.2c0.08,0.2,0.08,0.2,0.78-0.32
				c0.78-0.31,1.42-0.88,2.18-1.21l0.84-0.15c0,0,0.4-0.12,0.8-0.25c0.39-0.13,0.78-0.27,0.78-0.27c0.73-0.37,1.55-0.54,2.29-0.91
				c-0.83,0.18-0.83,0.18-0.93-0.02c0,0,0.54-0.28,1.09-0.56c0.53-0.29,1.06-0.58,1.06-0.58l-0.71,0.39l0.1,0.19L125.88,165.41z
				 M119.37,161.43c0,0-0.51,0.27-1.04,0.51c-0.53,0.24-1.05,0.49-1.05,0.49l-0.7,0.32c0,0-0.53,0.24-1.06,0.48
				c-0.54,0.22-1.08,0.44-1.08,0.44c0.64-0.49,1.27-0.99,1.95-1.32l0.09,0.2l0.61-0.52c0.61-0.52,1.31-0.83,2.08-0.99L119.37,161.43
				z"/>
		</g>
		<g>
			<path class="st0" d="M83.41,166.71l-0.04-0.02c0.02,0.08,0.01,0.15-0.01,0.23L83.41,166.71z"/>
			<path class="st0" d="M97.23,166.92c-0.13,0.04-0.27,0.08-0.41,0.14C96.83,167.23,96.83,167.12,97.23,166.92z"/>
			<path class="st0" d="M76.27,161.38l0.35-0.06C76.44,161.29,76.3,161.3,76.27,161.38z"/>
			<path class="st0" d="M70.52,159.75l1.97,1.07c1.3,0.77,3.38,1.63,6.25,2.57c0.65,0.44,1.37,0.67,2.84,1.08l-0.06,0.21
				c1.1,0.3,1.86,0.42,2.35,0.44c0.48,0.03,0.69-0.04,0.71-0.14c0,0-0.55-0.13-1.11-0.25c-0.56-0.12-1.1-0.27-1.1-0.27
				c0.11-0.42,0.16-0.63-0.62-0.61c-0.67-0.4-0.66-0.42-0.72-0.2l-0.78,0c-0.66-0.43-1.31-0.84-3.35-1.79l-0.77-0.05l-0.7-0.26
				c0,0-0.98-0.56-1.95-1.12c-0.97-0.57-1.92-1.16-1.92-1.16l-2.3-0.29C69.93,159.25,70.61,159.55,70.52,159.75z"/>
			<path class="st0" d="M64.1,163.06l2.16,0.74C64.87,163.18,64.19,162.86,64.1,163.06z"/>
			<path class="st0" d="M83.37,166.69c-0.04-0.13-0.2-0.26-0.68-0.37L83.37,166.69z"/>
			<path class="st0" d="M84.96,167.04c0,0,0.97,0.2,1.96,0.34c0.49,0.08,0.98,0.15,1.36,0.18c0.37,0.04,0.62,0.07,0.62,0.07
				s0.2,0.02,0.4,0.04c0.2,0.03,0.4,0.03,0.4,0.03c-0.8-0.07-1.57-0.39-1.49-1.03c0,0-0.39-0.04-0.78-0.1
				c-0.39-0.06-0.77-0.12-0.77-0.12l-0.03,0.21l0.72,0.55l-0.78-0.12C85.77,166.99,85,166.82,84.96,167.04z"/>
			<path class="st0" d="M74.53,166.07c-1.48-0.54-2.18-0.85-2.27-0.64C74.44,166.29,75.2,166.54,74.53,166.07z"/>
			<path class="st0" d="M64.21,166.46c1.39,0.63,2.12,0.95,2.92,1.07C64.99,166.59,64.31,166.26,64.21,166.46z"/>
			<polygon class="st0" points="82.15,165.29 81.35,165.31 82.04,165.71 82.84,165.69 			"/>
			<path class="st0" d="M98.35,166.68l0.78-0.08c-0.03-0.22-0.06-0.43-0.82-0.35l-0.72,0.51c-0.15,0.06-0.25,0.11-0.35,0.16
				C97.83,166.74,98.35,166.68,98.35,166.68z"/>
			<path class="st0" d="M95.21,166.27c-0.76,0.24-0.76,0.46-0.75,0.67C95.24,166.93,96,166.47,95.21,166.27z"/>
			<path class="st0" d="M88.29,166.03c-0.01,0.11,0.17,0.24,0.54,0.36c0.38,0.13,0.95,0.25,1.73,0.27
				C90.57,166.43,89.82,166.22,88.29,166.03z"/>
			<path class="st0" d="M70.69,161.24c-0.61-0.49-1.29-0.8-1.97-1.1l-2.71-1.23l-1.53-0.23c0.58,0.5,2.59,1.46,5.35,2.66
				C70.61,161.44,70.61,161.44,70.69,161.24z"/>
			<path class="st0" d="M74.18,162.68c-0.7-0.28-1.41-0.56-1.49-0.36l0.7,0.28C74.1,162.88,74.1,162.88,74.18,162.68z"/>
			<path class="st0" d="M82.98,168.62c0.05-0.21,1.66,0.06,3.51,0.22c0.92,0.1,1.9,0.14,2.76,0.17c0.85,0,1.58-0.06,1.99-0.15
				c0.4,0.12,1.23,0.19,1.94,0.13c0.72-0.07,1.32-0.2,1.32-0.31l-0.81-0.63c0,0-0.4-0.05-0.8-0.09c-0.4-0.07-0.8-0.15-0.8-0.15
				c-0.01,0.22-0.01,0.22,0.8,0.47l0,0.22c-0.81-0.25-0.8-0.25-1.62-0.08l-0.01,0.22c-0.4-0.14-1.21-0.25-2.21-0.41
				c-1.01-0.15-2.2-0.31-3.41-0.41l-1.58-0.3c0.04-0.21-0.13-0.36-0.6-0.5c-0.48-0.13-1.26-0.26-2.43-0.46
				c0.16-0.62-1.33-1.06-0.76-0.21c0,0-0.6-0.06-1.19-0.12c-0.59-0.08-1.19-0.15-1.19-0.15c0.07-0.21-0.69-0.43-2.88-1.23
				l-0.64-0.47l-1.43-0.56c0.16-0.41,0.24-0.6-0.55-0.69l-0.25,0.6c-0.71-0.29-1.33-0.78-2.02-1.09c-0.08,0.2-0.88,0.1-1.57-0.21
				c-0.69-0.31-0.69-0.31-0.09,0.2c0,0,1.07,0.4,2.14,0.81c1.08,0.39,2.17,0.77,2.17,0.77l-0.08,0.2c0.64,0.49,0.64,0.49,1.37,0.77
				c0.08-0.2,0.15-0.41,0.8,0.07c0.72,0.28,2.86,1.28,5.17,1.94C81.43,168.04,82.18,168.45,82.98,168.62z"/>
		</g>
	</g>
</g>
<text transform="matrix(1 0 0 1 32.0745 126.7978)" class="st1 st2 st3">Developer Summit</text>
<g>
	<path class="st1" d="M50.98,84.25h-2.99c-0.94,0-1.05,0.12-2.14,1.21c-0.55,0.55-9.56,9.62-9.56,9.62V79.93
		c0-0.51-0.28-0.79-0.79-0.79h-4.58c-0.51,0-0.79,0.28-0.79,0.79v2.04c0,0.51,0.28,0.79,0.79,0.79h1.68v18.68h-1.67
		c-0.51,0-0.79,0.28-0.79,0.79v2.04c0,0.51,0.28,0.8,0.79,0.8h7.01c0.51,0,0.79-0.28,0.79-0.79v-2.04c0-0.51-0.28-0.8-0.79-0.8
		h-1.65v-1.51l3.59-3.64l6.32,7.72c0.83,1.06,0.83,1.06,2.05,1.06h2.73c0.51,0,0.79-0.28,0.79-0.79v-2.04
		c0-0.51-0.28-0.79-0.79-0.79h-2.25l-6.28-7.76l5.74-5.82h2.8c0.52,0,0.79-0.26,0.79-0.76v-2.07
		C51.77,84.53,51.49,84.25,50.98,84.25z"/>
	<path class="st1" d="M75.65,101.45H74v-8.91c0-5.3-3.34-8.73-8.51-8.73c-2.38,0-4.38,0.73-5.95,2.18v-0.94
		c0-0.51-0.28-0.79-0.79-0.79h-4.52c-0.51,0-0.79,0.27-0.79,0.78v2.04c0,0.51,0.28,0.8,0.79,0.8h1.66v13.58h-1.66
		c-0.51,0-0.79,0.28-0.79,0.79v2.04c0,0.51,0.28,0.79,0.79,0.79h6.97c0.51,0,0.79-0.28,0.79-0.79v-2.04c0-0.51-0.28-0.79-0.79-0.79
		h-1.66v-8.27c0-3.4,2.39-5.87,5.68-5.87c3.2,0,5.12,2.08,5.12,5.57v8.57h-1.66c-0.51,0-0.79,0.28-0.79,0.79v2.04
		c0,0.51,0.28,0.79,0.79,0.79h6.97c0.51,0,0.79-0.28,0.79-0.79v-2.04C76.44,101.73,76.17,101.45,75.65,101.45z"/>
	<path class="st1" d="M86.98,83.84c-5.97,0-10.65,4.78-10.65,10.88c0,6.03,4.64,10.76,10.57,10.76c5.99,0,10.69-4.78,10.69-10.87
		C97.59,88.57,92.93,83.84,86.98,83.84z M86.98,101.94c-3.84,0-6.85-3.22-6.85-7.33c0-4.11,2.91-7.22,6.77-7.22
		c3.86,0,6.88,3.22,6.88,7.33C93.79,98.83,90.86,101.94,86.98,101.94z"/>
	<path class="st1" d="M128.56,84.26h-7.16c-0.51,0-0.79,0.28-0.79,0.79v2.04c0,0.51,0.28,0.79,0.79,0.79h1.61L119.6,98.9
		l-4.83-14.05c-0.13-0.38-0.48-0.63-0.88-0.63h-1.43c-0.4,0-0.75,0.25-0.88,0.63l-4.78,14.05l-3.41-11.02H105
		c0.51,0,0.79-0.28,0.79-0.79v-2.04c0-0.51-0.28-0.79-0.79-0.79h-7.24c-0.51,0-0.79,0.28-0.79,0.79v2.04c0,0.51,0.28,0.79,0.79,0.79
		h1.7l5.68,16.66c0.13,0.36,0.48,0.61,0.87,0.61h1.54c0.39,0,0.75-0.25,0.87-0.63l4.75-13.65l4.73,13.65
		c0.13,0.38,0.48,0.63,0.88,0.63h1.54c0.39,0,0.74-0.25,0.87-0.61l5.68-16.66h1.7c0.51,0,0.79-0.28,0.79-0.79v-2.04
		C129.36,84.54,129.08,84.26,128.56,84.26z"/>
	<path class="st1" d="M138.7,101.45h-1.66v-16.4c0-0.51-0.28-0.79-0.79-0.79h-4.56c-0.51,0-0.79,0.28-0.79,0.79v2.04
		c0,0.51,0.28,0.79,0.79,0.79h1.66v13.58h-3.01c-0.51,0-0.79,0.28-0.79,0.79v2.04c0,0.51,0.28,0.79,0.79,0.79h8.37
		c0.51,0,0.79-0.28,0.79-0.79v-2.04C139.49,101.73,139.21,101.45,138.7,101.45z"/>
	<path class="st1" d="M154.9,94.48h-2.01c-0.51,0-0.79,0.28-0.79,0.79v3.86c0,1.33-0.94,2.7-2.53,2.7c-1.99,0-2.83-0.83-2.83-2.76
		v-11.2h4.84c0.51,0,0.79-0.28,0.79-0.79v-2.04c0-0.51-0.28-0.79-0.79-0.79h-4.84v-4.33c0-0.51-0.28-0.79-0.79-0.79h-2.11
		c-0.51,0-0.79,0.28-0.79,0.79v4.33h-2.21c-0.51,0-0.79,0.28-0.79,0.79v2.04c0,0.51,0.28,0.79,0.79,0.79h2.21v11.39
		c0,3.73,2.44,6.15,6.22,6.15c3.9,0,6.42-2.33,6.42-5.95v-4.18C155.69,94.76,155.41,94.48,154.9,94.48z"/>
	<circle class="st1" cx="135.15" cy="79.31" r="2.31"/>
</g>
</svg>
