<?xml version="1.0" encoding="utf-8"?>
<!-- Generator: Adobe Illustrator 23.0.1, SVG Export Plug-In . SVG Version: 6.00 Build 0)  -->
<svg version="1.1" id="Layer_1" xmlns="http://www.w3.org/2000/svg" xmlns:xlink="http://www.w3.org/1999/xlink" x="0px" y="0px"
	 viewBox="0 0 184.83 196.41" style="enable-background:new 0 0 184.83 196.41;" xml:space="preserve">
<style type="text/css">
	.st0{fill:#1D2E46;}
	.st1{fill:#FFFFFF;}
</style>
<g>
	<g>
		<path class="st0" d="M33.58,49.11c-0.26,0.29-0.49,0.57-0.72,0.83c-0.81,0.56-2.05,1.6-3.48,3.17l-2.36,2.65l-1.83,2.13
			l-1.56,1.86c0,0-0.77,0.94-1.54,1.88c-0.76,0.95-1.52,1.9-1.52,1.9l-0.23,0.29l-0.28,0.01c-0.46,0.58-1.39,2.15-1.91,2.86
			c-1.55,2.09-2.97,4.26-4.06,6.28c-1.1,2.01-1.86,3.86-2.27,5.21c-0.15,0.38-0.38,0.98-0.68,1.92c-0.3,0.92-0.67,2.22-1.02,3.88
			c-0.16,0.88-0.33,1.94-0.44,3.07c-0.1,1.1-0.17,2.25-0.17,3.3c-0.02,2.14,0.16,3.95,0.31,4.98c0.27,0.98,0.43,2.38,0.64,3.84
			c-0.1,0.8-0.16,2.06-0.03,3.9c0.02,1.28,0.16,2.55-0.04,2.58c0,0-0.12-0.72-0.21-1.7c-0.1-0.99-0.14-2.24-0.14-3.3
			c0.01-1.06,0.06-1.91,0.04-2.1c-0.01-0.19-0.13,0.29-0.24,1.93c0,0-0.03,0.33-0.03,0.65c-0.01,0.33-0.02,0.65-0.02,0.65l-0.43,0
			c0,0,0.09,0.33,0.21,0.66c0.11,0.33,0.22,0.65,0.22,0.65s0,0.33,0.02,0.65c0.02,0.33,0.04,0.65,0.04,0.65l-0.21,0.02
			c0.22-0.02,0.19-0.01,0.33,1.28c0.06,0.65,0.17,1.3,0.28,1.94l-0.1-0.65l-0.21,0.03c-0.1-0.65-0.14-0.98-0.16-0.97
			c-0.03,0-0.05,0.34-0.05,1.01c0.17-0.03,0.2-0.03,0.31,0.62c0.03,0.15,0.07,0.36,0.13,0.64l-0.42,0.09l-0.13-0.65
			c-0.27-1.53-0.43-3.09-0.46-4.64c0,0,0-0.33-0.01-0.67c-0.01-0.33,0.01-0.67,0.01-0.67c-0.18,0-0.26,0.79-0.23,1.94
			c0.04,1.15,0.23,2.66,0.53,4.07c0.51,2.39,1.35,4.48,1.17,4.54c0.66,1.19,0.86,1.11,1.39,2.33c0.26,0.78,0.58,1.59,0.91,2.31
			c0.29,0.67,0.6,1.29,0.92,1.89c0.43,0.8,0.88,1.54,1.35,2.24c0.04,0.16,0.08,0.28,0.11,0.36c0.3,0.96,1,3.54,1.38,4.5
			c0.21,0.58,1.03,2.04,1.27,2.62l0.24,0.58c0.08,0.19,0.08,0.19,0.36,0.3c0.25,0.57,0.38,1.43,0.65,2l0.28,0.1
			c0.53,1.14,0.15,1.33,0.71,1.52c0,0,0.23,0.48,0.47,0.95c0.24,0.47,0.48,0.95,0.48,0.95s0.12,0.24,0.24,0.47
			c0.13,0.24,0.25,0.47,0.25,0.47c0.1,0.19,0.1,0.19-0.09,0.29l0.39,0.28c0,0,0.14,0.26,0.35,0.65c0.2,0.39,0.5,0.9,0.8,1.42
			c0.59,1.04,1.22,2.05,1.22,2.05l0.23,0.37c0,0,0.29,0.46,0.57,0.92c0.3,0.45,0.6,0.91,0.6,0.91l0.72,1.09
			c0.37,0.54,1.06,1.13,1.18,1.31c0.37,0.54,1.33,1.46,1.47,1.63c2.56,3,4.66,4.96,5.89,6.23c0.44,0.49,1.26,1.56,1.41,1.73
			c0.31,0,0.47,0.16,0.62,0.31c0,0,0.12,0.12,0.24,0.23c0.12,0.11,0.25,0.23,0.25,0.23c1.41,1.1,2.85,2,4.22,2.62
			c0.07,0.08,0.15,0.16,0.22,0.24c1.41,1.49,3,2.92,4.25,3.94c1.25,1.03,2.13,1.64,2.13,1.64s1.08,0.78,2.14,1.46
			c1.07,0.69,2.1,1.29,2.1,1.29c1.67,0.99,4.3,2.28,6.38,3.19c1.99,0.87,3.72,1.62,4.06,1.77c2.76,1.14,6.84,3.08,11.06,4.72
			c2.1,0.82,4.2,1.55,6.04,2.1c0.92,0.27,1.77,0.51,2.5,0.7c0.75,0.18,1.36,0.32,1.83,0.43l0.95,0.18c0,0,0.41,0.08,1.04,0.19
			c0.63,0.11,1.48,0.23,2.33,0.35c0.86,0.1,1.73,0.2,2.38,0.25c0.65,0.04,1.09,0.06,1.09,0.06c2.48,0.31,7.24,0.23,11.75-0.49
			c4.55-0.68,8.68-2.03,10.9-2.6c6.5-1.95,12.4-4.65,17.76-7.61c2.68-1.48,5.26-3.03,7.74-4.6c1.25-0.79,2.44-1.58,3.65-2.38
			l3.41-2.31l1.16-0.78l0.12,0.18c0,0,0.78-0.52,1.55-1.04c0.86-0.59,1.71-1.18,1.71-1.18c1.11-0.73,2.82-1.84,5.22-3.85
			c1.19-1,2.52-2.23,3.88-3.69c0.68-0.73,1.36-1.52,2.04-2.35c0.63-0.81,1.22-1.52,1.89-2.46c1.3-1.78,2.76-4.03,4.05-6.68
			c1.3-2.63,2.34-5.53,3.11-8.26c0.77-2.74,1.32-5.35,1.84-7.95c0.24-1.27,0.48-2.57,0.73-3.92c0.23-1.33,0.48-2.7,0.72-4.11
			c0.1-0.72,0.25-1.64,0.34-2.75c0.03-0.55,0.06-1.14,0.09-1.76c0.01-0.56,0.01-1.11,0-1.71c-0.04-2.29-0.26-4.55-0.53-6.64
			c-0.47-3.74-1.03-6.83-1.49-9.63c-0.23-1.4-0.45-2.71-0.63-3.93c-0.08-0.6-0.17-1.18-0.25-1.77l-0.06-0.42l-0.08-0.54
			c-0.08-0.49-0.16-0.97-0.24-1.45c-0.3-1.95-0.76-3.69-1.2-5.41c-0.23-0.85-0.5-1.63-0.75-2.43c-0.25-0.79-0.5-1.58-0.79-2.29
			c-0.55-1.46-1.1-2.87-1.69-4.13c-0.29-0.64-0.58-1.27-0.86-1.88c-0.3-0.59-0.6-1.17-0.89-1.73c-2.98-5.71-5.77-9.62-7.76-12.35
			c-2-2.71-3.22-4.23-3.41-4.63c-0.2-0.4-1.21-1.81-3.2-4.1c-1.01-1.14-2.24-2.51-3.81-4.05c-0.76-0.78-1.64-1.59-2.57-2.46
			c-0.24-0.22-0.45-0.43-0.73-0.67c-0.3-0.26-0.61-0.52-0.92-0.78c-0.63-0.52-1.28-1.07-1.95-1.6c-1.68-1.24-2.54-1.84-2.66-1.66
			c0,0-0.18-0.19-0.36-0.38c-0.18-0.18-0.37-0.36-0.37-0.36l-1.73-1.09c0,0-0.46-0.22-0.92-0.44c-0.46-0.2-0.92-0.39-0.92-0.39
			s-0.54-0.3-1.36-0.75c-0.82-0.47-1.91-0.98-3.01-1.52c-1.1-0.55-2.2-0.98-3.02-1.34c-0.41-0.17-0.76-0.32-1-0.42
			c-0.24-0.1-0.38-0.15-0.38-0.15s-1.21-0.45-3.03-1.12c-0.91-0.29-1.97-0.63-3.11-1c-1.14-0.32-2.35-0.66-3.56-0.98
			c-1.21-0.28-2.42-0.58-3.56-0.81c-1.13-0.22-2.2-0.44-3.1-0.59c-0.91-0.14-1.66-0.26-2.19-0.34c-0.53-0.08-0.83-0.12-0.83-0.12
			c-0.66-0.08-1.6-0.18-2.67-0.29c-1.08-0.1-2.29-0.16-3.5-0.24c-1.22-0.04-2.43-0.09-3.51-0.11c-1.08-0.01-2.02-0.02-2.68-0.02
			c0,0-0.18,0-0.45,0c-0.28,0-0.65,0.01-1.01,0.01c-0.74,0.01-1.48,0.03-1.48,0.03s-0.73,0.04-1.46,0.08
			c-0.73,0.04-1.46,0.1-1.46,0.1l-1.92,0.19c0,0-0.3,0.03-0.82,0.09c-0.52,0.07-1.26,0.18-2.14,0.3c-0.88,0.13-1.9,0.33-2.99,0.52
			c-1.07,0.24-2.23,0.46-3.34,0.75c-2.26,0.54-4.44,1.21-6.05,1.73c-0.81,0.25-1.46,0.5-1.93,0.66c-0.46,0.16-0.73,0.26-0.73,0.26
			c-5.03,1.84-8.93,3.7-12.03,5.33c-3.09,1.63-5.44,3.08-7.21,4.27c-5.34,3.54-9.37,6.85-12.31,9.64"/>
		<g>
			<path class="st1" d="M62.23,156.02c0.1-0.19,0.75,0.14,1.4,0.46C63.54,156.68,62.88,156.36,62.23,156.02z M68.06,166.1
				l-2.69-1.23c-2.08-0.72-2.77-1.05-2.68-1.24c0.09-0.19,0.86-0.07,1.53,0.24l1.99,0.92c0.09-0.19-0.57-0.5-1.24-0.81
				c0.09-0.19,0.09-0.19,0.75,0.11l0.66,0.31c-0.29-0.25-1.44-0.78-2.78-1.41c-1.34-0.62-2.91-1.38-3.91-2.02l-0.2,0.38
				c-2.12-1.1-2.85-1.55-3.45-2.16c0.11-0.18,0.82,0.25,1.53,0.64c0.1-0.19,0.1-0.18-0.6-0.59l0.22-0.37l-0.7-0.41
				c-0.58-0.61-0.58-0.61-0.47-0.79c0.34,0.22,1.47,0.72,2.49,1.1c1.03,0.38,1.96,0.68,1.96,0.68c0.1-0.19,0.1-0.19-0.58-0.54
				l-1.26-0.93l0.31-0.56c0,0,0.36,0.14,0.72,0.28c0.36,0.13,0.72,0.27,0.72,0.27c0.67,0.37,3.56,1.32,6.2,2.52
				c0.09-0.19,0.18-0.39-0.48-0.69l0.27-0.58c-0.66-0.31-1.32-0.62-1.42-0.42c-0.57-0.5-1.14-1.01-1.9-1.14
				c-1.88-1.19-1.13-1.03,0.85-0.06c1.32,0.63,2.07,0.74,2.82,0.85c1.98,0.92,3.3,1.52,4.55,2.32c-0.58-0.49-2.48-1.59-5.12-2.82
				c0.93-0.27-1.7-1.5-1.6-1.7c0,0,1.31,0.62,2.62,1.23c1.32,0.61,2.64,1.22,2.64,1.22c-0.09,0.19,0.57,0.5,1.23,0.8l0.66,0.3
				l0.75,0.1l1.33,0.58c-0.08,0.2-0.09,0.2-0.75-0.09c-0.09,0.2,1.25,0.78,1.16,0.97c0.75,0.09,1.42,0.36,1.5,0.17
				c0.66,0.3,3.29,1.53,3.97,1.77l-0.48,0.09c0.29,0.03,0.71,0.13,1.17,0.15c0.68,0.25,1.31,0.66,1.87,1.29c0,0,0.36,0.06,0.73,0.11
				c0.37,0.05,0.73,0.1,0.73,0.1c0.76,0,1.52-0.04,2.17,0.35c0.05-0.2-2.05-0.75-1.29-0.77c1.05,0.27,1.74,0.45,2.27,0.58
				c0.52,0.15,0.86,0.27,1.2,0.44c0,0-0.36-0.07-0.71-0.14c-0.35-0.08-0.71-0.16-0.71-0.16c-0.75,0.05-0.76,0.05-0.09,0.42
				c0,0,0.36,0.08,0.71,0.16c0.36,0.07,0.72,0.14,0.72,0.14l-0.76,0.07l-0.81,0.26c-0.05,0.22,1.45,0.31,1.41,0.51l0.04-0.21
				c0,0,0.55,0.1,1.09,0.2c0.55,0.08,1.1,0.16,1.1,0.16l-0.7-0.32c-0.69-0.32-0.69-0.33-0.65-0.54c0,0,0.36,0.07,0.72,0.12
				c0.36,0.05,0.72,0.11,0.72,0.11s0.17,0.08,0.35,0.16c0.18,0.07,0.35,0.15,0.35,0.15s0.32,0.05,0.8,0.12
				c0.48,0.09,1.12,0.13,1.76,0.19c0.64,0.06,1.29,0.11,1.77,0.16c0.48,0.02,0.81,0.02,0.81,0.02c0.92,0.02,1.76,0.05,2.52,0.04
				c0.76-0.06,1.45-0.11,2.1-0.15c0.32-0.03,0.63-0.06,0.94-0.08c0.3-0.05,0.59-0.1,0.88-0.14c0.57-0.1,1.12-0.19,1.66-0.29
				c0,0,0.55-0.08,1.09-0.23c0.54-0.13,1.08-0.26,1.08-0.26c0.76,0.02,0.06,0.24-2.13,0.69c0,0-0.92,0.16-1.83,0.32
				c-0.46,0.09-0.92,0.16-1.27,0.18c-0.35,0.04-0.58,0.06-0.58,0.06c0.01,0.1,0.39,0.13,1.23,0.08c0.42-0.05,0.95-0.11,1.61-0.19
				c0.66-0.08,1.46-0.16,2.38-0.35l0.05,0.21c0,0-0.55,0.14-1.1,0.25c-0.56,0.1-1.11,0.19-1.11,0.19c-0.74,0.13-1.45,0.47-1.39,0.89
				l2.34,0.03c0,0,0.17-0.14,0.34-0.28c0.17-0.13,0.33-0.29,0.33-0.29s1.11-0.27,2.22-0.53c0.56-0.12,1.1-0.29,1.51-0.41
				c0.41-0.12,0.68-0.2,0.68-0.2l-0.67,0.42c-0.67,0.42-0.62,0.63,0.18,0.62c0,0-0.14,0.04-0.34,0.1c-0.21,0.06-0.48,0.15-0.76,0.21
				c-0.56,0.14-1.13,0.27-1.13,0.27c-0.7,0.39-1.51,0.36-1.55,0.15c-0.75,0.16-0.72,0.35-0.68,0.57c-0.37,0.16,0.04,0.19,1.18-0.06
				c0.57-0.13,1.33-0.3,2.28-0.52c0.94-0.24,2.04-0.6,3.34-0.98l0.07,0.2c0.1,0.3-0.49,0.37-1.46,0.53
				c-0.49,0.07-1.06,0.18-1.7,0.33c-0.65,0.13-1.35,0.31-2.09,0.59c0.05,0.21,0.86,0.23,1.63,0.05c0,0,0.15,0,0.39,0.01
				c0.23,0.01,0.54,0.01,0.84,0c0.61-0.02,1.22-0.03,1.22-0.03l1.58-0.25c-0.07-0.2-0.06-0.2,0.67-0.46l0.74-0.26
				c0.07,0.2-0.67,0.47-1.41,0.73c0.03,0.1-0.33,0.27-1.18,0.55c-0.42,0.14-0.97,0.31-1.65,0.52c-0.68,0.2-1.52,0.38-2.5,0.62
				l-0.78,0.19c0,0-0.19,0.05-0.39,0.08c-0.2,0.04-0.4,0.07-0.4,0.07s-0.75,0.13-1.87,0.33c-0.28,0.05-0.59,0.1-0.91,0.16
				c-0.33,0.04-0.67,0.07-1.03,0.11c-0.71,0.07-1.48,0.15-2.24,0.23c-0.77,0.05-1.54,0.06-2.26,0.08c-0.72,0.02-1.4,0.06-1.98,0.01
				c-1.16-0.05-1.93-0.09-1.93-0.09l0.01-0.21c-2.06-0.09-3.68-0.37-4.78-0.52c-1.1-0.18-1.71-0.24-1.73-0.14
				c-1.54-0.55-3.08-0.95-3.9-0.97c0.06-0.21-0.72-0.4-2.95-1.14c-0.14,0.41,0.55,0.85,1.3,1.09l-1.64-0.08
				c-3.68-1.48-6.53-2.5-7.58-2.01C70.64,167.71,68.74,166.4,68.06,166.1z M105.86,172.47c-0.47,0.06-1.03,0.17-1.64,0.32
				c-0.61,0.15-1.28,0.32-1.94,0.48c-0.68,0.12-1.36,0.24-1.99,0.3c0.01,0.19,1.74,0.11,4.22-0.37c-0.18,0.19-0.57,0.39-1.16,0.57
				c-0.58,0.2-1.38,0.34-2.34,0.45c-0.96,0.11-2.08,0.24-3.37,0.2c-0.64,0-1.31-0.02-2.01-0.04c-0.7-0.02-1.44-0.13-2.19-0.21
				l-1.73-0.09c0,0-0.43-0.09-0.86-0.19c-0.43-0.1-0.85-0.2-0.85-0.2s0.86,0.1,1.72,0.18c0.86,0.04,1.73,0.09,1.73,0.09l0.01-0.21
				c-0.85-0.26-1.71-0.24-4.26-0.58c0,0-0.42-0.06-0.84-0.13c-0.42-0.06-0.84-0.13-0.84-0.13c0.04-0.2,2.57-0.03,2.6-0.27
				c0,0,0.82,0.26,1.66,0.49c0.84,0.2,1.69,0.4,1.69,0.4c0.86,0.04,0.86-0.18,0.88-0.6c0.84,0.3,2.54,0.41,4.22,0.15l-0.03-0.43
				c0.83-0.05,0.85,0.14,0.88,0.57c0.82-0.3,0.82-0.3,0.8-0.51l1.66-0.17c0.8-0.3,1.6-0.48,1.57-0.68c0,0,0.83-0.04,1.66-0.07
				c0.42-0.01,0.83-0.05,1.13-0.08c0.31-0.03,0.51-0.05,0.51-0.05s-0.99,0.26-2.01,0.42c-1.02,0.18-2.04,0.35-2.04,0.35
				c0.03,0.2,0.85,0.09,3.34-0.16l3.26-0.57c0.06,0.22-2.41,0.58-2.36,0.79C106.69,172.38,106.32,172.39,105.86,172.47z
				 M88.58,171.56c0,0,0.46,0.08,1.14,0.2c0.69,0.09,1.62,0.26,2.55,0.32c0.93,0.07,1.87,0.14,2.57,0.19
				c0.35,0.03,0.64,0.03,0.85,0.03c0.2,0,0.32,0,0.32,0c0,0.21,0,0.22-0.83,0.23l-0.84,0.18c-1.05-0.05-1.94-0.1-2.69-0.17
				c-0.74-0.1-1.34-0.21-1.8-0.32C88.93,171.99,88.54,171.77,88.58,171.56z M76.86,169.98c-1.68-0.61-3.29-1.27-3.29-1.27
				c0.24-0.59,1.6,0.18,2.26,0.66l1.55,0.35l1.57,0.32c0.76,0.25,0.76,0.25,1.46,0.69l0.71,0.44l-0.78-0.23l-0.06,0.2
				C80.27,171.13,78.53,170.59,76.86,169.98z M67.97,169.28c-1.26-0.68-2.38-1.37-2.33-1.47l-0.59-0.5c0.1-0.2,3.42,1.37,6.98,3.08
				c-0.08,0.2-0.81-0.1-1.52-0.41c0.71,0.31,0.63,0.5,0.55,0.7C70.66,170.63,69.24,169.96,67.97,169.28z M127.63,167.29
				c-0.57,0.59-2.75,1.68-3.56,1.85c0,0-0.36,0.18-0.72,0.36c-0.37,0.17-0.74,0.34-0.74,0.34c-0.74,0.34-0.65,0.54-0.56,0.73
				c-0.37,0.17-0.96,0.38-1.55,0.57c-0.59,0.18-1.22,0.31-1.65,0.37c0,0-0.38,0.16-0.96,0.4c-0.29,0.12-0.62,0.26-0.98,0.4
				c-0.37,0.14-0.77,0.28-1.16,0.42c-0.79,0.28-1.59,0.57-2.18,0.78c-0.61,0.19-1.02,0.32-1.02,0.32l-1.64,0.49
				c-0.81,0.26-1.72,0.25-2.56,0.45c1.75-0.15-1.58,0.79-6.58,1.28c-1.26,0.08-2.59,0.25-3.99,0.22c-1.39,0.02-2.81,0.05-4.2-0.07
				c-2.79-0.09-5.45-0.49-7.41-0.75c0.05-0.22,0.9-0.03,1.79,0.09c-0.85-0.35,0.07-0.42,0.97-0.5c0,0,0.16,0.02,0.45,0.07
				c0.29,0.03,0.71,0.08,1.21,0.13c1,0.14,2.34,0.15,3.68,0.23c0.33,0.01,0.67,0.03,1,0.04c0.33-0.01,0.65-0.02,0.96-0.02
				c0.62-0.02,1.21-0.04,1.7-0.05c1-0.02,1.65-0.1,1.65-0.1c0.66-0.06,1.48-0.13,2.38-0.21c0.91-0.05,1.86-0.24,2.83-0.37
				c0.48-0.07,0.97-0.14,1.44-0.21c0.46-0.1,0.92-0.19,1.35-0.28c0.86-0.19,1.65-0.36,2.27-0.52l-0.06-0.21
				c1.21-0.37,2.45-0.66,3.77-1.02c1.29-0.39,2.74-0.74,4.28-1.29l0.68-0.51l0.08,0.2c0.08,0.2,0.08,0.2,0.76-0.32
				c0.77-0.31,1.39-0.86,2.14-1.2l0.83-0.15c0,0,0.39-0.12,0.78-0.25c0.38-0.13,0.76-0.27,0.76-0.27c0.71-0.36,1.53-0.53,2.25-0.9
				c-0.82,0.18-0.82,0.17-0.91-0.02c0,0,0.53-0.27,1.07-0.55c0.52-0.29,1.04-0.57,1.04-0.57l-0.69,0.38l0.1,0.19L127.63,167.29z
				 M121.22,163.4c0,0-0.5,0.27-1.02,0.5c-0.52,0.24-1.04,0.48-1.04,0.48l-0.69,0.32c0,0-0.52,0.24-1.04,0.47
				c-0.53,0.22-1.06,0.44-1.06,0.44c0.63-0.48,1.24-0.97,1.92-1.3l0.09,0.2l0.6-0.51c0.6-0.51,1.29-0.82,2.05-0.98L121.22,163.4z"/>
		</g>
		<g>
			<path d="M85.88,168.65l-0.04-0.02c0.02,0.07,0.01,0.15-0.01,0.23L85.88,168.65z"/>
			<path d="M99.47,168.83c-0.13,0.04-0.27,0.08-0.4,0.14C99.08,169.13,99.08,169.03,99.47,168.83z"/>
			<path d="M78.86,163.41l0.35-0.06C79.02,163.33,78.89,163.34,78.86,163.41z"/>
			<path class="st0" d="M73.2,161.82l1.94,1.05c1.28,0.76,3.32,1.6,6.15,2.51c0.64,0.43,1.35,0.66,2.79,1.05l-0.06,0.21
				c1.09,0.29,1.83,0.41,2.31,0.43c0.48,0.02,0.68-0.04,0.7-0.14c0,0-0.55-0.12-1.09-0.25c-0.55-0.12-1.09-0.26-1.09-0.26
				c0.1-0.41,0.16-0.62-0.61-0.6c-0.66-0.39-0.65-0.41-0.71-0.2l-0.77,0c-0.65-0.42-1.29-0.82-3.29-1.76l-0.76-0.05l-0.68-0.25
				c0,0-0.96-0.55-1.92-1.1c-0.95-0.56-1.89-1.14-1.89-1.14l-2.26-0.29C72.62,161.33,73.28,161.63,73.2,161.82z"/>
			<path d="M66.89,165.09l2.12,0.73C67.64,165.2,66.98,164.9,66.89,165.09z"/>
			<path d="M85.85,168.63c-0.04-0.13-0.19-0.25-0.67-0.36L85.85,168.63z"/>
			<path class="st0" d="M87.4,168.96c0,0,0.95,0.2,1.93,0.33c0.48,0.07,0.97,0.14,1.34,0.18c0.37,0.04,0.61,0.07,0.61,0.07
				s0.2,0.02,0.39,0.04c0.2,0.02,0.39,0.03,0.39,0.03c-0.79-0.07-1.54-0.38-1.46-1.01c0,0-0.38-0.04-0.76-0.1
				c-0.38-0.06-0.76-0.11-0.76-0.11l-0.03,0.21l0.71,0.54l-0.77-0.12C88.2,168.92,87.45,168.75,87.4,168.96z"/>
			<path d="M77.15,168.03c-1.45-0.53-2.15-0.83-2.23-0.63C77.06,168.25,77.81,168.49,77.15,168.03z"/>
			<path d="M67.01,168.43c1.37,0.62,2.09,0.93,2.87,1.04C67.77,168.55,67.1,168.24,67.01,168.43z"/>
			<polygon class="st0" points="84.64,167.25 83.85,167.27 84.54,167.67 85.32,167.65 			"/>
			<path class="st0" d="M100.57,168.59l0.76-0.08c-0.03-0.21-0.06-0.42-0.81-0.35l-0.71,0.5c-0.14,0.06-0.25,0.11-0.34,0.15
				C100.06,168.65,100.57,168.59,100.57,168.59z"/>
			<path class="st0" d="M97.48,168.19c-0.75,0.24-0.75,0.45-0.74,0.66C97.52,168.84,98.25,168.38,97.48,168.19z"/>
			<path class="st0" d="M90.67,167.96c-0.01,0.11,0.16,0.23,0.53,0.35c0.37,0.13,0.94,0.24,1.7,0.26
				C92.92,168.36,92.18,168.15,90.67,167.96z"/>
			<path class="st0" d="M73.37,163.29c-0.6-0.48-1.27-0.78-1.94-1.08l-2.67-1.21l-1.5-0.22c0.57,0.49,2.55,1.43,5.26,2.61
				C73.28,163.49,73.28,163.49,73.37,163.29z"/>
			<path d="M76.8,164.69c-0.69-0.27-1.38-0.54-1.46-0.35l0.69,0.28C76.72,164.89,76.72,164.89,76.8,164.69z"/>
			<path class="st0" d="M85.46,170.53c0.05-0.21,1.63,0.05,3.45,0.22c0.9,0.1,1.87,0.14,2.71,0.16c0.84-0.01,1.55-0.07,1.96-0.15
				c0.4,0.12,1.21,0.18,1.91,0.12c0.7-0.07,1.3-0.2,1.3-0.3l-0.8-0.62c0,0-0.39-0.04-0.79-0.09c-0.39-0.07-0.79-0.14-0.79-0.14
				c-0.01,0.21-0.01,0.21,0.78,0.46l0,0.21c-0.8-0.25-0.79-0.25-1.6-0.07l-0.01,0.21c-0.4-0.14-1.19-0.25-2.18-0.4
				c-0.99-0.15-2.16-0.31-3.35-0.4l-1.55-0.29c0.04-0.21-0.13-0.36-0.6-0.49c-0.47-0.13-1.24-0.25-2.39-0.45
				c0.16-0.61-1.31-1.04-0.75-0.21c0,0-0.59-0.06-1.17-0.12c-0.58-0.07-1.17-0.15-1.17-0.15c0.07-0.21-0.68-0.42-2.83-1.21
				l-0.63-0.46l-1.41-0.55c0.16-0.4,0.24-0.59-0.54-0.68l-0.24,0.59c-0.7-0.29-1.31-0.77-1.99-1.06c-0.08,0.2-0.86,0.1-1.54-0.2
				c-0.68-0.3-0.68-0.3-0.09,0.2c0,0,1.05,0.4,2.1,0.79c1.06,0.39,2.14,0.76,2.14,0.76l-0.08,0.2c0.63,0.48,0.63,0.48,1.34,0.75
				c0.08-0.2,0.15-0.4,0.79,0.07c0.71,0.27,2.82,1.26,5.09,1.9C83.94,169.96,84.67,170.35,85.46,170.53z"/>
		</g>
	</g>
</g>
<g>
	<path class="st1" d="M35.88,128.8v-10.02h3.45c0.78,0,1.37,0.05,1.78,0.14c0.57,0.13,1.06,0.37,1.47,0.72
		c0.53,0.45,0.92,1.02,1.19,1.71c0.26,0.69,0.39,1.49,0.39,2.38c0,0.76-0.09,1.44-0.27,2.02s-0.41,1.07-0.68,1.46
		c-0.28,0.38-0.58,0.69-0.91,0.91c-0.33,0.22-0.73,0.39-1.2,0.5s-1,0.17-1.61,0.17H35.88z M37.21,127.62h2.14
		c0.66,0,1.18-0.06,1.56-0.18s0.68-0.3,0.9-0.52c0.31-0.31,0.56-0.74,0.73-1.27c0.18-0.53,0.26-1.17,0.26-1.93
		c0-1.05-0.17-1.85-0.52-2.42c-0.34-0.56-0.76-0.94-1.25-1.13c-0.36-0.14-0.93-0.21-1.72-0.21h-2.11V127.62z"/>
	<path class="st1" d="M50.8,126.46l1.27,0.16c-0.2,0.74-0.57,1.32-1.11,1.73c-0.54,0.41-1.23,0.62-2.08,0.62
		c-1.06,0-1.9-0.33-2.53-0.98c-0.62-0.65-0.93-1.57-0.93-2.75c0-1.22,0.31-2.17,0.94-2.84s1.44-1.01,2.45-1.01
		c0.97,0,1.76,0.33,2.38,0.99s0.92,1.59,0.92,2.79c0,0.07,0,0.18-0.01,0.33h-5.41c0.05,0.8,0.27,1.41,0.68,1.83s0.91,0.64,1.52,0.64
		c0.45,0,0.84-0.12,1.16-0.36S50.62,126.98,50.8,126.46z M46.76,124.47h4.05c-0.05-0.61-0.21-1.07-0.46-1.37
		c-0.39-0.47-0.9-0.71-1.52-0.71c-0.56,0-1.04,0.19-1.43,0.57S46.8,123.84,46.76,124.47z"/>
	<path class="st1" d="M55.64,128.8l-2.76-7.26h1.3l1.56,4.35c0.17,0.47,0.32,0.96,0.46,1.46c0.11-0.38,0.26-0.84,0.46-1.38
		l1.61-4.43h1.26l-2.75,7.26H55.64z"/>
	<path class="st1" d="M65.59,126.46l1.27,0.16c-0.2,0.74-0.57,1.32-1.11,1.73c-0.54,0.41-1.23,0.62-2.08,0.62
		c-1.06,0-1.9-0.33-2.53-0.98c-0.62-0.65-0.93-1.57-0.93-2.75c0-1.22,0.31-2.17,0.94-2.84s1.44-1.01,2.45-1.01
		c0.97,0,1.76,0.33,2.38,0.99s0.92,1.59,0.92,2.79c0,0.07,0,0.18-0.01,0.33h-5.41c0.05,0.8,0.27,1.41,0.68,1.83s0.91,0.64,1.52,0.64
		c0.45,0,0.84-0.12,1.16-0.36S65.4,126.98,65.59,126.46z M61.55,124.47h4.05c-0.05-0.61-0.21-1.07-0.46-1.37
		c-0.39-0.47-0.9-0.71-1.52-0.71c-0.56,0-1.04,0.19-1.43,0.57S61.59,123.84,61.55,124.47z"/>
	<path class="st1" d="M68.38,128.8v-10.02h1.23v10.02H68.38z"/>
	<path class="st1" d="M71.06,125.17c0-1.34,0.37-2.34,1.12-2.99c0.62-0.54,1.39-0.81,2.28-0.81c1,0,1.81,0.33,2.45,0.98
		c0.63,0.65,0.95,1.56,0.95,2.71c0,0.93-0.14,1.67-0.42,2.21c-0.28,0.54-0.69,0.95-1.22,1.25s-1.12,0.44-1.75,0.44
		c-1.02,0-1.84-0.33-2.46-0.98C71.37,127.33,71.06,126.39,71.06,125.17z M72.32,125.17c0,0.93,0.2,1.63,0.61,2.09
		c0.41,0.46,0.92,0.69,1.53,0.69c0.61,0,1.12-0.23,1.52-0.7s0.61-1.17,0.61-2.13c0-0.9-0.2-1.58-0.61-2.04
		c-0.41-0.46-0.92-0.69-1.52-0.69c-0.62,0-1.13,0.23-1.53,0.69S72.32,124.24,72.32,125.17z"/>
	<path class="st1" d="M79.3,131.58v-10.04h1.12v0.94c0.26-0.37,0.56-0.65,0.9-0.83c0.33-0.19,0.74-0.28,1.21-0.28
		c0.62,0,1.17,0.16,1.64,0.48s0.83,0.77,1.07,1.35c0.24,0.58,0.36,1.22,0.36,1.91c0,0.74-0.13,1.41-0.4,2.01
		c-0.27,0.59-0.65,1.05-1.16,1.37c-0.51,0.32-1.04,0.47-1.6,0.47c-0.41,0-0.78-0.09-1.1-0.26s-0.59-0.39-0.8-0.66v3.53H79.3z
		 M80.42,125.21c0,0.93,0.19,1.62,0.57,2.07s0.84,0.67,1.37,0.67c0.55,0,1.02-0.23,1.4-0.69c0.39-0.46,0.58-1.18,0.58-2.15
		c0-0.92-0.19-1.62-0.57-2.08s-0.83-0.69-1.36-0.69c-0.52,0-0.99,0.25-1.39,0.74C80.62,123.56,80.42,124.27,80.42,125.21z"/>
	<path class="st1" d="M92.06,126.46l1.27,0.16c-0.2,0.74-0.57,1.32-1.11,1.73c-0.54,0.41-1.24,0.62-2.08,0.62
		c-1.06,0-1.9-0.33-2.53-0.98c-0.62-0.65-0.93-1.57-0.93-2.75c0-1.22,0.31-2.17,0.94-2.84s1.44-1.01,2.45-1.01
		c0.97,0,1.76,0.33,2.38,0.99s0.92,1.59,0.92,2.79c0,0.07,0,0.18-0.01,0.33h-5.41c0.05,0.8,0.27,1.41,0.68,1.83s0.91,0.64,1.52,0.64
		c0.45,0,0.84-0.12,1.16-0.36S91.87,126.98,92.06,126.46z M88.02,124.47h4.05c-0.05-0.61-0.21-1.07-0.46-1.37
		c-0.39-0.47-0.9-0.71-1.52-0.71c-0.57,0-1.04,0.19-1.42,0.57C88.27,123.33,88.06,123.84,88.02,124.47z"/>
	<path class="st1" d="M94.86,128.8v-7.26h1.11v1.1c0.28-0.51,0.54-0.85,0.78-1.02c0.24-0.16,0.5-0.25,0.79-0.25
		c0.42,0,0.84,0.13,1.26,0.4l-0.42,1.14c-0.3-0.18-0.6-0.27-0.9-0.27c-0.27,0-0.51,0.08-0.72,0.24c-0.21,0.16-0.37,0.39-0.46,0.67
		c-0.14,0.44-0.21,0.92-0.21,1.44v3.8H94.86z"/>
	<path class="st1" d="M103.13,125.58l1.25-0.11c0.06,0.5,0.2,0.91,0.41,1.23c0.22,0.32,0.55,0.58,1.01,0.78
		c0.46,0.2,0.97,0.3,1.54,0.3c0.51,0,0.95-0.08,1.34-0.23s0.68-0.36,0.87-0.62c0.19-0.26,0.28-0.55,0.28-0.86
		c0-0.31-0.09-0.59-0.27-0.82c-0.18-0.23-0.48-0.43-0.9-0.59c-0.27-0.1-0.86-0.27-1.78-0.49c-0.92-0.22-1.57-0.43-1.93-0.62
		c-0.48-0.25-0.83-0.56-1.07-0.93c-0.23-0.37-0.35-0.79-0.35-1.25c0-0.51,0.14-0.98,0.43-1.42c0.29-0.44,0.71-0.77,1.26-1
		s1.16-0.34,1.84-0.34c0.74,0,1.4,0.12,1.96,0.36c0.57,0.24,1,0.59,1.31,1.06s0.47,0.99,0.49,1.58l-1.27,0.1
		c-0.07-0.63-0.3-1.11-0.69-1.44c-0.39-0.32-0.98-0.49-1.75-0.49c-0.8,0-1.39,0.15-1.75,0.44c-0.37,0.29-0.55,0.65-0.55,1.06
		c0,0.36,0.13,0.66,0.39,0.89c0.25,0.23,0.92,0.47,2,0.71c1.08,0.24,1.82,0.46,2.22,0.64c0.58,0.27,1.01,0.61,1.29,1.02
		c0.28,0.41,0.42,0.89,0.42,1.43c0,0.53-0.15,1.04-0.46,1.51c-0.31,0.47-0.74,0.84-1.32,1.1c-0.57,0.26-1.21,0.39-1.93,0.39
		c-0.91,0-1.67-0.13-2.28-0.4c-0.61-0.26-1.09-0.66-1.44-1.19C103.33,126.85,103.15,126.25,103.13,125.58z"/>
	<path class="st1" d="M117.52,128.8v-1.07c-0.57,0.82-1.33,1.23-2.3,1.23c-0.43,0-0.83-0.08-1.2-0.25
		c-0.37-0.16-0.65-0.37-0.83-0.62c-0.18-0.25-0.31-0.55-0.38-0.91c-0.05-0.24-0.08-0.62-0.08-1.15v-4.5h1.23v4.03
		c0,0.64,0.03,1.08,0.08,1.3c0.08,0.32,0.24,0.58,0.49,0.76c0.25,0.18,0.56,0.28,0.93,0.28s0.72-0.09,1.04-0.28
		c0.32-0.19,0.55-0.45,0.69-0.77c0.13-0.33,0.2-0.8,0.2-1.42v-3.89h1.23v7.26H117.52z"/>
	<path class="st1" d="M120.55,128.8v-7.26h1.1v1.02c0.23-0.36,0.53-0.64,0.91-0.86c0.38-0.22,0.81-0.32,1.29-0.32
		c0.54,0,0.98,0.11,1.32,0.33c0.34,0.22,0.59,0.54,0.73,0.94c0.57-0.85,1.32-1.27,2.24-1.27c0.72,0,1.27,0.2,1.66,0.6
		c0.39,0.4,0.58,1.01,0.58,1.84v4.98h-1.22v-4.57c0-0.49-0.04-0.85-0.12-1.06c-0.08-0.22-0.22-0.39-0.43-0.52s-0.46-0.2-0.74-0.2
		c-0.51,0-0.93,0.17-1.27,0.51c-0.34,0.34-0.51,0.88-0.51,1.63v4.22h-1.23v-4.72c0-0.55-0.1-0.96-0.3-1.23s-0.53-0.41-0.98-0.41
		c-0.35,0-0.67,0.09-0.96,0.27c-0.29,0.18-0.51,0.45-0.64,0.8s-0.2,0.86-0.2,1.52v3.77H120.55z"/>
	<path class="st1" d="M132.21,128.8v-7.26h1.1v1.02c0.23-0.36,0.53-0.64,0.91-0.86c0.38-0.22,0.81-0.32,1.29-0.32
		c0.54,0,0.98,0.11,1.32,0.33c0.34,0.22,0.59,0.54,0.73,0.94c0.57-0.85,1.32-1.27,2.24-1.27c0.72,0,1.27,0.2,1.66,0.6
		c0.39,0.4,0.58,1.01,0.58,1.84v4.98h-1.22v-4.57c0-0.49-0.04-0.85-0.12-1.06c-0.08-0.22-0.22-0.39-0.43-0.52s-0.46-0.2-0.74-0.2
		c-0.51,0-0.93,0.17-1.27,0.51c-0.34,0.34-0.51,0.88-0.51,1.63v4.22h-1.23v-4.72c0-0.55-0.1-0.96-0.3-1.23s-0.53-0.41-0.98-0.41
		c-0.35,0-0.67,0.09-0.96,0.27c-0.29,0.18-0.51,0.45-0.64,0.8s-0.2,0.86-0.2,1.52v3.77H132.21z"/>
	<path class="st1" d="M143.88,120.19v-1.42h1.23v1.42H143.88z M143.88,128.8v-7.26h1.23v7.26H143.88z"/>
	<path class="st1" d="M149.67,127.7l0.18,1.09c-0.35,0.07-0.66,0.11-0.93,0.11c-0.45,0-0.79-0.07-1.04-0.21s-0.42-0.33-0.52-0.56
		c-0.1-0.23-0.15-0.71-0.15-1.45v-4.18h-0.9v-0.96h0.9v-1.8l1.22-0.74v2.54h1.24v0.96h-1.24v4.25c0,0.35,0.02,0.58,0.07,0.68
		c0.04,0.1,0.11,0.18,0.21,0.24c0.1,0.06,0.24,0.09,0.42,0.09C149.27,127.75,149.45,127.73,149.67,127.7z"/>
</g>
<g>
	<path class="st1" d="M50.44,86.25h-2.99c-0.94,0-1.05,0.12-2.14,1.21c-0.55,0.55-9.56,9.62-9.56,9.62V81.93
		c0-0.51-0.28-0.79-0.79-0.79h-4.58c-0.51,0-0.79,0.28-0.79,0.79v2.04c0,0.51,0.28,0.79,0.79,0.79h1.68v18.68h-1.67
		c-0.51,0-0.79,0.28-0.79,0.79v2.04c0,0.51,0.28,0.8,0.79,0.8h7.01c0.51,0,0.79-0.28,0.79-0.79v-2.04c0-0.51-0.28-0.8-0.79-0.8
		h-1.65v-1.51l3.59-3.64l6.32,7.72c0.83,1.06,0.83,1.06,2.05,1.06h2.73c0.51,0,0.79-0.28,0.79-0.79v-2.04
		c0-0.51-0.28-0.79-0.79-0.79h-2.25l-6.28-7.76l5.74-5.82h2.8c0.52,0,0.79-0.26,0.79-0.76v-2.07
		C51.23,86.53,50.95,86.25,50.44,86.25z"/>
	<path class="st1" d="M75.12,103.45h-1.66v-8.91c0-5.3-3.34-8.73-8.51-8.73c-2.38,0-4.38,0.73-5.95,2.18v-0.94
		c0-0.51-0.28-0.79-0.79-0.79H53.7c-0.51,0-0.79,0.27-0.79,0.78v2.04c0,0.51,0.28,0.8,0.79,0.8h1.66v13.58H53.7
		c-0.51,0-0.79,0.28-0.79,0.79v2.04c0,0.51,0.28,0.79,0.79,0.79h6.97c0.51,0,0.79-0.28,0.79-0.79v-2.04c0-0.51-0.28-0.79-0.79-0.79
		h-1.66v-8.27c0-3.4,2.39-5.87,5.68-5.87c3.2,0,5.12,2.08,5.12,5.57v8.57h-1.66c-0.51,0-0.79,0.28-0.79,0.79v2.04
		c0,0.51,0.28,0.79,0.79,0.79h6.97c0.51,0,0.79-0.28,0.79-0.79v-2.04C75.91,103.73,75.63,103.45,75.12,103.45z"/>
	<path class="st1" d="M86.44,85.84c-5.97,0-10.65,4.78-10.65,10.88c0,6.03,4.64,10.76,10.57,10.76c5.99,0,10.69-4.78,10.69-10.87
		C97.06,90.57,92.4,85.84,86.44,85.84z M86.44,103.94c-3.84,0-6.85-3.22-6.85-7.33c0-4.11,2.91-7.22,6.77-7.22
		c3.86,0,6.88,3.22,6.88,7.33C93.25,100.83,90.33,103.94,86.44,103.94z"/>
	<path class="st1" d="M128.03,86.26h-7.16c-0.51,0-0.79,0.28-0.79,0.79v2.04c0,0.51,0.28,0.79,0.79,0.79h1.61l-3.41,11.03
		l-4.83-14.05c-0.13-0.38-0.48-0.63-0.88-0.63h-1.43c-0.4,0-0.75,0.25-0.88,0.63l-4.78,14.05l-3.41-11.02h1.61
		c0.51,0,0.79-0.28,0.79-0.79v-2.04c0-0.51-0.28-0.79-0.79-0.79h-7.24c-0.51,0-0.79,0.28-0.79,0.79v2.04c0,0.51,0.28,0.79,0.79,0.79
		h1.7l5.68,16.66c0.13,0.36,0.48,0.61,0.87,0.61h1.54c0.39,0,0.75-0.25,0.87-0.63l4.75-13.65l4.73,13.65
		c0.13,0.38,0.48,0.63,0.88,0.63h1.54c0.39,0,0.74-0.25,0.87-0.61l5.68-16.66h1.7c0.51,0,0.79-0.28,0.79-0.79v-2.04
		C128.82,86.54,128.54,86.26,128.03,86.26z"/>
	<path class="st1" d="M138.16,103.45h-1.66v-16.4c0-0.51-0.28-0.79-0.79-0.79h-4.56c-0.51,0-0.79,0.28-0.79,0.79v2.04
		c0,0.51,0.28,0.79,0.79,0.79h1.66v13.58h-3.01c-0.51,0-0.79,0.28-0.79,0.79v2.04c0,0.51,0.28,0.79,0.79,0.79h8.37
		c0.51,0,0.79-0.28,0.79-0.79v-2.04C138.95,103.73,138.67,103.45,138.16,103.45z"/>
	<path class="st1" d="M154.36,96.48h-2.01c-0.51,0-0.79,0.28-0.79,0.79v3.86c0,1.33-0.94,2.7-2.53,2.7c-1.99,0-2.83-0.83-2.83-2.76
		v-11.2h4.84c0.51,0,0.79-0.28,0.79-0.79v-2.04c0-0.51-0.28-0.79-0.79-0.79h-4.84v-4.33c0-0.51-0.28-0.79-0.79-0.79h-2.11
		c-0.51,0-0.79,0.28-0.79,0.79v4.33h-2.21c-0.51,0-0.79,0.28-0.79,0.79v2.04c0,0.51,0.28,0.79,0.79,0.79h2.21v11.39
		c0,3.73,2.44,6.15,6.22,6.15c3.9,0,6.42-2.33,6.42-5.95v-4.18C155.15,96.76,154.88,96.48,154.36,96.48z"/>
	<circle class="st1" cx="134.61" cy="81.31" r="2.31"/>
</g>
</svg>
