<?xml version="1.0" encoding="UTF-8" standalone="no"?>
<!DOCTYPE svg PUBLIC "-//W3C//DTD SVG 1.1//EN" "http://www.w3.org/Graphics/SVG/1.1/DTD/svg11.dtd">
<svg version="1.1" xmlns="http://www.w3.org/2000/svg" xmlns:xlink="http://www.w3.org/1999/xlink"
     preserveAspectRatio="xMidYMid meet" viewBox="0 0 300 300" width="300" height="300">
    <defs>
        <path d="M150 0C67.16 0 0 67.16 0 150C0 232.84 67.16 300 150 300C232.84 300 300 232.84 300 150C300 67.16 232.84 0 150 0Z"
              id="bNYToHQtb"></path>
        <path d="M82.65 89.24C81.23 89.24 81.07 89.42 79.44 91.05C78.61 91.88 65.1 105.48 65.1 105.48C65.1 103.2 65.1 85.03 65.1 82.76C65.1 82 64.68 81.57 63.92 81.57C63.23 81.57 57.74 81.57 57.05 81.57C56.28 81.57 55.86 82 55.86 82.76C55.86 83.07 55.86 85.51 55.86 85.82C55.86 86.58 56.28 87 57.05 87C57.22 87 58.06 87 59.57 87L59.57 115.01C58.06 115.01 57.23 115.01 57.06 115.01C56.3 115.01 55.88 115.43 55.88 116.2C55.88 116.5 55.88 118.95 55.88 119.26C55.88 120.02 56.3 120.46 57.06 120.46C58.11 120.46 66.52 120.46 67.57 120.46C68.34 120.46 68.76 120.04 68.76 119.27C68.76 118.97 68.76 116.52 68.76 116.21C68.76 115.45 68.34 115.01 67.57 115.01C67.41 115.01 66.58 115.01 65.1 115.01L65.1 112.75L70.48 107.29C76.17 114.24 79.32 118.1 79.96 118.87C81.2 120.46 81.2 120.46 83.03 120.46C83.44 120.46 86.71 120.46 87.12 120.46C87.89 120.46 88.31 120.04 88.31 119.27C88.31 118.97 88.31 116.52 88.31 116.21C88.31 115.45 87.89 115.03 87.12 115.03C86.9 115.03 85.77 115.03 83.75 115.03L74.33 103.39L82.94 94.67C85.46 94.67 86.86 94.67 87.14 94.67C87.91 94.67 88.32 94.28 88.32 93.53C88.32 93.22 88.32 90.73 88.32 90.42C88.31 89.66 87.89 89.24 87.13 89.24C86.23 89.24 83.09 89.24 82.65 89.24Z"
              id="bdBOYni93"></path>
        <path d="M121.65 115.03C121.65 107.01 121.65 102.56 121.65 101.67C121.65 93.72 116.64 88.58 108.88 88.58C105.32 88.58 102.31 89.67 99.96 91.85C99.96 91.71 99.96 90.58 99.96 90.44C99.96 89.67 99.54 89.25 98.78 89.25C98.1 89.25 92.69 89.25 92.02 89.25C91.25 89.25 90.83 89.66 90.83 90.42C90.83 90.73 90.83 93.18 90.83 93.48C90.83 94.25 91.25 94.68 92.02 94.68C92.18 94.68 93.01 94.68 94.51 94.68L94.51 115.04C93.01 115.04 92.18 115.04 92.02 115.04C91.25 115.04 90.83 115.46 90.83 116.23C90.83 116.53 90.83 118.98 90.83 119.29C90.83 120.05 91.25 120.47 92.02 120.47C93.06 120.47 101.42 120.47 102.47 120.47C103.23 120.47 103.65 120.05 103.65 119.29C103.65 118.98 103.65 116.53 103.65 116.23C103.65 115.46 103.23 115.04 102.47 115.04C102.3 115.04 101.47 115.04 99.98 115.04C99.98 107.6 99.98 103.47 99.98 102.64C99.98 97.54 103.56 93.84 108.5 93.84C113.3 93.84 116.17 96.96 116.17 102.19C116.17 103.05 116.17 107.33 116.17 115.04C114.68 115.04 113.85 115.04 113.68 115.04C112.92 115.04 112.5 115.46 112.5 116.23C112.5 116.53 112.5 118.98 112.5 119.29C112.5 120.05 112.92 120.47 113.68 120.47C114.73 120.47 123.09 120.47 124.14 120.47C124.9 120.47 125.32 120.05 125.32 119.29C125.32 118.98 125.32 116.53 125.32 116.23C125.32 115.45 124.9 115.03 124.14 115.03C123.8 115.03 122.97 115.03 121.65 115.03Z"
              id="c22JsiRFHW"></path>
        <path d="M143.73 88.83L144.98 89.08L146.2 89.43L147.37 89.87L148.49 90.4L149.56 91.01L150.57 91.7L151.53 92.46L152.42 93.3L153.24 94.21L154 95.17L154.68 96.2L155.28 97.29L155.8 98.43L156.23 99.61L156.57 100.85L156.82 102.12L156.97 103.43L157.02 104.77L156.97 106.13L156.81 107.45L156.56 108.73L156.21 109.97L155.78 111.17L155.25 112.32L154.65 113.41L153.96 114.45L153.2 115.43L152.37 116.35L151.47 117.19L150.51 117.96L149.49 118.66L148.41 119.28L147.28 119.81L146.1 120.25L144.88 120.61L143.62 120.86L142.32 121.02L140.99 121.07L139.67 121.02L138.38 120.86L137.14 120.61L135.93 120.26L134.76 119.82L133.64 119.3L132.58 118.69L131.57 118L130.62 117.23L129.73 116.4L128.91 115.49L128.16 114.52L127.48 113.5L126.88 112.41L126.37 111.27L125.94 110.09L125.59 108.86L125.34 107.59L125.19 106.28L125.14 104.94L125.19 103.58L125.35 102.26L125.6 100.97L125.94 99.73L126.38 98.53L126.9 97.38L127.5 96.28L128.18 95.24L128.94 94.27L129.77 93.35L130.66 92.51L131.62 91.73L132.64 91.04L133.71 90.42L134.84 89.89L136.01 89.44L137.23 89.09L138.49 88.83L139.78 88.68L141.11 88.62L142.43 88.68L143.73 88.83ZM138.43 94.27L137.25 94.65L136.14 95.18L135.11 95.83L134.17 96.61L133.34 97.51L132.61 98.51L131.99 99.6L131.5 100.78L131.14 102.04L130.91 103.38L130.84 104.77L130.92 106.17L131.15 107.51L131.52 108.78L132.02 109.98L132.65 111.09L133.4 112.11L134.25 113.02L135.2 113.82L136.24 114.49L137.36 115.04L138.55 115.43L139.8 115.68L141.11 115.76L142.43 115.68L143.69 115.44L144.88 115.06L145.99 114.53L147.03 113.87L147.97 113.1L148.81 112.2L149.54 111.2L150.16 110.11L150.65 108.93L151.01 107.67L151.23 106.33L151.31 104.94L151.23 103.54L151 102.2L150.62 100.93L150.11 99.73L149.48 98.62L148.73 97.6L147.88 96.69L146.92 95.89L145.88 95.22L144.75 94.67L143.56 94.28L142.3 94.03L140.99 93.95L139.68 94.03L138.43 94.27Z"
              id="a9TAICL2"></path>
        <path d="M192.74 89.25C191.97 89.25 191.55 89.67 191.55 90.44C191.55 90.74 191.55 93.19 191.55 93.5C191.55 94.26 191.97 94.68 192.74 94.68C192.9 94.68 193.7 94.68 195.15 94.68L190.03 111.22C185.69 98.58 183.28 91.56 182.79 90.15C182.6 89.58 182.07 89.21 181.47 89.21C181.26 89.21 179.54 89.21 179.33 89.21C178.73 89.21 178.2 89.58 178.01 90.15C177.53 91.56 175.14 98.58 170.84 111.22L165.72 94.7C167.17 94.7 167.98 94.7 168.14 94.7C168.9 94.7 169.32 94.28 169.32 93.51C169.32 93.21 169.32 90.76 169.32 90.45C169.32 89.69 168.9 89.27 168.14 89.27C167.05 89.27 158.36 89.27 157.28 89.27C156.51 89.27 156.09 89.69 156.09 90.45C156.09 90.76 156.09 93.21 156.09 93.51C156.09 94.28 156.51 94.7 157.28 94.7C157.45 94.7 158.3 94.7 159.83 94.7C164.94 109.68 167.78 118.01 168.34 119.68C168.54 120.22 169.06 120.59 169.65 120.59C169.88 120.59 171.73 120.59 171.96 120.59C172.55 120.59 173.09 120.21 173.27 119.65C173.74 118.28 176.11 111.46 180.39 99.18C184.64 111.46 187.01 118.28 187.48 119.65C187.67 120.22 188.2 120.59 188.8 120.59C189.03 120.59 190.88 120.59 191.11 120.59C191.69 120.59 192.22 120.21 192.41 119.68C192.98 118.01 195.82 109.68 200.93 94.7C202.46 94.7 203.31 94.7 203.48 94.7C204.24 94.7 204.66 94.28 204.66 93.51C204.66 93.21 204.66 90.76 204.66 90.45C204.66 89.67 204.24 89.25 203.47 89.25C201.33 89.25 193.81 89.25 192.74 89.25Z"
              id="a2qFJ4koEx"></path>
        <path d="M216.17 115.03C216.17 100.27 216.17 92.08 216.17 90.44C216.17 89.67 215.75 89.25 214.99 89.25C214.3 89.25 208.83 89.25 208.15 89.25C207.38 89.25 206.96 89.67 206.96 90.44C206.96 90.74 206.96 93.19 206.96 93.5C206.96 94.26 207.38 94.68 208.15 94.68C208.31 94.68 209.14 94.68 210.64 94.68L210.64 115.04C207.93 115.04 206.42 115.04 206.12 115.04C205.36 115.04 204.94 115.46 204.94 116.23C204.94 116.53 204.94 118.98 204.94 119.29C204.94 120.05 205.36 120.47 206.12 120.47C207.38 120.47 217.42 120.47 218.67 120.47C219.44 120.47 219.86 120.05 219.86 119.29C219.86 118.98 219.86 116.53 219.86 116.23C219.85 115.45 219.43 115.03 218.66 115.03C218.33 115.03 217.5 115.03 216.17 115.03Z"
              id="b1KuUsmvy5"></path>
        <path d="M239.94 104.58C239.18 104.58 238.75 105 238.75 105.76C238.75 106.34 238.75 110.97 238.75 111.55C238.75 113.54 237.34 115.6 234.96 115.6C231.98 115.6 230.72 114.35 230.72 111.46C230.72 110.34 230.72 104.74 230.72 94.66C235.07 94.66 237.49 94.66 237.97 94.66C238.74 94.66 239.16 94.24 239.16 93.48C239.16 93.17 239.16 90.72 239.16 90.42C239.16 89.65 238.74 89.23 237.97 89.23C237.49 89.23 235.07 89.23 230.72 89.23C230.72 85.34 230.72 83.17 230.72 82.74C230.72 81.98 230.3 81.56 229.53 81.56C229.22 81.56 226.69 81.56 226.37 81.56C225.61 81.56 225.18 81.98 225.18 82.74C225.18 83.17 225.18 85.34 225.18 89.23C223.2 89.23 222.09 89.23 221.87 89.23C221.11 89.23 220.69 89.65 220.69 90.42C220.69 90.72 220.69 93.17 220.69 93.48C220.69 94.24 221.11 94.66 221.87 94.66C222.09 94.66 223.2 94.66 225.18 94.66C225.18 104.91 225.18 110.6 225.18 111.74C225.18 117.34 228.84 120.97 234.51 120.97C240.36 120.97 244.14 117.47 244.14 112.05C244.14 111.42 244.14 106.41 244.14 105.78C244.14 105 243.73 104.58 242.95 104.58C242.35 104.58 240.24 104.58 239.94 104.58Z"
              id="b10AxTsn8S"></path>
        <path d="M213.34 78.37C211.42 78.37 209.87 79.92 209.87 81.83C209.87 83.74 211.42 85.29 213.34 85.29C215.25 85.29 216.8 83.74 216.8 81.83C216.8 79.92 215.25 78.37 213.34 78.37Z"
              id="a632oa04x"></path>
        <path d="M90.59 174.94L90.94 174.95L91.28 174.97L91.61 174.99L91.92 175.01L92.21 175.04L92.5 175.08L92.76 175.12L93.02 175.16L93.26 175.21L93.48 175.26L93.69 175.32L93.96 175.41L94.23 175.5L94.49 175.61L94.74 175.72L94.99 175.84L95.23 175.98L95.46 176.12L95.69 176.28L95.91 176.44L96.13 176.61L96.34 176.79L96.54 176.98L96.74 177.18L96.93 177.39L97.12 177.61L97.3 177.83L97.47 178.06L97.63 178.3L97.79 178.55L97.94 178.8L98.08 179.06L98.21 179.33L98.34 179.6L98.46 179.88L98.57 180.17L98.68 180.46L98.77 180.77L98.86 181.08L98.95 181.41L99.02 181.74L99.09 182.09L99.15 182.45L99.2 182.81L99.24 183.19L99.28 183.58L99.3 183.98L99.32 184.39L99.33 184.81L99.34 185.25L99.33 185.63L99.32 186L99.31 186.36L99.28 186.72L99.25 187.07L99.21 187.41L99.16 187.74L99.1 188.06L99.04 188.38L98.97 188.68L98.89 188.98L98.81 189.27L98.72 189.55L98.6 189.89L98.47 190.21L98.33 190.53L98.19 190.83L98.04 191.13L97.88 191.41L97.71 191.69L97.54 191.95L97.35 192.21L97.16 192.45L96.97 192.69L96.76 192.91L96.55 193.13L96.38 193.28L96.2 193.44L96.02 193.58L95.82 193.72L95.62 193.86L95.41 193.99L95.19 194.11L94.96 194.23L94.72 194.34L94.47 194.45L94.22 194.55L93.95 194.65L93.68 194.74L93.47 194.81L93.24 194.86L93.01 194.92L92.76 194.97L92.5 195.01L92.23 195.05L91.96 195.08L91.67 195.11L91.37 195.13L91.06 195.15L90.74 195.16L90.4 195.17L90.06 195.17L82.37 195.17L82.37 174.93L89.84 174.93L90.22 174.93L90.59 174.94ZM86.46 191.76L89.51 191.76L89.92 191.76L90.3 191.75L90.66 191.74L90.98 191.71L91.28 191.69L91.54 191.65L91.77 191.61L91.98 191.57L92.22 191.5L92.45 191.42L92.68 191.34L92.89 191.24L93.09 191.13L93.28 191L93.46 190.87L93.63 190.73L93.79 190.57L93.94 190.38L94.08 190.18L94.22 189.94L94.35 189.69L94.48 189.41L94.59 189.1L94.7 188.78L94.8 188.42L94.88 188.04L94.95 187.62L95.01 187.17L95.05 186.69L95.09 186.18L95.11 185.64L95.11 185.07L95.11 184.5L95.09 183.96L95.05 183.46L95.01 182.99L94.95 182.56L94.88 182.16L94.8 181.8L94.7 181.47L94.59 181.16L94.47 180.87L94.34 180.6L94.2 180.35L94.05 180.11L93.89 179.89L93.72 179.69L93.54 179.51L93.35 179.34L93.14 179.18L92.92 179.04L92.69 178.92L92.45 178.8L92.2 178.71L91.93 178.62L91.65 178.55L91.41 178.51L91.12 178.47L90.78 178.43L90.38 178.41L89.94 178.39L89.44 178.37L88.89 178.36L88.29 178.36L86.46 178.36L86.46 191.76Z"
              id="m38B5olZuf"></path>
        <path d="M109.63 180.23L110.09 180.29L110.53 180.38L110.96 180.49L111.38 180.63L111.77 180.8L112.16 180.99L112.52 181.21L112.87 181.45L113.2 181.72L113.52 182.02L113.82 182.34L114.09 182.68L114.35 183.05L114.58 183.46L114.79 183.88L114.98 184.34L115.14 184.82L115.28 185.33L115.4 185.87L115.49 186.43L115.56 187.02L115.6 187.64L115.63 188.28L115.62 188.96L105.9 188.96L105.92 189.22L105.94 189.47L105.97 189.71L106.01 189.95L106.06 190.17L106.13 190.39L106.2 190.59L106.28 190.79L106.37 190.98L106.47 191.16L106.59 191.33L106.71 191.49L106.84 191.64L106.98 191.78L107.13 191.92L107.28 192.03L107.44 192.14L107.6 192.24L107.77 192.32L107.94 192.4L108.12 192.46L108.3 192.51L108.49 192.55L108.68 192.58L108.88 192.6L109.08 192.6L109.22 192.6L109.35 192.59L109.49 192.57L109.61 192.55L109.74 192.53L109.86 192.5L109.98 192.46L110.09 192.41L110.2 192.36L110.31 192.31L110.42 192.25L110.52 192.18L110.61 192.1L110.71 192.02L110.8 191.94L110.88 191.85L110.97 191.74L111.04 191.64L111.12 191.52L111.19 191.4L111.26 191.27L111.33 191.13L111.39 190.98L111.45 190.83L111.5 190.67L111.55 190.51L115.42 191.15L115.3 191.47L115.17 191.78L115.03 192.08L114.88 192.37L114.71 192.64L114.54 192.9L114.36 193.15L114.17 193.39L113.97 193.61L113.76 193.82L113.54 194.03L113.3 194.21L113.06 194.39L112.81 194.56L112.55 194.71L112.28 194.85L112 194.97L111.71 195.08L111.41 195.18L111.1 195.27L110.78 195.34L110.45 195.4L110.11 195.44L109.76 195.48L109.4 195.5L109.04 195.5L108.46 195.49L107.91 195.44L107.38 195.37L106.87 195.27L106.39 195.13L105.93 194.97L105.5 194.78L105.08 194.56L104.69 194.3L104.33 194.02L103.99 193.71L103.67 193.37L103.38 193L103.16 192.69L102.97 192.36L102.79 192.02L102.62 191.67L102.48 191.31L102.35 190.93L102.24 190.54L102.14 190.14L102.07 189.73L102.01 189.3L101.96 188.86L101.94 188.41L101.93 187.95L101.94 187.4L101.98 186.87L102.03 186.35L102.11 185.86L102.21 185.38L102.34 184.92L102.48 184.48L102.65 184.06L102.84 183.66L103.06 183.28L103.29 182.91L103.55 182.57L103.83 182.24L104.13 181.94L104.44 181.65L104.77 181.4L105.1 181.17L105.45 180.96L105.81 180.77L106.18 180.62L106.56 180.48L106.96 180.37L107.36 180.29L107.78 180.22L108.21 180.19L108.65 180.17L109.15 180.19L109.63 180.23ZM107.73 183.38L107.23 183.67L106.79 184.07L106.43 184.58L106.17 185.16L106.02 185.83L105.97 186.58L111.77 186.58L111.6 185.68L111.4 184.96L111.16 184.4L110.9 184.02L110.46 183.64L109.98 183.37L109.46 183.2L108.89 183.15L108.28 183.2L107.73 183.38Z"
              id="b3RrVQepOc"></path>
        <path d="M117.19 180.51L121.26 180.51L124.02 187.99C124.5 189.49 124.77 190.33 124.82 190.49C125.03 189.86 125.17 189.44 125.22 189.24C125.35 188.82 125.49 188.41 125.64 187.99C125.82 187.5 126.75 185 128.43 180.51L132.42 180.51L126.59 195.17L123.1 195.17L117.19 180.51Z"
              id="cv1x4QcHS"></path>
        <path d="M141.64 180.23L142.1 180.29L142.55 180.38L142.98 180.49L143.39 180.63L143.79 180.8L144.17 180.99L144.53 181.21L144.88 181.45L145.21 181.72L145.53 182.02L145.83 182.34L146.11 182.68L146.36 183.05L146.6 183.46L146.81 183.88L146.99 184.34L147.15 184.82L147.29 185.33L147.41 185.87L147.5 186.43L147.57 187.02L147.62 187.64L147.64 188.28L147.64 188.96L137.92 188.96L137.93 189.22L137.95 189.47L137.98 189.71L138.02 189.95L138.08 190.17L138.14 190.39L138.21 190.59L138.29 190.79L138.39 190.98L138.49 191.16L138.6 191.33L138.72 191.49L138.86 191.64L139 191.78L139.14 191.92L139.3 192.03L139.45 192.14L139.61 192.24L139.78 192.32L139.95 192.4L140.13 192.46L140.31 192.51L140.5 192.55L140.69 192.58L140.89 192.6L141.09 192.6L141.23 192.6L141.37 192.59L141.5 192.57L141.63 192.55L141.75 192.53L141.87 192.5L141.99 192.46L142.11 192.41L142.22 192.36L142.32 192.31L142.43 192.25L142.53 192.18L142.63 192.1L142.72 192.02L142.81 191.94L142.9 191.85L142.98 191.74L143.06 191.64L143.13 191.52L143.21 191.4L143.28 191.27L143.34 191.13L143.4 190.98L143.46 190.83L143.52 190.67L143.57 190.51L147.43 191.15L147.31 191.47L147.18 191.78L147.04 192.08L146.89 192.37L146.73 192.64L146.56 192.9L146.38 193.15L146.18 193.39L145.98 193.61L145.77 193.82L145.55 194.03L145.32 194.21L145.08 194.39L144.82 194.56L144.56 194.71L144.29 194.85L144.01 194.97L143.72 195.08L143.42 195.18L143.11 195.27L142.79 195.34L142.46 195.4L142.12 195.44L141.78 195.48L141.42 195.5L141.05 195.5L140.47 195.49L139.92 195.44L139.39 195.37L138.89 195.27L138.4 195.13L137.94 194.97L137.51 194.78L137.1 194.56L136.71 194.3L136.34 194.02L136 193.71L135.69 193.37L135.39 193L135.18 192.69L134.98 192.36L134.8 192.02L134.64 191.67L134.49 191.31L134.36 190.93L134.25 190.54L134.16 190.14L134.08 189.73L134.02 189.3L133.98 188.86L133.95 188.41L133.94 187.95L133.96 187.4L133.99 186.87L134.05 186.35L134.12 185.86L134.23 185.38L134.35 184.92L134.5 184.48L134.67 184.06L134.86 183.66L135.07 183.28L135.31 182.91L135.57 182.57L135.85 182.24L136.15 181.94L136.46 181.65L136.78 181.4L137.12 181.17L137.46 180.96L137.82 180.77L138.19 180.62L138.58 180.48L138.97 180.37L139.38 180.29L139.79 180.22L140.22 180.19L140.67 180.17L141.16 180.19L141.64 180.23ZM139.74 183.38L139.24 183.67L138.8 184.07L138.44 184.58L138.19 185.16L138.03 185.83L137.99 186.58L143.79 186.58L143.61 185.68L143.41 184.96L143.18 184.4L142.92 184.02L142.48 183.64L142 183.37L141.47 183.2L140.9 183.15L140.29 183.2L139.74 183.38Z"
              id="au1sUZsgv"></path>
        <path d="M151.08 174.93L154.96 174.93L154.96 195.17L151.08 195.17L151.08 174.93Z" id="b82ehHE9"></path>
        <path d="M167.3 180.29L167.96 180.42L168.6 180.61L169.2 180.85L169.78 181.14L170.33 181.49L170.84 181.89L171.33 182.34L171.78 182.84L172.17 183.36L172.51 183.91L172.8 184.49L173.04 185.1L173.22 185.73L173.35 186.39L173.43 187.08L173.46 187.8L173.43 188.53L173.35 189.23L173.22 189.9L173.03 190.54L172.8 191.15L172.5 191.74L172.16 192.29L171.76 192.82L171.31 193.32L170.82 193.78L170.31 194.19L169.76 194.54L169.19 194.83L168.59 195.08L167.96 195.27L167.3 195.4L166.62 195.48L165.91 195.51L165.46 195.5L165.02 195.47L164.59 195.41L164.15 195.33L163.73 195.23L163.3 195.11L162.89 194.96L162.47 194.79L162.06 194.6L161.67 194.39L161.29 194.15L160.94 193.9L160.61 193.62L160.3 193.33L160.01 193.01L159.75 192.67L159.5 192.31L159.28 191.93L159.08 191.53L158.9 191.11L158.75 190.67L158.62 190.21L158.51 189.73L158.43 189.24L158.37 188.72L158.34 188.19L158.32 187.64L158.34 187.21L158.37 186.78L158.43 186.36L158.51 185.94L158.62 185.53L158.75 185.11L158.9 184.7L159.08 184.3L159.28 183.9L159.5 183.5L159.74 183.13L160 182.79L160.28 182.46L160.58 182.15L160.9 181.86L161.24 181.6L161.6 181.36L161.98 181.14L162.37 180.94L162.77 180.76L163.19 180.61L163.61 180.48L164.04 180.37L164.49 180.29L164.94 180.23L165.4 180.19L165.88 180.18L166.6 180.21L167.3 180.29ZM164.75 183.53L164.24 183.76L163.77 184.09L163.33 184.5L162.96 185.01L162.67 185.59L162.46 186.26L162.34 187.01L162.3 187.84L162.34 188.67L162.46 189.42L162.67 190.09L162.96 190.68L163.33 191.18L163.77 191.6L164.24 191.92L164.75 192.16L165.3 192.29L165.89 192.34L166.48 192.29L167.02 192.16L167.53 191.92L168 191.6L168.44 191.18L168.81 190.68L169.09 190.09L169.3 189.41L169.42 188.66L169.46 187.82L169.42 186.99L169.3 186.25L169.09 185.59L168.81 185.01L168.44 184.5L168 184.09L167.53 183.76L167.02 183.53L166.48 183.39L165.89 183.34L165.3 183.39L164.75 183.53Z"
              id="b2HImeGYXY"></path>
        <path d="M185.62 180.23L185.99 180.29L186.35 180.37L186.7 180.48L187.04 180.61L187.38 180.76L187.7 180.94L188.02 181.14L188.32 181.36L188.62 181.61L188.91 181.89L189.19 182.18L189.45 182.5L189.69 182.83L189.91 183.19L190.11 183.56L190.29 183.95L190.45 184.37L190.59 184.79L190.7 185.24L190.8 185.71L190.87 186.19L190.92 186.7L190.96 187.22L190.97 187.76L190.96 188.32L190.92 188.85L190.87 189.37L190.8 189.87L190.7 190.34L190.58 190.8L190.45 191.24L190.29 191.66L190.11 192.06L189.9 192.44L189.68 192.8L189.44 193.15L189.17 193.47L188.89 193.77L188.6 194.05L188.3 194.3L188 194.53L187.68 194.74L187.35 194.92L187.02 195.07L186.67 195.21L186.32 195.31L185.96 195.4L185.59 195.46L185.21 195.49L184.82 195.51L184.64 195.5L184.45 195.5L184.27 195.48L184.09 195.46L183.92 195.44L183.75 195.4L183.58 195.37L183.41 195.32L183.25 195.28L183.09 195.22L182.93 195.16L182.77 195.1L182.62 195.02L182.47 194.95L182.31 194.86L182.16 194.76L182 194.66L181.85 194.55L181.69 194.43L181.53 194.3L181.37 194.17L181.2 194.03L181.04 193.87L180.88 193.71L180.71 193.54L180.54 193.37L180.54 200.75L176.67 200.75L176.67 180.51L180.28 180.51L180.28 182.66L180.39 182.5L180.51 182.33L180.63 182.18L180.76 182.02L180.9 181.88L181.04 181.73L181.18 181.59L181.33 181.46L181.49 181.33L181.66 181.21L181.83 181.09L182 180.98L182.19 180.87L182.37 180.77L182.56 180.67L182.75 180.59L182.95 180.51L183.15 180.44L183.35 180.38L183.56 180.33L183.76 180.28L183.97 180.24L184.19 180.22L184.41 180.19L184.63 180.18L184.85 180.18L185.24 180.19L185.62 180.23ZM182.74 183.42L182.27 183.64L181.83 183.95L181.44 184.34L181.1 184.82L180.84 185.39L180.65 186.04L180.54 186.77L180.5 187.59L180.54 188.53L180.66 189.36L180.85 190.09L181.13 190.72L181.48 191.24L181.89 191.67L182.33 192L182.81 192.24L183.32 192.38L183.87 192.43L184.39 192.38L184.88 192.25L185.33 192.04L185.74 191.73L186.12 191.34L186.44 190.85L186.69 190.25L186.87 189.54L186.98 188.72L187.02 187.79L186.98 186.92L186.87 186.14L186.69 185.45L186.43 184.86L186.09 184.36L185.71 183.96L185.28 183.65L184.82 183.42L184.33 183.29L183.8 183.25L183.25 183.29L182.74 183.42Z"
              id="bKfukpNiG"></path>
        <path d="M200.89 180.23L201.35 180.29L201.8 180.38L202.23 180.49L202.64 180.63L203.04 180.8L203.42 180.99L203.79 181.21L204.13 181.45L204.47 181.72L204.78 182.02L205.08 182.34L205.36 182.68L205.62 183.05L205.85 183.46L206.06 183.88L206.24 184.34L206.41 184.82L206.55 185.33L206.66 185.87L206.75 186.43L206.82 187.02L206.87 187.64L206.89 188.28L206.89 188.96L197.17 188.96L197.18 189.22L197.2 189.47L197.24 189.71L197.28 189.95L197.33 190.17L197.39 190.39L197.46 190.59L197.55 190.79L197.64 190.98L197.74 191.16L197.85 191.33L197.98 191.49L198.11 191.64L198.25 191.78L198.4 191.92L198.55 192.03L198.7 192.14L198.87 192.24L199.03 192.32L199.21 192.4L199.38 192.46L199.57 192.51L199.75 192.55L199.95 192.58L200.14 192.6L200.35 192.6L200.49 192.6L200.62 192.59L200.75 192.57L200.88 192.55L201.01 192.53L201.13 192.5L201.24 192.46L201.36 192.41L201.47 192.36L201.58 192.31L201.68 192.25L201.78 192.18L201.88 192.1L201.97 192.02L202.06 191.94L202.15 191.85L202.23 191.74L202.31 191.64L202.39 191.52L202.46 191.4L202.53 191.27L202.59 191.13L202.66 190.98L202.71 190.83L202.77 190.67L202.82 190.51L206.68 191.15L206.56 191.47L206.43 191.78L206.29 192.08L206.14 192.37L205.98 192.64L205.81 192.9L205.63 193.15L205.44 193.39L205.24 193.61L205.02 193.82L204.8 194.03L204.57 194.21L204.33 194.39L204.08 194.56L203.81 194.71L203.54 194.85L203.26 194.97L202.97 195.08L202.67 195.18L202.36 195.27L202.04 195.34L201.71 195.4L201.38 195.44L201.03 195.48L200.67 195.5L200.3 195.5L199.73 195.49L199.17 195.44L198.64 195.37L198.14 195.27L197.66 195.13L197.2 194.97L196.76 194.78L196.35 194.56L195.96 194.3L195.6 194.02L195.26 193.71L194.94 193.37L194.64 193L194.43 192.69L194.23 192.36L194.05 192.02L193.89 191.67L193.74 191.31L193.62 190.93L193.5 190.54L193.41 190.14L193.33 189.73L193.27 189.3L193.23 188.86L193.21 188.41L193.2 187.95L193.21 187.4L193.24 186.87L193.3 186.35L193.38 185.86L193.48 185.38L193.6 184.92L193.75 184.48L193.92 184.06L194.11 183.66L194.32 183.28L194.56 182.91L194.82 182.57L195.1 182.24L195.4 181.94L195.71 181.65L196.03 181.4L196.37 181.17L196.72 180.96L197.07 180.77L197.45 180.62L197.83 180.48L198.22 180.37L198.63 180.29L199.05 180.22L199.48 180.19L199.92 180.17L200.41 180.19L200.89 180.23ZM198.99 183.38L198.5 183.67L198.06 184.07L197.69 184.58L197.44 185.16L197.29 185.83L197.24 186.58L203.04 186.58L202.86 185.68L202.66 184.96L202.43 184.4L202.17 184.02L201.73 183.64L201.25 183.37L200.72 183.2L200.15 183.15L199.55 183.2L198.99 183.38Z"
              id="cyX3AQqh4"></path>
        <path d="M210.17 195.17L210.17 180.51L213.77 180.51C213.77 181.76 213.77 182.46 213.77 182.59C214.39 181.61 214.94 180.96 215.44 180.65C215.93 180.34 216.49 180.18 217.12 180.18C218 180.18 218.85 180.42 219.67 180.91C219.55 181.25 218.59 183.95 218.47 184.29C217.81 183.87 217.21 183.66 216.65 183.66C216.1 183.66 215.65 183.8 215.27 184.1C214.89 184.4 214.59 184.95 214.38 185.73C214.16 186.51 214.05 188.15 214.05 190.64C214.05 190.94 214.05 192.45 214.05 195.17L210.17 195.17Z"
              id="g1f5HQLft4"></path>
        <path d="M102.27 222.13C102.51 223.46 102.99 224.44 103.73 225.07C104.46 225.69 105.44 226.01 106.69 226.01C108 226.01 108.99 225.73 109.66 225.17C110.33 224.62 110.66 223.97 110.66 223.22C110.66 222.74 110.52 222.34 110.24 222C109.96 221.66 109.47 221.37 108.77 221.12C108.29 220.96 107.21 220.66 105.5 220.24C103.31 219.69 101.77 219.03 100.89 218.24C99.65 217.12 99.03 215.77 99.03 214.17C99.03 213.14 99.32 212.17 99.9 211.27C100.49 210.38 101.33 209.7 102.43 209.22C103.53 208.76 104.86 208.52 106.41 208.52C108.95 208.52 110.86 209.07 112.15 210.19C113.43 211.3 114.11 212.79 114.17 214.65C113.76 214.67 110.49 214.81 110.08 214.83C109.91 213.79 109.53 213.04 108.96 212.58C108.38 212.13 107.52 211.9 106.37 211.9C105.18 211.9 104.25 212.14 103.58 212.63C103.15 212.94 102.93 213.36 102.93 213.89C102.93 214.37 103.13 214.78 103.54 215.12C104.05 215.55 105.3 216 107.29 216.47C109.28 216.94 110.75 217.42 111.71 217.92C112.66 218.43 113.4 219.11 113.94 219.98C114.48 220.85 114.75 221.93 114.75 223.21C114.75 224.37 114.43 225.46 113.79 226.46C113.14 227.48 112.23 228.23 111.05 228.72C109.87 229.21 108.4 229.46 106.65 229.46C104.09 229.46 102.12 228.87 100.75 227.69C99.38 226.5 98.56 224.78 98.29 222.52C99.09 222.44 101.87 222.17 102.27 222.13Z"
              id="cwI8OyGFF"></path>
        <path d="M128.09 226.91C127.56 227.69 126.86 228.31 125.99 228.76C125.12 229.21 124.2 229.44 123.23 229.44C122.25 229.44 121.36 229.22 120.58 228.79C119.8 228.35 119.23 227.75 118.89 226.96C118.53 226.18 118.36 225.1 118.36 223.72C118.36 223.1 118.36 220.01 118.36 214.44L122.24 214.44C122.24 218.48 122.24 220.73 122.24 221.18C122.24 223.24 122.31 224.5 122.45 224.97C122.6 225.43 122.86 225.8 123.23 226.07C123.61 226.34 124.09 226.48 124.67 226.48C125.33 226.48 125.93 226.3 126.45 225.93C126.98 225.57 127.33 225.12 127.53 224.58C127.72 224.04 127.82 222.72 127.82 220.63C127.82 220.21 127.82 218.15 127.82 214.44L131.7 214.44L131.7 229.1L128.09 229.1C128.09 227.79 128.09 227.06 128.09 226.91Z"
              id="fj5VP0H0k"></path>
        <path d="M139.28 214.44C139.28 215.64 139.28 216.31 139.28 216.44C140.56 214.89 142.09 214.11 143.85 214.11C144.79 214.11 145.61 214.3 146.29 214.69C146.98 215.08 147.55 215.66 147.99 216.44C148.63 215.66 149.33 215.08 150.07 214.69C150.82 214.3 151.62 214.11 152.46 214.11C153.54 214.11 154.45 214.33 155.19 214.76C155.94 215.2 156.5 215.84 156.87 216.69C157.13 217.31 157.27 218.33 157.27 219.73C157.27 220.35 157.27 223.48 157.27 229.1L153.39 229.1C153.39 224.07 153.39 221.28 153.39 220.72C153.39 219.27 153.25 218.33 152.99 217.91C152.63 217.35 152.08 217.08 151.33 217.08C150.79 217.08 150.28 217.24 149.8 217.58C149.32 217.91 148.98 218.4 148.76 219.03C148.55 219.67 148.45 220.68 148.45 222.06C148.45 222.53 148.45 224.88 148.45 229.1L144.57 229.1C144.57 224.28 144.57 221.6 144.57 221.07C144.57 219.64 144.5 218.72 144.36 218.31C144.22 217.9 144.01 217.58 143.72 217.38C143.43 217.18 143.03 217.08 142.53 217.08C141.94 217.08 141.4 217.24 140.92 217.56C140.44 217.88 140.1 218.35 139.89 218.96C139.68 219.57 139.58 220.57 139.58 221.98C139.58 222.46 139.58 224.83 139.58 229.11L135.71 229.11L135.71 214.44L139.28 214.44Z"
              id="b1ARX2Xp3"></path>
        <path d="M164.7 214.44C164.7 215.64 164.7 216.31 164.7 216.44C165.98 214.89 167.51 214.11 169.27 214.11C170.21 214.11 171.03 214.3 171.72 214.69C172.41 215.08 172.97 215.66 173.41 216.44C174.05 215.66 174.75 215.08 175.5 214.69C176.24 214.3 177.04 214.11 177.88 214.11C178.96 214.11 179.87 214.33 180.62 214.76C181.36 215.2 181.92 215.84 182.29 216.69C182.55 217.31 182.69 218.33 182.69 219.73C182.69 220.35 182.69 223.48 182.69 229.1L178.81 229.1C178.81 224.07 178.81 221.28 178.81 220.72C178.81 219.27 178.68 218.33 178.41 217.91C178.05 217.35 177.5 217.08 176.75 217.08C176.21 217.08 175.7 217.24 175.22 217.58C174.74 217.91 174.4 218.4 174.19 219.03C173.97 219.67 173.87 220.68 173.87 222.06C173.87 222.53 173.87 224.88 173.87 229.1L169.99 229.1C169.99 224.28 169.99 221.6 169.99 221.07C169.99 219.64 169.92 218.72 169.78 218.31C169.64 217.9 169.43 217.58 169.14 217.38C168.85 217.18 168.45 217.08 167.96 217.08C167.36 217.08 166.82 217.24 166.34 217.56C165.86 217.88 165.52 218.35 165.31 218.96C165.11 219.57 165 220.57 165 221.98C165 222.46 165 224.83 165 229.11L161.12 229.11L161.12 214.44L164.7 214.44Z"
              id="fp2moL5sp"></path>
        <path d="M186.84 212.42L186.84 208.83L190.72 208.83L190.72 212.42L186.84 212.42Z" id="avPpo0vo3"></path>
        <path d="M201.7 217.53L199.05 217.53C199.05 221.08 199.05 223.05 199.05 223.44C199.05 224.64 199.08 225.33 199.13 225.53C199.18 225.73 199.29 225.89 199.47 226.02C199.65 226.15 199.87 226.22 200.13 226.22C200.49 226.22 201.01 226.09 201.69 225.84C201.72 226.14 201.99 228.55 202.02 228.85C201.12 229.24 200.1 229.43 198.96 229.43C198.26 229.43 197.63 229.32 197.07 229.08C196.51 228.85 196.1 228.54 195.83 228.17C195.57 227.8 195.39 227.29 195.29 226.66C195.2 226.21 195.16 225.3 195.16 223.93C195.16 223.5 195.16 221.37 195.16 217.53L193.38 217.53L193.38 214.44L195.16 214.44L195.16 211.53L199.06 209.26L199.06 214.44L201.7 214.44L201.7 217.53Z"
              id="e1Sv0fTbRO"></path>
        <path d="M162.09 146.29C162.09 146.29 162.09 146.29 162.09 146.29C162.09 149.85 162.09 151.83 162.09 152.22C162.09 152.22 162.09 152.22 162.09 152.22C147.58 152.22 139.53 152.22 137.91 152.22C137.91 152.22 137.91 152.22 137.91 152.22C137.91 148.66 137.91 146.68 137.91 146.29C137.91 146.29 137.91 146.29 137.91 146.29C152.42 146.29 160.47 146.29 162.09 146.29Z"
              id="e7SN1zwlA"></path>
        <path d="M186.84 214.44L190.72 214.44L190.72 229.11L186.84 229.11L186.84 214.44Z" id="beUAQhtl"></path>
    </defs>
    <g>
        <g>
            <g>
                <use xlink:href="#bNYToHQtb" opacity="1" fill="#333333" fill-opacity="1"></use>
                <g>
                    <use xlink:href="#bNYToHQtb" opacity="1" fill-opacity="0" stroke="#000000" stroke-width="1"
                         stroke-opacity="0"></use>
                </g>
            </g>
            <g>
                <use xlink:href="#bdBOYni93" opacity="1" fill="#f1f0ed" fill-opacity="1"></use>
                <g>
                    <use xlink:href="#bdBOYni93" opacity="1" fill-opacity="0" stroke="#000000" stroke-width="1"
                         stroke-opacity="0"></use>
                </g>
            </g>
            <g>
                <use xlink:href="#c22JsiRFHW" opacity="1" fill="#f1f0ed" fill-opacity="1"></use>
                <g>
                    <use xlink:href="#c22JsiRFHW" opacity="1" fill-opacity="0" stroke="#000000" stroke-width="1"
                         stroke-opacity="0"></use>
                </g>
            </g>
            <g>
                <use xlink:href="#a9TAICL2" opacity="1" fill="#f1f0ed" fill-opacity="1"></use>
                <g>
                    <use xlink:href="#a9TAICL2" opacity="1" fill-opacity="0" stroke="#000000" stroke-width="1"
                         stroke-opacity="0"></use>
                </g>
            </g>
            <g>
                <use xlink:href="#a2qFJ4koEx" opacity="1" fill="#f1f0ed" fill-opacity="1"></use>
                <g>
                    <use xlink:href="#a2qFJ4koEx" opacity="1" fill-opacity="0" stroke="#000000" stroke-width="1"
                         stroke-opacity="0"></use>
                </g>
            </g>
            <g>
                <use xlink:href="#b1KuUsmvy5" opacity="1" fill="#f1f0ed" fill-opacity="1"></use>
                <g>
                    <use xlink:href="#b1KuUsmvy5" opacity="1" fill-opacity="0" stroke="#000000" stroke-width="1"
                         stroke-opacity="0"></use>
                </g>
            </g>
            <g>
                <use xlink:href="#b10AxTsn8S" opacity="1" fill="#f1f0ed" fill-opacity="1"></use>
                <g>
                    <use xlink:href="#b10AxTsn8S" opacity="1" fill-opacity="0" stroke="#000000" stroke-width="1"
                         stroke-opacity="0"></use>
                </g>
            </g>
            <g>
                <use xlink:href="#a632oa04x" opacity="1" fill="#f1f0ed" fill-opacity="1"></use>
                <g>
                    <use xlink:href="#a632oa04x" opacity="1" fill-opacity="0" stroke="#000000" stroke-width="1"
                         stroke-opacity="0"></use>
                </g>
            </g>
            <g>
                <use xlink:href="#m38B5olZuf" opacity="1" fill="#f1f0ed" fill-opacity="1"></use>
                <g>
                    <use xlink:href="#m38B5olZuf" opacity="1" fill-opacity="0" stroke="#000000" stroke-width="1"
                         stroke-opacity="0"></use>
                </g>
            </g>
            <g>
                <use xlink:href="#b3RrVQepOc" opacity="1" fill="#f1f0ed" fill-opacity="1"></use>
                <g>
                    <use xlink:href="#b3RrVQepOc" opacity="1" fill-opacity="0" stroke="#000000" stroke-width="1"
                         stroke-opacity="0"></use>
                </g>
            </g>
            <g>
                <use xlink:href="#cv1x4QcHS" opacity="1" fill="#f1f0ed" fill-opacity="1"></use>
                <g>
                    <use xlink:href="#cv1x4QcHS" opacity="1" fill-opacity="0" stroke="#000000" stroke-width="1"
                         stroke-opacity="0"></use>
                </g>
            </g>
            <g>
                <use xlink:href="#au1sUZsgv" opacity="1" fill="#f1f0ed" fill-opacity="1"></use>
                <g>
                    <use xlink:href="#au1sUZsgv" opacity="1" fill-opacity="0" stroke="#000000" stroke-width="1"
                         stroke-opacity="0"></use>
                </g>
            </g>
            <g>
                <use xlink:href="#b82ehHE9" opacity="1" fill="#f1f0ed" fill-opacity="1"></use>
                <g>
                    <use xlink:href="#b82ehHE9" opacity="1" fill-opacity="0" stroke="#000000" stroke-width="1"
                         stroke-opacity="0"></use>
                </g>
            </g>
            <g>
                <use xlink:href="#b2HImeGYXY" opacity="1" fill="#f1f0ed" fill-opacity="1"></use>
                <g>
                    <use xlink:href="#b2HImeGYXY" opacity="1" fill-opacity="0" stroke="#000000" stroke-width="1"
                         stroke-opacity="0"></use>
                </g>
            </g>
            <g>
                <use xlink:href="#bKfukpNiG" opacity="1" fill="#f1f0ed" fill-opacity="1"></use>
                <g>
                    <use xlink:href="#bKfukpNiG" opacity="1" fill-opacity="0" stroke="#000000" stroke-width="1"
                         stroke-opacity="0"></use>
                </g>
            </g>
            <g>
                <use xlink:href="#cyX3AQqh4" opacity="1" fill="#f1f0ed" fill-opacity="1"></use>
                <g>
                    <use xlink:href="#cyX3AQqh4" opacity="1" fill-opacity="0" stroke="#000000" stroke-width="1"
                         stroke-opacity="0"></use>
                </g>
            </g>
            <g>
                <use xlink:href="#g1f5HQLft4" opacity="1" fill="#f1f0ed" fill-opacity="1"></use>
                <g>
                    <use xlink:href="#g1f5HQLft4" opacity="1" fill-opacity="0" stroke="#000000" stroke-width="1"
                         stroke-opacity="0"></use>
                </g>
            </g>
            <g>
                <use xlink:href="#cwI8OyGFF" opacity="1" fill="#f1f0ed" fill-opacity="1"></use>
                <g>
                    <use xlink:href="#cwI8OyGFF" opacity="1" fill-opacity="0" stroke="#000000" stroke-width="1"
                         stroke-opacity="0"></use>
                </g>
            </g>
            <g>
                <use xlink:href="#fj5VP0H0k" opacity="1" fill="#f1f0ed" fill-opacity="1"></use>
                <g>
                    <use xlink:href="#fj5VP0H0k" opacity="1" fill-opacity="0" stroke="#000000" stroke-width="1"
                         stroke-opacity="0"></use>
                </g>
            </g>
            <g>
                <use xlink:href="#b1ARX2Xp3" opacity="1" fill="#f1f0ed" fill-opacity="1"></use>
                <g>
                    <use xlink:href="#b1ARX2Xp3" opacity="1" fill-opacity="0" stroke="#000000" stroke-width="1"
                         stroke-opacity="0"></use>
                </g>
            </g>
            <g>
                <use xlink:href="#fp2moL5sp" opacity="1" fill="#f1f0ed" fill-opacity="1"></use>
                <g>
                    <use xlink:href="#fp2moL5sp" opacity="1" fill-opacity="0" stroke="#000000" stroke-width="1"
                         stroke-opacity="0"></use>
                </g>
            </g>
            <g>
                <use xlink:href="#avPpo0vo3" opacity="1" fill="#f1f0ed" fill-opacity="1"></use>
                <g>
                    <use xlink:href="#avPpo0vo3" opacity="1" fill-opacity="0" stroke="#000000" stroke-width="1"
                         stroke-opacity="0"></use>
                </g>
            </g>
            <g>
                <use xlink:href="#e1Sv0fTbRO" opacity="1" fill="#f1f0ed" fill-opacity="1"></use>
                <g>
                    <use xlink:href="#e1Sv0fTbRO" opacity="1" fill-opacity="0" stroke="#000000" stroke-width="1"
                         stroke-opacity="0"></use>
                </g>
            </g>
            <g>
                <use xlink:href="#e7SN1zwlA" opacity="1" fill="#ff00ff" fill-opacity="1"></use>
                <g>
                    <use xlink:href="#e7SN1zwlA" opacity="1" fill-opacity="0" stroke="#000000" stroke-width="1"
                         stroke-opacity="0"></use>
                </g>
            </g>
            <g>
                <use xlink:href="#beUAQhtl" opacity="1" fill="#f1f0ed" fill-opacity="1"></use>
                <g>
                    <use xlink:href="#beUAQhtl" opacity="1" fill-opacity="0" stroke="#000000" stroke-width="1"
                         stroke-opacity="0"></use>
                </g>
            </g>
        </g>
    </g>
</svg>